<?xml version="1.0" standalone="no"?>
<!DOCTYPE svg PUBLIC "-//W3C//DTD SVG 1.1//EN" "http://www.w3.org/Graphics/SVG/1.1/DTD/svg11.dtd" >
<svg xmlns="http://www.w3.org/2000/svg" xmlns:xlink="http://www.w3.org/1999/xlink" version="1.1">
<metadata></metadata>
<defs>
<font id="abrahamregular" horiz-adv-x="1042" >
<font-face units-per-em="2048" ascent="1741" descent="-307" />
<missing-glyph horiz-adv-x="614" />
<glyph unicode="AE" horiz-adv-x="1779" d="M0 53q8 34 24 76t26.5 65.5t36.5 78.5t32 67q39 82 77 173.5t86 214t70 175.5q17 42 62 142t65 155q8 21 28 71.5t30 78.5q25 82 57 106q16 13 41.5 19.5t42.5 7t50.5 -0.5t39.5 -1q228 3 518 -4q24 0 106.5 4.5t144 0.5t101.5 -24q31 -15 45.5 -45t14 -62t-1.5 -67 q0 -10 0.5 -44t-1 -52.5t-7 -45t-20.5 -42.5t-38 -23q-16 -4 -36.5 -6t-36.5 -1.5t-40.5 1t-35.5 0.5q-27 1 -77 3.5t-67.5 2t-76.5 -3.5q-54 -6 -54 -59q0 -6 0.5 -29t1.5 -36.5t6.5 -31t16.5 -26.5q9 -8 18.5 -12.5t22 -6.5t18.5 -2.5t23 0t22 0.5q17 -1 65.5 -0.5 t65.5 -1.5q37 -4 49.5 -27.5t12.5 -64.5q0 -17 3 -50.5t4 -59t-2.5 -53.5t-20 -46.5t-46.5 -25.5q-20 -7 -70.5 -0.5t-70.5 6.5q-4 0 -22.5 0.5t-27.5 0t-25 -2.5t-25 -6.5t-17 -13t-10 -21.5q-3 -26 -4.5 -58t11.5 -62t38 -36q94 -18 176 -16q44 4 103.5 1t99.5 -22 q43 -19 59 -52t19 -89q0 -8 1.5 -33t1.5 -34.5t-2.5 -29.5t-8 -30.5t-17 -24t-28.5 -22.5q-31 -18 -79 -20t-83 4q-65 4 -194 4h-158q-59 2 -119 0q-5 0 -24 -1t-28 -1h-26.5t-28.5 2.5t-25 6.5t-24 11.5t-18 17.5q-25 32 -27 92.5t4 110t-14 99.5q-9 18 -18 24.5t-31 11.5 q-22 4 -39.5 4.5t-28.5 0t-33.5 -3t-40.5 -3.5h-9h-6t-3.5 0.5t-2.5 0.5h-2t-2.5 -1t-3.5 -1.5t-5.5 -2t-8.5 -2.5q-39 -13 -67 -121q-22 -89 -53 -145q-4 -7 -12.5 -30t-18.5 -36.5t-27 -19.5q-66 -23 -160 -12q-61 7 -149 4q-36 0 -62.5 15t-19.5 48zM637 752 q5 -11 12 -13q20 -10 55 -14t69 3.5t42 29.5q19 53 20.5 143t-24.5 131q-45 58 -117 -78q-22 -39 -46 -108t-11 -94z" />
<glyph unicode="ae" horiz-adv-x="1712" d="M74 229q-42 165 52.5 296.5t262.5 152.5q39 6 117 -2q3 0 33.5 -8.5t42.5 -3.5q24 9 31.5 24.5t1 29.5t-18.5 25.5t-25 16.5q-47 17 -108.5 19.5t-108.5 -11.5q-16 -4 -43.5 -17t-50.5 -18.5t-45 0.5q-13 4 -23.5 10.5t-20 19t-13.5 19.5t-13 23q-32 49 -45 102 q-15 61 37 113q44 44 176 65q186 28 287 13q68 -9 139 -37q8 -3 43.5 -27.5t55.5 -25.5q21 -2 55 24t41 29q84 43 176 51q134 9 186 2q56 -9 78 -13t64 -18.5t71 -35.5q89 -68 115 -148q21 -53 21 -111q0 -128 -10 -177q-17 -85 -74 -134q-89 -74 -293 -74q-38 0 -77.5 4.5 t-63.5 7.5t-35 1q-21 -8 -16.5 -30.5t16 -43.5t18.5 -27q75 -63 303 -12q6 1 27.5 6t32.5 6.5t31 4t32.5 0.5t27.5 -6t25.5 -14.5t16.5 -25.5q8 -19 10 -38q8 -79 -7 -134.5t-46 -86.5t-87.5 -47.5t-114 -20.5t-142.5 -2q-123 4 -213 35q-9 3 -41 21t-50 19q-30 4 -116 -29 t-131 -30q-26 0 -81 -1t-81 -1q-8 0 -35.5 0.5t-38 1t-36 1.5t-38.5 3t-34.5 5.5t-36.5 8.5t-33 12.5t-33 16.5q-108 64 -147 221zM372.5 348q-8.5 -27 6.5 -55q25 -44 91.5 -53.5t115.5 24.5q22 14 32 41q4 10 5.5 15t3 10.5t1.5 8t0.5 11t0.5 15.5q3 33 -12.5 47t-57.5 14 q-96 4 -149 -31q-29 -20 -37.5 -47zM1061 715.5q4 -40.5 29 -58.5q8 -5 22 -9t23.5 -5.5t27.5 -4.5t21 -3q5 0 24.5 -1t30.5 -1q52 2 93 33.5t24 78.5q-40 99 -195 89q-52 -5 -78 -41.5t-22 -77z" />
<glyph unicode="OE" horiz-adv-x="1771" d="M76 934q-2 77 3.5 147.5t31.5 152t71 126.5q75 72 172.5 107t202.5 32q218 -8 696 -12q23 0 113.5 5t160 1t109.5 -25q23 -12 37.5 -32.5t18 -43.5t5 -49.5t-0.5 -50.5q-2 -20 -0.5 -41t-1 -42.5t-7.5 -39t-20 -32t-39 -21.5q-20 -5 -43 -6.5t-60 -0.5t-44 1 q-31 0 -82.5 2t-93 2t-80.5 -4q-28 -3 -41 -16.5t-13 -40.5q0 -6 0.5 -29t1.5 -36.5t6.5 -31t16.5 -26.5q12 -9 31.5 -14.5t33.5 -6.5t40 -1.5t32 -0.5q18 -1 65.5 0.5t65.5 -0.5q37 -4 49.5 -27.5t12.5 -64.5q0 -16 4 -50.5t4.5 -59.5t-3 -53.5t-20.5 -46.5t-47 -25 q-20 -8 -76 -1.5t-77 5.5q-2 0 -29 1t-40 0t-34 -4.5t-32 -13t-13 -24.5q-3 -27 -4 -63t12 -71t39 -40q100 -20 207 -17q9 0 48.5 1t57 0t47 -6t50.5 -15q43 -20 59 -53t19 -89q0 -8 1.5 -33.5t1.5 -35.5t-2.5 -30t-8 -30.5t-17 -24t-28.5 -22.5q-30 -17 -78.5 -19.5 t-81.5 1.5q-363 20 -690 2q-148 -5 -191 -2q-163 9 -262.5 50.5t-167.5 133.5q-90 119 -90 312q0 172 -8 442zM446 528q-2 -62 32 -112.5t93 -65.5q65 -16 100.5 23.5t47.5 109.5q6 35 8 82.5t1.5 85t0.5 78.5q6 171 -18 330q-10 61 -62.5 82.5t-118.5 9.5q-40 -7 -61.5 -44 t-19.5 -83q4 -264 -3 -496z" />
<glyph unicode="oe" horiz-adv-x="1673" d="M28 468.5q-11 120.5 13 260.5q12 87 65 178q44 76 112.5 132t152.5 79q74 21 165.5 13.5t159.5 -44.5q38 -20 64 -40q39 -27 61 -9q8 6 22.5 18t26.5 20.5t25 13.5q84 43 176 51q134 9 186 2q53 -8 78.5 -13t66 -19.5t68.5 -35.5q89 -68 115 -147q21 -52 21 -111v-19 q0 -53 -1.5 -81.5t-8.5 -72.5t-25.5 -77.5t-48.5 -60.5q-89 -74 -293 -74q-38 0 -77.5 4.5t-63.5 7t-35 0.5q-21 -8 -16.5 -30.5t16 -43t18.5 -26.5q79 -67 305 -16q5 1 26.5 6t32 6.5t31 4t32.5 0.5t27 -6t25.5 -14.5t16.5 -25.5q7 -19 10 -39q1 -52 2 -57.5t-3.5 -55.5 t-4.5 -57q-2 -37 -50.5 -62.5t-118.5 -36t-125.5 -14t-96.5 -2.5q-54 0 -117 13q-118 26 -182 71q-4 3 -17.5 15.5t-24.5 19.5t-22 8q-8 1 -15 -0.5t-14 -5.5t-11.5 -6.5t-13 -9t-11.5 -8.5q-101 -83 -265.5 -83.5t-265.5 81.5q-56 42 -79 68.5t-48 82.5q-55 127 -66 247.5z M348 597q-3 -96 25 -169q20 -58 67 -74q66 -24 108 -3.5t64.5 71t28 112t-2 120t-24.5 94.5q-21 43 -69.5 59.5t-96.5 0t-69 -59.5q-28 -55 -31 -151zM1023 747q3 -41 28 -59q8 -5 22 -9t23.5 -5.5t27.5 -4.5t21 -3q5 0 24.5 -1t30.5 -1q53 2 94.5 33t24.5 77 q-42 104 -193 94q-52 -5 -79 -42.5t-24 -78.5z" />
<glyph unicode="&#xfb01;" horiz-adv-x="1245" d="M61 883q1 21 3.5 74.5t3.5 74.5q8 113 61 234q33 65 92 114q110 87 250 115q191 35 207 -47q7 -38 10.5 -92t-7 -116t-40.5 -75q-8 -4 -17.5 -5t-22 -0.5t-19.5 -0.5q-70 -3 -129 -59q-30 -28 -32.5 -84t38.5 -74q21 -6 41 -7.5t51 0t43 1.5q23 0 35.5 -2t23.5 -12 t13 -29q7 -48 7.5 -130t-7.5 -130q-16 -47 -72 -47h-84q-4 0 -16 0.5t-17 0t-13.5 -2.5t-14.5 -6q-9 -6 -13 -15t-4 -15t1 -18t1 -18q-3 -4 -1.5 -54t1.5 -59q0 -48 -1 -126.5t-1 -127.5q0 -5 0.5 -27.5t0 -31.5t-3.5 -27.5t-9 -28.5t-18 -20t-29 -14q-21 -4 -48.5 -5t-67 0 t-48.5 1q-17 1 -36 0t-41.5 1t-33.5 7q-24 11 -30.5 54.5t-3 108.5t3.5 68q-4 54 -4 111.5t2 130t2 115.5q0 83 -5 180q-2 39 -2 115zM784 1378q3 92 88 92q15 0 58.5 2t64 2t54.5 -2t63 -8q38 -7 45 -57q2 -13 2 -111q0 -11 1.5 -33.5t0.5 -39.5q0 -2 -1.5 -11l-2 -12 t-3 -10t-5.5 -10l-7.5 -7.5t-11.5 -7.5q-25 -10 -69 -10q-20 0 -61.5 2t-63.5 2q-9 0 -28 -0.5t-30 -0.5t-27 2t-30 7q-44 14 -35 97q1 13 -1 56.5t-1 57.5zM788 973q0 21 5 36.5t17 25t22 15t31 7.5t32 2.5t36.5 0t33.5 -0.5q13 0 31.5 1.5t32 1t30.5 -4.5q8 -2 25.5 -3 t28.5 -2.5t22.5 -7.5t17.5 -18q8 -16 12 -40t4 -41t-1 -47t-1 -40v-145v-23q3 -49 0.5 -219t-2.5 -219q0 -15 3 -58t3.5 -70.5t-8.5 -60.5t-30 -49q-16 -13 -37 -20.5t-49 -8.5t-44.5 -1t-51.5 3t-42 3q-24 0 -37.5 1t-32.5 9t-30 23q-15 20 -18.5 47t-1.5 66.5t2 51.5 q-1 55 -1 74.5t2 75t3 74.5v211q-1 66 -3.5 174t-3.5 176z" />
<glyph unicode="&#xfb02;" horiz-adv-x="1265" d="M70 881q1 21 3 74.5t3 74.5q8 113 61 234q28 63 92 114q106 87 248 115q191 35 207 -47q7 -38 10.5 -92t-7 -116t-40.5 -75q-7 -4 -17 -5t-22.5 -0.5t-19.5 -0.5q-71 -3 -127 -59q-30 -28 -32.5 -84t38.5 -74q21 -6 41 -7.5t51 0t43 1.5q23 0 35.5 -2t23.5 -12t13 -29 q7 -48 7.5 -130t-7.5 -130q-16 -47 -72 -47h-84q-48 0 -61 -9q-9 -6 -13 -14.5t-4 -14.5t1 -18t1 -18q-3 -4 -1.5 -54t1.5 -59q0 -48 -1 -126.5t-1 -127.5q0 -5 0.5 -27.5t0 -31.5t-3.5 -27.5t-9 -28.5t-18 -20t-29 -14q-21 -4 -48.5 -5t-67 0t-48.5 1q-17 1 -36 0t-41.5 1 t-33.5 7q-24 11 -30.5 54.5t-3 108.5t3.5 68q-4 54 -4 111.5t2 130t2 115.5q0 102 -4 180q-2 39 -2 115zM797 1407q0 29 11.5 49.5t25.5 30.5t41.5 15.5t44.5 6t49 0.5q12 0 35 1.5t39.5 1t33.5 -4.5q1 0 16.5 -3t20 -4t17.5 -4.5t19 -7t13 -10t11 -14.5q12 -28 17.5 -63.5 t5.5 -60t-2.5 -79t-2.5 -81.5q0 -152 1 -457.5t1 -458.5q0 -8 2 -57.5t1 -75t-11 -60.5t-31 -51q-20 -16 -52.5 -22.5t-57.5 -5.5t-66 4.5t-55 3.5q-61 3 -82 17q-11 7 -19 18q-15 20 -18.5 47.5t-1.5 67t2 51.5q-2 49 1.5 140t2.5 132q0 38 -4.5 203t-3.5 254q1 63 -4 477z " />
<glyph horiz-adv-x="0" />
<glyph horiz-adv-x="682" />
<glyph horiz-adv-x="0" />
<glyph horiz-adv-x="0" />
<glyph horiz-adv-x="1581" d="M96.5 1358.5q-0.5 10.5 0.5 28.5t5 32q6 30 24.5 43.5t53.5 20.5q46 7 94.5 9t127.5 0.5t96 -1.5q622 0 856 -4q16 0 34 -0.5t35.5 -0.5t34 -4t30 -11t23 -20.5t13.5 -33.5q13 -63 15 -140t-11 -140q-5 -17 -16.5 -28t-32.5 -15t-34 -5t-40.5 0t-32.5 1h-6 q-33 0 -351 -2.5t-349 -2.5q-12 0 -33 1.5t-33.5 2.5t-28 -1t-24.5 -8.5t-14.5 -21t-4.5 -36.5v-16v-14.5t1 -11t3 -10.5t5 -8t8 -8.5t12.5 -6.5t17.5 -7q19 -6 69.5 -3.5t68.5 -10.5q12 -7 20 -19t11 -29t4.5 -30t1.5 -33.5v-26.5q0 -148 -7 -180q-7 -28 -31.5 -38t-53 -8 t-56.5 2t-46.5 -16t-18.5 -54q0 -30 1 -92t1 -113.5t-2 -93.5q0 -21 -1 -64t-1 -65q-3 -72 -93 -84q-71 -5 -151 -5q-98 -4 -148 35q-14 11 -21 29.5t-8 31t-1 38.5q-1 39 -1 83.5t0.5 99.5t0.5 85q1 212 0.5 288t-6 305.5t-7.5 321.5q0 4 -1.5 29t-2 35.5zM887 829 q0 88 59 107q54 15 148 12q21 -2 127 -1t122 1q11 0 40 1t41 0.5t32.5 -6t38.5 -17.5q7 -5 12 -10l8.5 -8.5t6 -10.5t4 -9.5t2 -11.5t0.5 -11v-13.5v-13.5q0 -14 4.5 -60t0 -74t-23.5 -55q-12 -18 -27.5 -23.5t-43.5 -7.5h-90q-5 0 -24.5 1.5t-32 1.5t-26.5 -5t-18 -16 q-3 -11 -3 -32t3 -31q5 -11 19 -15.5t27 -4.5t32.5 1.5t24.5 1.5q67 0 67 -94v-21.5v-27.5t-1 -27t-3.5 -29t-7 -24t-10.5 -21q-4 -5 -8 -9t-7 -6.5t-8.5 -4t-8 -2.5t-9.5 -1.5t-9 -0.5h-11h-11q-50 0 -59 -12q-9 -10 -9.5 -26.5t3.5 -38t4 -30.5q0 -96 -15 -125 q-19 -36 -80 -36q-97 -3 -202 0q-33 -3 -52.5 23.5t-19.5 60.5q-4 271 -2 407q0 62 -2 176t-2 178z" />
<glyph unicode="&#xd;" horiz-adv-x="0" />
<glyph unicode=" "  horiz-adv-x="614" />
<glyph unicode="&#x09;" horiz-adv-x="614" />
<glyph unicode="&#xa0;" horiz-adv-x="614" />
<glyph unicode="!" horiz-adv-x="559" d="M98 1481q0 57 31 77.5t92 20.5q29 0 82 -5.5t76 -6.5q61 -3 87 -28.5t26 -86.5q0 -30 -9 -87.5t-10 -64.5q-30 -305 -43 -577q-2 -54 -14 -160q-1 -8 -1.5 -34.5t-2 -42.5t-11 -33.5t-26.5 -22.5q-18 -6 -39 -6q-60 0 -98 3t-65.5 17.5t-40.5 27t-20.5 49.5t-8.5 67 t-1 96q0 133 -2 398.5t-2 398.5zM109 88v127q2 28 27.5 49t60.5 21q8 0 27.5 -1t27.5 -1h57q44 0 73.5 -17t29.5 -47v-158q0 -37 -19.5 -54t-47.5 -16t-60 1q-16 1 -43.5 -2.5t-40.5 -3.5q-45 0 -68.5 28.5t-23.5 73.5z" />
<glyph unicode="&#x22;" horiz-adv-x="890" d="M101 1396q-5 46 13.5 74t61.5 29q10 0 41.5 2.5t53 3.5t49.5 -1t47 -9q60 -20 57 -86q-3 -47 -8.5 -74t-20.5 -68.5t-24 -70.5q-11 -37 -19.5 -59.5t-30 -48t-49.5 -31.5q-43 -9 -73 25.5t-39 78.5q-2 10 -18 57.5t-26 89.5t-15 88zM494.5 1396q-5.5 46 13 74t61.5 29 q10 0 41.5 2.5t53 3.5t50 -1t48.5 -9q58 -20 55 -86q-2 -37 -7 -64t-9.5 -42.5t-16.5 -48t-20 -58.5q-9 -30 -14 -44.5t-16.5 -38.5t-28.5 -37.5t-39 -18.5q-43 -9 -72.5 25.5t-38.5 78.5q-2 11 -18 58t-26.5 89t-16 88z" />
<glyph unicode="#" horiz-adv-x="1206" d="M43 262q2 12 7.5 44.5t11 58.5t10.5 43q0 22 8 30q11 19 100 15q1 0 33 -1t59 -1q2 10 8 39.5t9 44.5q5 19 10 57q-46 -3 -111 0q-59 4 -71 20q-11 11 -8 27q3 13 8 44.5t10 57.5t10 43q0 23 8 31q15 18 101 14q10 -2 92 -2q6 47 14 95q7 82 29 94q11 6 33 2q27 4 151 4 q18 0 27 -12q15 -18 8 -72q-4 -38 -16 -111h73h76q3 21 15 95q7 82 28 94q11 6 33 2q27 4 152 4q17 0 26 -12q15 -18 8 -72q-4 -38 -16 -111q5 -1 35 -0.5t39 0.5q5 0 24.5 1t31.5 0.5t27 -3t22.5 -10t6.5 -20.5q0 -11 -4 -27q-1 -9 -7 -46t-7 -46q-1 -6 -2 -26.5 t-6.5 -30.5t-22.5 -15q-8 -3 -20 -3.5t-19.5 0t-23 2t-19.5 1.5q-18 0 -31.5 -1t-29.5 -1q-5 0 -15.5 -1t-15.5 -1q-1 -5 -6 -35q-22 -106 -23 -114h74q5 0 25 1t31.5 0.5t27 -3t23 -10.5t6.5 -21q0 -11 -4 -27q-2 -9 -8.5 -46t-8.5 -46q-1 -4 -1 -25t-5.5 -31.5 t-21.5 -15.5q-8 -3 -20 -3.5t-20 0t-23.5 2t-20.5 1.5q-27 0 -60 -2q-29 0 -41 -2l-6 -30q-12 -46 -16 -80q-1 -6 -3 -26t-4.5 -33t-7.5 -23q-8 -14 -20 -17.5t-32 -1t-27 1.5h-93h-28q-13 2 -20.5 10.5t-7.5 25t0.5 26t5.5 30.5t5 23q3 15 9 42t8 44q-19 0 -56 -1t-55 -1 q-8 0 -25 -1t-26 -1q0 -3 -1 -9t-1 -9q-12 -46 -16 -80q-1 -6 -3 -26t-4.5 -33t-7.5 -23q-7 -14 -19 -17.5t-33 -1t-28 1.5h-92h-29q-13 2 -20 11t-7.5 24.5t0.5 26t5.5 30.5t5.5 23q2 13 8 41t8 45h-112q-55 4 -70 21q-11 11 -8 26zM518 451h74q49 0 76 2q3 13 8 41t8 41 q6 30 10 57q-18 0 -55 -1t-55 -1q-12 -2 -39 -2q0 -7 -4 -23q-22 -106 -23 -114z" />
<glyph unicode="$" horiz-adv-x="989" d="M51 1001q7 155 86 250q45 49 139 92q6 3 25.5 9t26.5 12q4 3 6.5 7t3 10t1 10.5t0 11.5t-0.5 10q0 4 -1 21.5t-1.5 29.5t3.5 25.5t13 19.5q8 7 51 7q20 4 84.5 4.5t87.5 -7.5q31 -16 27 -81v-39q1 -14 23.5 -21t74.5 -16q34 -6 79.5 -25t76.5 -39q12 -9 18.5 -22t7.5 -20 t0 -29.5t-1 -28.5q-2 -17 -0.5 -42.5t-1 -56.5t-7.5 -58t-19.5 -47.5t-35.5 -24.5q-42 -7 -94 30q-28 22 -72.5 40.5t-92 23.5t-73.5 -23q-19 -31 -9.5 -71.5t32.5 -63.5q25 -24 80.5 -57.5t75.5 -48.5q67 -46 111.5 -82.5t85.5 -85.5t58.5 -98t17 -113t-25.5 -138 q-19 -57 -59.5 -108t-91.5 -78q-50 -24 -90 -37q-5 -2 -23.5 -4.5t-32.5 -7.5t-18 -14q-2 -6 1.5 -25.5t2.5 -24.5q0 -29 -12 -59q-13 -29 -76 -29h-117q-53 0 -57 27l-6 33q0 2 1.5 22.5t0 34t-7.5 19.5q-4 5 -13.5 7.5t-22 4t-16.5 2.5q-23 4 -69 16q-73 18 -103 35 q-27 15 -31 48t3 65q1 16 -0.5 58t2.5 58q1 7 -1 32.5t1 45.5t16 25q5 3 13.5 3t19.5 -2t20 -4t20 -5t13 -4q25 -8 57.5 -22t56 -23.5t51.5 -17t58 -5t62 15.5q38 18 37 53.5t-21 65.5t-45 51q-33 27 -85 64t-90 63.5t-81.5 66t-70 77t-43 90t-13.5 112.5z" />
<glyph unicode="%" horiz-adv-x="1531" d="M74 1105q3 81 22 148q14 51 35 78q21 40 66 62q90 48 161 43q4 0 22 -1.5t26 -2.5t25.5 -3t30 -6t29 -9.5t32.5 -14t32 -19.5q50 -35 72 -125q21 -65 23 -147t-22 -163t-71 -124q-41 -33 -82 -47q-70 -29 -161.5 -18.5t-149.5 61.5q-49 42 -71 124.5t-19 163.5zM227 29 q1 12 4 23.5t11.5 28.5t14 27.5t15.5 27.5t13 22q8 13 30.5 47.5t37.5 59.5t28 52q39 72 244 424q244 424 315 557q64 115 90 125q27 10 62.5 12.5t87.5 -0.5t65 -3q24 0 31 -17q11 -20 -25 -98q-26 -51 -83 -145t-81 -140q-49 -96 -159 -284q-62 -99 -103 -164 q-37 -60 -100 -174.5t-72 -130.5q-11 -19 -45 -79.5t-60 -100.5t-54 -72q-14 -15 -30 -22t-27.5 -7t-31 2t-28.5 2h-88h-39q-12 2 -18 8.5t-5 18.5zM260.5 1114.5q-3.5 -79.5 20.5 -115.5q25 -36 69 -36h12q52 2 76 25t23 75q0 123 -39 156q-27 19 -63.5 20t-63.5 -20 q-31 -25 -34.5 -104.5zM882 346.5q3 79.5 21 147.5q6 28 35 77q23 38 68 62q80 41 159 41q111 7 197 -53q46 -30 74 -125q21 -65 23 -146.5t-22.5 -162t-72.5 -124.5q-27 -23 -80 -47q-64 -22 -166 -14q-92 11 -145 59q-50 42 -72 124t-19 161.5zM1068 353.5 q-4 -76.5 19 -109.5q20 -35 70 -39h12q54 3 78 26t23 76q0 1 -0.5 20.5t-1 24.5t-2.5 22.5t-4.5 25t-6.5 20t-11 21t-15 14.5q-25 21 -62.5 22t-64.5 -20q-30 -27 -34 -103.5z" />
<glyph unicode="&#x26;" horiz-adv-x="1452" d="M91.5 363.5q-24.5 154.5 51.5 289.5q33 59 63 89.5t85 58.5q15 8 19 17.5t-2 20.5t-14 20t-21 22t-19 22q-42 52 -62.5 127.5t-7.5 140.5q12 66 49 121q57 87 168 138t249.5 42t252.5 -92q69 -50 102.5 -116.5t32.5 -131t-22.5 -126t-58 -108.5t-78.5 -73 q-29 -17 -31.5 -29t14.5 -44q22 -42 56 -89.5t59 -52.5q21 -5 30.5 4.5t14 33.5t6.5 28q6 16 36 22.5t60 5.5t68.5 -3.5t44.5 -2.5q11 0 32 2t30 2t22.5 -2.5t19 -10t9 -22.5t2.5 -38q-1 -61 -31.5 -130t-73.5 -114l-2 -2q-4 -4 -20.5 -15t-22.5 -20q-5 -14 -3 -19t13 -16 q239 -256 187 -297q-12 -9 -37 -10t-55.5 2t-40.5 2q-28 -1 -83 -2t-83 -2q-19 0 -30.5 1t-21.5 8t-13.5 9.5t-16 18.5t-17.5 23q-1 1 -8 11t-12.5 16t-12.5 12.5t-12 7.5q-4 0 -15 -14.5t-38.5 -37t-68.5 -36.5q-104 -36 -208 -42.5t-209.5 25t-187.5 103.5 q-113 98 -137.5 252.5zM471 516q-21 -69 4 -125q24 -50 88.5 -72t124.5 -8q19 5 30 13t12.5 19t0.5 21t-9 23.5t-14 22t-16.5 22t-13.5 17.5q-6 8 -23.5 37t-31 48.5t-35 36.5t-41.5 15q-21 -1 -46 -25.5t-30 -44.5zM524 1099q4 -27 16 -48.5t31 -40.5q21 -16 29 -19 q35 -14 58.5 19.5t22.5 76t-17 68.5q-28 35 -67 33.5t-62 -39.5q-15 -23 -11 -50z" />
<glyph unicode="'" horiz-adv-x="436" d="M58 1396q-5 46 13.5 74t61.5 29q10 0 41.5 2.5t53 3.5t49.5 -1t47 -9q60 -20 57 -86q-3 -47 -8.5 -74t-20.5 -68.5t-24 -70.5q-11 -37 -19.5 -59.5t-30 -48t-49.5 -31.5q-43 -9 -73 25.5t-39 78.5q-2 10 -18 57.5t-26 89.5t-15 88z" />
<glyph unicode="(" horiz-adv-x="634" d="M70 1024q-4 131 18.5 262t87.5 195q87 81 219 114q9 2 26 7t25 7t22 4t21 0.5t16.5 -5.5t14.5 -12.5t9.5 -22.5t5.5 -33q6 -70 2 -213q-1 -10 0 -22.5t1 -18.5t-3.5 -16t-12.5 -21q-7 -12 -27.5 -18t-23.5 -8q-40 -23 -37 -68q3 -214 -2 -559q-2 -66 0.5 -183.5 t11.5 -154.5q12 -52 33 -76q7 -10 31 -20.5t31 -20.5q0 -2 2 -4q6 -14 7 -35t-1 -48.5t-2 -33.5v-118q0 -39 -13 -56q-7 -8 -17.5 -11.5t-17.5 -3t-22 2.5t-20 2q-109 11 -181 50.5t-135 129.5q-22 31 -36 74.5t-18.5 102t-5.5 88.5t-1 90q0 383 -8 653z" />
<glyph unicode=")" horiz-adv-x="583" d="M53 1552q-3 99 143 44q92 -34 173 -94q7 -5 12 -9q54 -47 80 -107q27 -55 43 -130.5t21 -169t6 -161t-1 -172t-2 -137.5q0 -342 -22 -434q-23 -100 -78 -172q-57 -74 -104 -112t-119 -50q-14 -3 -22.5 -5t-26.5 -5q-58 -10 -72 19q-19 30 -14 108q4 39 4 60 q-1 15 -4.5 39.5t-4 37t7.5 30t27 32.5q57 41 66 108q8 21 6.5 243t-0.5 239q5 150 -2 364q0 32 -16 71.5t-41 55.5q-3 2 -20.5 8.5t-24.5 14.5q-7 10 -8.5 21.5t1 28t2.5 23.5q-1 35 -5 105.5t-5 105.5z" />
<glyph unicode="*" horiz-adv-x="792" d="M39 1223q-2 8 0.5 17.5t8.5 23.5t7 16q22 62 25 70q14 35 37 61q6 7 12.5 10t16 1t13 -3.5l17.5 -7.5q50 -22 60 -29q36 -29 38 0q0 10 -3.5 31.5t-4.5 26.5q-4 28 -4 45q0 3 -1 9t-1 10.5t2 8.5q2 8 8 13t16.5 7t18.5 2t20.5 -0.5t14.5 -0.5q40 4 68 4q43 0 73 -10 q36 -9 33 -64q0 -1 -2.5 -17t-3.5 -27.5t-0.5 -26t5.5 -22t15 -5.5q7 1 15 4.5t18 8.5l14 7q3 2 18.5 11t25 13t23.5 8.5t24.5 1.5t17.5 -13q22 -31 53 -121q3 -8 8.5 -22t6.5 -17q14 -28 -2 -41q-5 -3 -43 -16q-9 -3 -29 -12.5t-33 -12.5q-16 -4 -28.5 -13.5t-8.5 -21.5 q2 -12 17.5 -24t17.5 -14q13 -14 39 -54q8 -11 9 -21t-3.5 -17.5t-13 -14.5t-17 -12t-18.5 -11.5t-16 -11.5q-12 -11 -56 -35q-62 -43 -80 -8q-2 5 -6.5 18.5t-9.5 20.5q-5 9 -15.5 27.5t-15.5 27.5q-6 15 -19 29.5t-26 13.5q-3 -1 -11.5 -9.5l-10.5 -10.5q-8 -9 -27 -43 q-5 -9 -15.5 -26.5t-15.5 -26.5q-2 -2 -5 -7.5t-5 -7.5q-18 -32 -39 -30q-15 2 -34.5 14.5t-40.5 30.5t-31 24q-29 20 -49 49q-6 11 -7 22t0 18t9.5 18t11.5 14.5t16.5 15.5t14.5 13q2 2 15 11t19.5 17.5t2.5 16.5q-5 10 -41 22q-13 4 -37.5 12.5t-36.5 12.5q-34 13 -39 29z " />
<glyph unicode="+" horiz-adv-x="915" d="M45 795q0 17 7 29t15 18t25.5 9t26.5 3.5t30.5 0t26.5 -0.5q11 0 32 -2t35.5 -3t30 1t23.5 10.5t8 24.5q0 31 -1 83t-1 85q0 17 14 39.5t33 23.5q42 2 213 2q21 0 36 -32.5t15 -55.5q0 -4 -1.5 -26t-2 -44.5t0 -47t4 -40.5t10.5 -18q17 -4 82 -4q3 0 20 0.5t28 0t29.5 -1 t31 -3.5t25.5 -7t20 -11t7 -17q2 -36 2 -197q0 -29 -18 -46t-49 -17q-23 0 -58 1t-57 1q-5 0 -19 1t-23 1t-19 -2t-15.5 -9.5t-5.5 -19.5q0 -19 1.5 -64.5t0.5 -78.5t-6 -64q-5 -34 -55 -34h-189q-16 0 -28 5.5t-18.5 16.5t-11 21.5t-5.5 28t-1 29t0.5 30.5t0.5 26q0 8 2 25 t2.5 31t-0.5 28.5t-8 22.5t-19 8q-15 0 -44 -2.5t-50.5 -4t-47.5 1t-43 10.5t-28.5 26.5t-11.5 46.5q0 27 -1 81t-1 81z" />
<glyph unicode="," horiz-adv-x="499" d="M70 212q0 28 4 52q1 8 4 14.5t5.5 11t8.5 7.5l9 4.5t11 2.5t11.5 1.5t13.5 1t13 0.5q166 0 225 -8q18 -3 28 -20t11 -37.5t2 -39t0 -24.5q15 -149 -13 -239q-14 -49 -51 -81t-88 -32q-25 0 -34.5 12t-6.5 31.5t9.5 40t12.5 42t3 32.5q-5 16 -41 16q-9 1 -20 1t-24 -0.5 t-20 -0.5q-35 0 -45 8q-10 9 -15.5 21t-6.5 20t-1.5 26t-0.5 23q0 18 -2 52t-2 62z" />
<glyph unicode="-" horiz-adv-x="765" d="M104 610.5q0 10.5 1 25.5t1 21v99q0 5 -1.5 19t-0.5 24t5 16q7 13 26 17t48.5 3t33.5 -1h150q112 -5 170 0h19h22t18.5 -1t21.5 -3.5t17 -6.5q32 -16 24 -84q-1 -20 1 -68.5t2 -60.5q5 -54 -25 -59q-5 -1 -15.5 -2t-15.5 -2q-24 -1 -67.5 0.5t-55.5 1.5h-90q-30 0 -95 1 t-103 1q-50 0 -62 4q-12 3 -18.5 11.5t-8.5 21t-2 23z" />
<glyph unicode="." horiz-adv-x="520" d="M95 196.5q0 11.5 1.5 32.5t7 32t14.5 23.5t24.5 18.5t37.5 6q12 0 54 2t61.5 2t52 -2t58.5 -8q6 -1 10.5 -4t8 -9t5.5 -10.5t4 -13t2.5 -13t2 -15t1.5 -13.5q1 -11 -1 -33t-1 -34q0 -5 2.5 -33.5t2 -41.5t-5 -33.5t-15.5 -33.5q-12 -16 -31 -20.5t-51 -3t-39 1.5 q-96 -7 -164 6q-31 6 -37 41q-2 29 -2 88q0 8 -1.5 32t-1.5 35.5z" />
<glyph unicode="/" horiz-adv-x="735" d="M-5.5 53q2.5 21 6 36.5t13 42t11.5 32.5q45 142 53 172q36 132 127 414q16 51 97 318.5t91 303.5q31 119 60 129q18 8 53 4q28 4 55 5t72.5 0t56.5 -1q25 0 39 -14q19 -23 0 -100q-14 -56 -46 -158t-44 -145q-50 -189 -90 -301q-158 -460 -178 -517q-40 -121 -43 -135 q-3 -9 -8.5 -35t-11.5 -44t-15 -31q-11 -16 -27 -22.5t-29 -6t-34.5 3t-32.5 2.5h-98h-43q-19 2 -28 14t-6.5 33z" />
<glyph unicode="0" horiz-adv-x="1132" d="M76.5 578.5q-0.5 46.5 0.5 111t1 90.5q0 105 19 203.5t70.5 196t129.5 151.5q84 56 210.5 66t219.5 -23q237 -75 303 -348q24 -99 25 -231t-6 -234q-5 -133 -34.5 -238.5t-87.5 -187t-154.5 -123.5t-225.5 -37q-89 3 -177.5 36t-146.5 89q-20 17 -37 41q-86 112 -106 348 q-3 43 -3.5 89.5zM419.5 769.5q-0.5 -46.5 2.5 -106.5t2 -85q-8 -138 45 -209q33 -49 82 -48.5t86 46.5q23 28 35 67q10 32 13.5 82t3.5 110t1 79q2 20 2 45t-1.5 58t-6.5 64.5t-13 62.5t-22 54t-31.5 37.5t-43 14.5t-56.5 -17q-39 -20 -62 -60.5t-29.5 -94t-7 -100z" />
<glyph unicode="1" horiz-adv-x="774" d="M-2.5 1174.5q3.5 16.5 20.5 29.5q153 119 248 164q10 4 30 15t36.5 18.5t29.5 7.5q93 0 148 -2q78 0 111 -12q15 -5 24 -13.5t13 -21t5 -23.5t1 -30q1 -20 2 -59t2 -58q0 -72 2 -107q1 -106 -1.5 -344t-0.5 -366q0 -24 -1 -84t-0.5 -103.5t3.5 -83.5q2 -39 -11 -65.5 t-33 -38.5t-54.5 -17.5t-61.5 -4.5t-69.5 2.5t-63.5 1.5q-47 0 -69 28.5t-26 63.5t-5 123q-1 39 -1 61q-6 259 -2 594q8 96 -28 90q-10 -2 -37.5 -18.5t-36.5 -18.5q-25 -6 -57 35q-10 11 -15 18.5t-9.5 18t-10.5 20.5q-15 23 -32 58t-32 57q-12 21 -17 34.5t-1.5 30z" />
<glyph unicode="2" horiz-adv-x="1212" d="M79.5 1031q-0.5 21 8.5 48q27 79 91.5 148t133.5 109t131 53q221 42 428 -43q224 -110 228 -424q0 -68 -25 -144.5t-65 -134.5q-17 -28 -46.5 -55.5t-53 -44t-66 -43.5t-60.5 -39q-2 -1 -10 -6t-15.5 -9t-19.5 -11.5t-21 -13.5t-20 -14.5t-17.5 -15t-13.5 -14.5t-7 -13.5 t2 -11.5q5 -8 15.5 -12.5t26 -5.5t28.5 -1.5t29.5 0.5t20.5 1q35 0 106.5 -1t106.5 -1q26 0 36.5 -0.5t31 -3.5t30.5 -9.5t21 -20.5t16 -34q4 -15 5 -32t0 -28.5t-3.5 -32t-3.5 -30.5q-2 -14 2.5 -43t2.5 -43q-6 -61 -134 -67l-43 2q-43 1 -43 -2q-48 -4 -249 6 q-54 6 -224 6q-160 0 -250 10q-22 2 -35.5 16.5t-19 33.5t-6.5 46.5t0.5 46t4.5 42.5q0 2 0.5 4t0.5 4q2 19 2 64t5 75.5t20 60.5q68 130 145 175q22 13 78.5 44t99.5 56t76 49q16 12 26 20t25.5 22t25.5 25t21.5 25.5t18 28.5t11 30t4 33t-6.5 35q-15 48 -66.5 65t-105 4 t-80.5 -44q-7 -8 -25.5 -41.5t-39.5 -42.5q-10 -4 -24.5 -4t-25.5 2t-29.5 8t-26 9l-27.5 11t-21 9q-13 6 -39.5 16.5t-38.5 16t-29 18t-22.5 25t-6 33.5z" />
<glyph unicode="3" horiz-adv-x="1097" d="M57.5 320.5q-1.5 17.5 4.5 30.5t12.5 22.5t23 18.5t26.5 13.5t32 13.5t32 13q7 3 26.5 11.5t33 14t35.5 12t34.5 6.5t28.5 -3q22 -8 40 -40.5t22 -37.5q22 -25 57 -39q58 -21 123 4q21 9 31.5 14.5t19 19t8.5 32.5q0 56 -20 88q-36 55 -66 66q-5 3 -27.5 10t-31 15.5 t-8.5 27.5v117q0 4 -0.5 15.5t0 16.5t2 12.5t6 13t12.5 9.5q8 5 17.5 9.5t22.5 9t19 6.5q29 10 45 28q19 25 15 84q0 38 -15 68q-18 38 -60.5 48t-85.5 -4t-69 -42q-4 -4 -24 -36.5t-41 -39.5q-7 -5 -22 -3.5t-25.5 3.5t-27.5 8.5t-27 11t-25 11.5t-21 10q-8 3 -31 12 t-31.5 13.5l-25.5 13.5t-22.5 17.5t-12 22t-4.5 30t9 37.5q24 73 84.5 137t125.5 101t121 48q98 20 202 7.5t196 -52.5q108 -51 157.5 -155t49.5 -234q0 -77 -37 -156q-15 -41 -51 -67q-4 -3 -22.5 -11t-28 -17t-5.5 -21q5 -16 34.5 -34t33.5 -22l4 -4q93 -103 90 -223 q0 -134 -50 -240t-161 -159q-95 -40 -201 -52.5t-206 7.5q-94 20 -199.5 102.5t-142.5 190.5q-7 22 -8.5 39.5z" />
<glyph unicode="4" horiz-adv-x="1159" d="M1.5 507q-0.5 34 0 47t3 37.5t7.5 41.5q6 17 17.5 38t21 34.5t27 37.5t22.5 31q29 43 107.5 172t128.5 197q14 19 35 54.5t37 55.5q12 15 36 52.5t41 54.5q24 25 70 36.5t89 9.5t83 -3q10 0 44 1t55 0t46.5 -9.5t36.5 -26.5q5 -8 5.5 -21.5t-1 -29.5t-0.5 -23 q6 -86 9 -168q2 -61 2 -360q0 -4 -2 -34t-1 -52.5t7 -30.5t19 -10.5t31 -2t23 0.5h27.5t29.5 -0.5t28 -5.5t22 -15q10 -13 13 -34t1 -57t-2 -38q0 -21 -1 -55t-1 -53q-1 -24 -7 -38t-19.5 -19t-25.5 -5.5t-34 1t-35 1.5q-46 0 -59 -9q-11 -10 -16 -25q-4 -12 -4 -22t2 -22 t2 -22q0 -64 2 -121q2 -39 -9.5 -64.5t-30 -36.5t-50.5 -14.5t-58.5 -1t-66 5.5t-62.5 3q-27 0 -46 4.5t-30.5 17.5t-17 25.5t-7.5 40t-1.5 48t1.5 62.5t1 72q-2 31 -14.5 47t-43.5 17h-200q-34 -1 -95.5 0.5t-95.5 -0.5q-39 -3 -66 18.5t-30 60.5v66q0 4 -0.5 38z M388.5 654q0.5 -5 2.5 -9.5t6 -7.5t11 -4q49 -7 90 -4q1 0 15 -0.5t19 0t15 2.5t16 6.5t10 11.5t6 17.5t2 18t-0.5 20.5t-0.5 18q0 16 1 50t1 52q0 3 1 18.5t1 29t-1 29.5t-5 26.5t-11 13.5q-15 7 -30.5 -6t-22.5 -27q-16 -29 -102 -190l-4 -8l-5 -10l-5.5 -11t-5 -12.5 t-3 -12t-1 -11.5z" />
<glyph unicode="5" horiz-adv-x="1169" d="M76.5 313.5q-1.5 18.5 5.5 33t13.5 24.5t24.5 20t28 14.5t34.5 14.5t34.5 14q5 2 25.5 11.5t31 13.5t29.5 9.5t31.5 5t26 -6t22.5 -18.5q25 -34 42 -52.5t46 -35.5t64 -21q32 -4 61 0.5t54 22t34 47.5q29 90 -22.5 140.5t-145.5 57.5q-44 3 -132 3t-132 3q-50 5 -74 18.5 t-31 55.5q-6 52 -8 113.5t-1.5 112t-0.5 114.5q0 23 1 81.5t0.5 100.5t-3.5 82q-2 33 7.5 56.5t30 37t42 21.5t53.5 9.5t54.5 1.5t56 -1.5t47.5 -1.5q17 0 25 -2q1 0 110.5 -0.5t114.5 0.5q36 1 107.5 0t107.5 0q63 0 119 -12q22 -4 32 -15.5t17 -33.5q11 -28 13 -60 t-1.5 -76.5t-3.5 -62.5q0 -22 -4.5 -37.5t-20.5 -25t-27.5 -15.5t-44 -8.5t-51 -3t-66.5 -1.5h-20t-18.5 -0.5t-21.5 -0.5q-91 0 -134 -2h-49q-34 3 -59 -2q-5 -1 -10 0t-9 -1t-6 -7q-5 -10 -5.5 -20.5t2.5 -27t3 -18.5v-10v-11t0.5 -9t2 -9t4 -7t6.5 -6.5t10 -4.5h35h32.5 h34.5t31 -0.5t34.5 -2t31 -4t32.5 -6.5q146 -35 233 -162t87 -307q-2 -143 -55.5 -256.5t-170.5 -169.5q-101 -43 -213.5 -56.5t-218.5 7.5q-62 12 -131.5 50t-134 106t-90.5 147q-8 23 -9.5 41.5z" />
<glyph unicode="6" horiz-adv-x="1208" d="M98 905q12 116 68 232q34 70 88 129.5t119 95.5q92 53 200 65q133 19 283 -18q35 -9 82.5 -30.5t89 -59t29.5 -72.5q-7 -19 -25 -43q-8 -13 -24.5 -39.5t-30 -46.5t-27.5 -37l-14 -14q-37 -43 -78 -43q-26 1 -91 21t-95 20q-46 0 -92.5 -14t-75.5 -41q-33 -28 -49 -76 q-18 -42 6 -49q8 -2 17 1.5t22 11t16 9.5q94 42 154 37q119 -10 182 -33.5t137 -97.5q59 -56 113 -180q48 -119 24 -241.5t-110 -227.5q-76 -79 -162 -129q-74 -39 -152 -51q-234 -43 -419 110q-48 40 -103 117q-143 215 -82 694zM453 451q3 -78 63.5 -110.5t145.5 -10.5 q58 15 86 48t22 97q-15 139 -152 139q-72 -2 -120 -44.5t-45 -118.5z" />
<glyph unicode="7" horiz-adv-x="1099" d="M71 1245q1 22 5.5 51t19 49t37.5 29q16 6 34 9t39 3.5t34.5 0.5t39.5 -1.5t35 -1.5q38 0 155.5 -3t154.5 -2.5t155 3.5q0 3 114 2l114 -2q50 0 67 -45q10 -29 13 -50.5t2 -36.5t-3 -51t-2 -73q0 -24 -7.5 -44t-19 -38.5t-14.5 -25.5q-81 -153 -88 -166 q-61 -114 -161 -322q-114 -223 -195 -440q-28 -81 -49 -96q-11 -8 -100 -8q-24 0 -70 1t-68 1q-4 0 -24 -1t-31 -0.5t-26 5.5t-23 16q-8 7 -5.5 23.5t6 25t11.5 24.5t10 21q30 82 78 199q39 100 74 174q63 143 141 287q62 113 82 145q19 32 41 60q47 66 35 80q-7 9 -31 4 q-20 -4 -59 -4q-17 0 -70 2t-88.5 3t-81.5 0t-76 -5q-95 -11 -151 10q-32 11 -41.5 33.5t-9.5 66.5q0 5 -2 35.5t-1 52.5z" />
<glyph unicode="8" horiz-adv-x="1089" d="M49 406q3 92 41 172q6 13 14.5 24.5t22 26.5t18.5 22q6 8 29 27.5t33.5 37t5.5 36.5q-3 9 -10.5 20t-11.5 16t-17 18l-14 13q-27 30 -41 66q-29 68 -29 141q1 73 24 138t62 114t91.5 87.5t113.5 58t127 26.5t131 -8q31 -6 63 -19q92 -35 167.5 -107.5t103.5 -162.5 q52 -158 -8 -293q-15 -38 -43 -63q-31 -24 -50 -56q-8 -15 0 -30q11 -23 47.5 -59t47.5 -52q41 -65 55 -135q15 -70 2 -150t-53 -141q-45 -72 -131 -127q-108 -68 -247 -76t-267.5 48t-202.5 163q-33 47 -62 135q-12 43 -12 89zM403 434q-8 -58 43.5 -97.5t112.5 -39.5 q50 0 91.5 34.5t47.5 76.5q3 30 -10 65.5t-41 52.5q-46 27 -98 28.5t-94.5 -29.5t-51.5 -91zM434 989.5q16 -38.5 49 -57.5q40 -27 86 -16t74 61q27 55 5.5 98.5t-77.5 59.5q-94 27 -137 -66q-16 -41 0 -79.5z" />
<glyph unicode="9" horiz-adv-x="1183" d="M79.5 1025.5q22.5 131.5 100.5 217.5q75 82 156 127q135 73 292.5 57t276.5 -116q56 -47 103 -117q141 -212 84 -694q-16 -127 -70 -232q-70 -149 -207 -227q-94 -51 -201 -66q-129 -16 -282 21q-82 21 -137 57q-37 22 -45 37q-4 7 -5 16q-1 21 9.5 59.5t11.5 43.5 q10 49 45 102q21 37 55 58q12 7 28 8.5t33.5 -2t33 -8.5t33.5 -11t28 -8q27 -8 94 -8q46 0 93.5 14t76.5 41q27 24 49 76q0 1 1.5 5t2 6t1.5 6.5t1 7v6t-1 6t-2.5 5.5t-4 4.5t-6.5 2.5q-6 1 -13.5 -1t-13 -5t-15 -9t-11.5 -7q-97 -41 -156 -37q-167 16 -258 76 q-117 73 -166 237q-37 120 -14.5 251.5zM414 915q12 -139 151 -139q71 2 119 45t45 119q-3 78 -62.5 110.5t-144.5 10.5q-58 -15 -86.5 -48.5t-21.5 -97.5z" />
<glyph unicode=":" horiz-adv-x="516" d="M79 982q2 23 8 39.5t23.5 26t47.5 9.5q12 0 53.5 2t61 2t51.5 -2t57 -8q41 -12 41 -70q-1 -14 -1 -28.5t0.5 -32t0.5 -27.5q3 -57 2 -80q-2 -19 -2.5 -25.5t-6.5 -18t-18 -17.5q-20 -11 -61 -11q-23 -1 -64.5 1.5t-56.5 2.5q-7 0 -30 -1.5t-38 -1.5t-33 4.5t-26 15.5 q-15 21 -6 78q2 30 -2 92q-3 27 -1 50zM81 196.5q0 11.5 1.5 32.5t7 32t14.5 23.5t24.5 18.5t37.5 6q12 0 53.5 2t61 2t52 -2t58.5 -8q5 -1 9 -3t7 -6t5 -7t4 -9t3 -9.5t2.5 -11t2 -11t1.5 -11t1 -10.5q1 -11 -1 -33t-1 -34q0 -5 2.5 -33.5t2 -41.5t-5 -33.5t-15.5 -33.5 q-12 -16 -31 -20.5t-51 -3t-39 1.5q-96 -7 -164 6q-31 6 -37 41q-2 29 -2 88q0 8 -1.5 32t-1.5 35.5z" />
<glyph unicode=";" horiz-adv-x="514" d="M71 874.5q3 56.5 3 57.5q-3 27 -1 50t8 39.5t23.5 26t47.5 9.5q12 0 53.5 2t61 2t51.5 -2t57 -8q37 -9 41 -56q0 -22 1 -75.5t1 -92.5q0 -45 -18 -65.5t-70 -20.5q-23 -1 -64.5 1.5t-56.5 2.5q-12 0 -32.5 -2t-36.5 -2t-31 4q-26 7 -33.5 40t-4.5 89.5zM72 212q0 28 4 52 q1 8 4 14.5t5.5 11t8.5 7.5l9 4.5t11 2.5t11.5 1.5t13.5 1t13 0.5q166 0 225 -8q18 -3 28 -20t11 -37.5t2 -39t0 -24.5q15 -151 -12 -239q-14 -49 -52.5 -81t-89.5 -32q-25 0 -34.5 12t-6.5 31.5t9.5 40t12.5 42t3 32.5q-2 8 -11 12t-23 5t-26 1t-26.5 -1t-18.5 -1 q-33 0 -43 8q-10 9 -15.5 21t-6.5 20t-1.5 26t-0.5 23q0 18 -2 52t-2 62z" />
<glyph unicode="&#x3c;" horiz-adv-x="860" d="M2 715q6 61 51 116q17 21 44.5 65.5t31.5 51.5q11 17 81 120.5t105 158.5q77 131 121 145q38 13 86 15t112 -2.5t87 -4.5q37 0 45 -16q16 -30 -35 -115q-47 -79 -157.5 -238t-159.5 -243q-16 -25 -19 -45t4 -37t25 -47q53 -76 158 -232t106 -157q53 -77 62 -93 q44 -81 -13 -87h-53q-58 -3 -113 0q-12 0 -38 -3t-42 -3.5t-38 7t-41 25.5q-39 35 -109 136.5t-138.5 208.5t-80.5 124q-5 8 -33.5 42.5t-40.5 58.5t-8 49z" />
<glyph unicode="=" horiz-adv-x="927" d="M107.5 799q-0.5 10 0.5 26.5t1 20.5v67q0 3 -0.5 14.5t-0.5 17.5t2 14.5t5 13.5q7 13 26 17t48 2.5t34 -1.5q25 0 105 -1t104 -1q36 -1 129.5 1t132.5 5q6 0 19.5 0.5t21.5 0t19.5 -1t21 -3t17.5 -6.5q32 -16 24 -84q-1 -20 0.5 -55t1.5 -47q4 -51 -24 -56 q-5 -1 -15.5 -2t-15.5 -2q-18 -1 -49.5 -1t-68.5 0.5t-48 0.5h-397q-50 0 -62 4q-12 3 -19 11.5t-9.5 21.5t-3 23zM110 430.5q0 10.5 1.5 25.5t1.5 21v68q0 4 -0.5 14.5t-0.5 17t2 14.5t5 13q7 13 26 17t48.5 3t33.5 -1q25 0 103 -1t102 -1q36 -1 129.5 1t132.5 5 q76 0 99 -11q32 -16 24 -84q-4 -70 -4 -102q4 -50 -25 -55q-5 -1 -15 -2t-15 -2q-18 -1 -48 -1t-65.5 0.5t-46.5 0.5h-135q-19 0 -61.5 -1.5t-71.5 -0.5q-27 2 -129 2q-50 0 -62 4q-12 3 -18.5 11.5t-8.5 21t-2 23z" />
<glyph unicode="&#x3e;" horiz-adv-x="860" d="M92 1366q8 14 43 14q23 0 86.5 4.5t110.5 2.5t84 -15q39 -10 121 -143q20 -34 80 -120.5t85 -135.5q9 -18 22 -37.5t31 -43.5l27 -36q55 -70 72 -106q15 -22 12 -52q-3 -17 -14 -36.5t-18 -28t-27 -31.5q-6 -7 -59 -84q-76 -105 -144 -219q-85 -143 -160 -213 q-20 -17 -42.5 -24.5t-38 -7.5t-41 2.5t-37.5 2.5h-109h-51q-71 7 18 137q7 10 20 29q8 10 11 15q10 16 33.5 53.5t36 57.5t33.5 49.5t40 54.5q89 123 99 143q6 9 17.5 24.5t18 25.5t14.5 27t7 28.5t-6 31.5q-17 37 -40 73.5t-63 91t-51 69.5q-134 196 -186 282 q-51 85 -35 115z" />
<glyph unicode="?" horiz-adv-x="1093" d="M40.5 1136q-3.5 56 17.5 115t46.5 109.5t49.5 81.5q77 97 200 140t250 22q122 -17 209 -68q71 -39 136 -109.5t89 -142.5q25 -79 16 -184.5t-44 -179.5q-9 -17 -24.5 -37.5t-27.5 -34.5t-33 -36t-28 -30q-10 -11 -34 -33t-40 -41t-24 -40q-6 -17 -8 -118t-21 -116 q-25 -20 -68 -20t-71 6q-22 2 -58 -1t-58 -3.5t-56 8.5q-14 5 -22 20t-11 41.5t-3.5 38.5t-0.5 39q1 15 1 43.5t1 52t4 43.5q8 55 39 91t88 73q64 41 105.5 104t31.5 128q-10 74 -60.5 108.5t-129.5 34.5q-58 0 -98 -48.5t-58 -113.5q-12 -44 -28.5 -55.5t-61.5 -9.5 q-9 0 -36 0.5t-39.5 1.5t-34 4t-37.5 11t-31 20q-34 29 -37.5 85zM421.5 95.5q0.5 12.5 2.5 35t2 29.5q1 11 1.5 35t2 38.5t11 30.5t28.5 23q36 12 67.5 13t64.5 -3.5t52 -3.5q4 0 25 3.5t28 3t21 -5t25 -15.5q18 -19 23 -45t2.5 -67t-1.5 -58q2 -35 2.5 -63t-24.5 -43.5 t-82 -10.5q-22 2 -66.5 -1t-75 -4.5t-61 10.5t-41.5 40q-4 12 -5.5 29t-1 29.5z" />
<glyph unicode="@" horiz-adv-x="1597" d="M70.5 718.5q-1.5 99.5 8 208.5t40.5 211t80 167q55 74 147 134t186 89q137 37 305.5 34.5t317.5 -34.5q83 -19 156 -53q213 -100 235 -398q25 -298 -16 -518q-9 -46 -25 -87t-48 -80t-73 -54q-34 -12 -69 -15.5t-87 -2t-71 1.5q-6 0 -25 -0.5t-29 0t-25.5 2t-28 6 t-23.5 12.5q-10 6 -23 23.5t-22 23.5q-6 5 -11.5 5t-8.5 -2.5t-9.5 -8.5t-9.5 -8q-40 -32 -104 -35q-41 -4 -89.5 -1.5t-86.5 21.5q-107 47 -150 123q-35 62 -39 199q-5 103 4 227q5 68 39 126t92 93q62 37 144 46t149 -23q42 -23 64 -18q6 1 16.5 7.5t17.5 8.5 q58 14 105 -4q25 -10 40.5 -29.5t21.5 -49.5t7 -49t1 -53v-4v-3v-3.5v-3.5q-1 -39 -3.5 -95.5t-3.5 -92.5q0 -12 -1 -34t-1 -34q0 -16 -1.5 -35.5t6.5 -36.5t26 -20q41 -5 55 2q27 14 27 76q1 20 6.5 88.5t7 116.5t0 111.5t-13.5 113.5t-35 82q-11 15 -25 27.5t-27 21.5 t-33.5 17t-33.5 13t-38 9.5t-36 6.5t-39 4.5t-36.5 3t-37.5 2t-34 1.5q-157 8 -246 -8q-90 -18 -141 -57q-37 -26 -69.5 -66.5t-51.5 -81.5q-34 -73 -45.5 -131t-9.5 -143v-54.5v-52t1 -44t3 -49t6 -46.5t10 -55q34 -161 144 -229q30 -19 67.5 -32t64 -19t79 -8t70 -2 t81.5 3.5t72 3.5h45.5t43 -9t34.5 -28q22 -33 34.5 -80.5t8.5 -86.5q-2 -16 -9.5 -27.5t-23 -18.5t-26.5 -11.5t-34 -6.5t-31.5 -2.5t-32.5 0t-25 0.5q-28 0 -107.5 -1t-135 2t-106.5 13q-184 34 -280 125q-177 168 -209 439q-12 84 -13.5 183.5zM725 776q-2 -51 14 -92 q11 -36 25.5 -52.5t38.5 -17.5q25 0 50 10t36 29q7 13 8.5 30t0 38t-0.5 31q0 14 3.5 45t-1.5 43q-4 23 -18 33.5t-39 17.5q-29 10 -49.5 5t-40.5 -34q-25 -35 -27 -86z" />
<glyph unicode="A" horiz-adv-x="1329" d="M31 55q0 22 5.5 50.5t17 64.5t20 61t23 64.5t18.5 50.5q37 108 88 318t61 247q69 253 117 447q1 3 3 14t3 15t3.5 13.5t4.5 14.5t5.5 13t7 13.5t8 11.5t10.5 11q31 27 100 27q44 0 132.5 -1t132.5 -1q21 0 39 -8t32.5 -25t25 -32t21 -42t16 -41t14.5 -43t11 -36 q6 -20 20.5 -60.5t20.5 -60.5q130 -423 146 -479q6 -20 25.5 -74.5t27.5 -85.5q5 -20 17.5 -57t17.5 -56q26 -105 41 -145q39 -103 39 -166v-8q-4 -70 -115 -70q-38 0 -113.5 -2t-113.5 -2q-55 0 -82 29q-36 38 -58 146t-43 144q-16 27 -40 35t-62 8q-16 0 -46 -3t-46 -3 q-1 0 -25 -8q-7 -3 -13 -8.5t-10 -11t-8 -15.5t-6 -16t-5 -19t-4 -17.5t-3 -17.5t-2 -14q-12 -72 -35 -133q-3 -7 -8.5 -31t-13.5 -37.5t-25 -19.5q-38 -14 -92 -14q-20 0 -66 4q-49 4 -149 4q-35 0 -62.5 13.5t-27.5 43.5zM563 793q0 -24 8 -39.5t25.5 -22t33 -8.5t40.5 -2 q45 0 64.5 14t19.5 56q0 49 -30 126.5t-69 77.5q-36 0 -64 -78t-28 -124z" />
<glyph unicode="B" horiz-adv-x="1243" d="M94 1112q0 115 4 166q0 5 2 56.5t9 74.5q7 22 19 38t23.5 24.5t32 14t34.5 7t39 3.5q9 1 13 1q40 4 90 4t111.5 -2t91.5 -2q28 -1 78 3q35 2 64 3q12 -1 23 -1q37 -2 77 -11q136 -33 211 -127q45 -54 67 -127q24 -74 23 -140q0 -52 -14 -98q-12 -36 -28 -67t-27.5 -48 t-41.5 -57q-10 -13 -13.5 -22.5t2 -17t10 -11.5t18.5 -12t20 -12q53 -37 90 -97q70 -110 70 -233q0 -37 -6 -74q-20 -145 -127 -227q-88 -69 -193 -96.5t-241 -30.5h-258q-203 0 -246 63q-7 12 -11 32t-5 34.5t-2 41t-1 32.5q-4 40 -5.5 89.5t-1.5 83t0.5 93.5t0.5 84 q0 381 -2 565zM467 1079.5q2 -39.5 2 -43.5q-3 -24 9 -51t32 -37q16 -10 38 -10q19 0 42 8q39 15 70.5 42t41.5 61q4 16 4 32q0 23 -9 49q-16 42 -54 54q-26 8 -54 8q-14 0 -28 -2q-48 0 -67 -12q-18 -11 -23.5 -35t-3.5 -63.5zM483 371q7 -41 41 -55q21 -8 47 -8q15 0 31 3 q51 9 86 37q44 33 60 88q7 23 7 46q0 31 -12 61q-10 30 -35.5 53.5t-56.5 32.5q-18 6 -43.5 8t-52 -1t-47 -16t-25.5 -34q-10 -46 -10 -99.5t10 -115.5z" />
<glyph unicode="C" horiz-adv-x="1196" d="M102 1061q35 164 144 275t268 151q82 21 164 22q5 0 10 1l154 -23q82 -24 137 -76q18 -17 39 -41.5t42 -59.5t33 -68q9 -25 9 -50q0 -8 -1 -16q-4 -34 -30 -56q-16 -15 -45 -33.5t-41 -27.5q-29 -24 -68.5 -44.5t-70.5 -21.5q-23 -1 -41 12t-29.5 28.5t-37 29t-62.5 14.5 q-38 0 -60 -10q-50 -24 -79 -78q-27 -48 -39 -139q-6 -37 -7 -82q-1 -40 5 -86q10 -99 45 -160q29 -52 81 -72q26 -10 52 -11q25 0 50 10q50 19 77 71q6 11 21 16.5t23 6t29 0.5q35 -1 75 -9t82 -24q41 -15 67 -45q22 -26 23 -58q0 -5 -1 -10q-14 -132 -108 -250 q-74 -94 -185 -129q-69 -22 -145 -22q-45 0 -92 8q-112 16 -203 66q-72 39 -130.5 103t-94.5 140q-89 176 -89 432q0 145 29 316z" />
<glyph unicode="D" horiz-adv-x="1241" d="M109 1360q0 43 8 76q23 77 184 77q35 0 105.5 -4t105.5 -4h39q113 0 214 -26t187 -78t140 -141.5t61 -206.5q8 -128 8 -289q0 -110 -1.5 -171t-12 -154t-31.5 -167q-18 -64 -56.5 -112t-85.5 -76.5t-109 -46.5t-117.5 -24.5t-122.5 -8.5q-26 -1 -107.5 -4.5t-126.5 -3.5 q-46 0 -69 2q-23 0 -46.5 0.5t-46 1t-41.5 6.5t-33.5 16.5t-23 31.5t-8.5 52q0 77 0.5 279t0.5 308.5t-2.5 270t-8.5 298.5q-4 66 -4 98zM504 905q0 -99 4 -291q4 -94 4 -139q0 -9 -1 -26.5t-1 -26.5q0 -33 11.5 -47.5t43.5 -14.5q102 0 144 80q1 1 2 4.5t2 4.5 q20 48 20 141q0 27 1 84t1 86q0 136 -18 239q-25 140 -142 140q-46 0 -58.5 -13.5t-12.5 -60.5v-160z" />
<glyph unicode="E" horiz-adv-x="1173" d="M119 123q-7 105 -7 255q0 156 8 360q11 299 10 472q0 59 -1 103v16q1 79 27 121q30 46 88 52q22 2 48 2q43 0 97 -7q35 -4 71 -5h41h51q58 1 71 1h7q32 -1 111 7q76 7 140 7q11 1 22 1q73 -2 113 -23q30 -15 45 -49q14 -31 14 -63q0 -1 -2 -75q0 -11 1 -42.5t-0.5 -50.5 t-7 -43.5t-20 -40.5t-38.5 -23q-20 -6 -43.5 -7.5t-59 0t-45.5 1.5q-30 0 -84 2t-97.5 2t-82.5 -4q-53 -6 -53 -58q0 -12 0.5 -30t1 -35t6 -33t16.5 -25q15 -13 38.5 -17.5t65 -4.5h42.5h17q16 1 48 1h26q30 0 40 -3q36 -3 48.5 -26.5t12.5 -65.5q0 -16 3 -49t4.5 -58 t-2.5 -52.5t-20 -45t-46 -23.5q-10 -4 -37 -4q-22 1 -54 3q-62 6 -85 5h-6t-27 1t-34.5 0t-28 -5t-26.5 -13.5t-11 -25.5q-3 -26 -5 -60v-6q0 -30 12 -59q13 -32 38 -38q90 -17 188 -17h29q10 0 39 1t44.5 0t39 -2.5t43 -6t36.5 -12.5q43 -20 59 -53t19 -91q0 -8 1.5 -33.5 t1.5 -35t-2.5 -30t-8 -32t-17 -25t-28.5 -22.5q-30 -20 -78 -22q-14 -1 -27 0q-31 0 -55 4q-88 5 -395 10q-39 2 -78 2l-78 -2q-27 -1 -49 -1q-43 0 -63 5q-77 20 -82 121z" />
<glyph unicode="F" horiz-adv-x="1050" d="M92 1264q3 63 9.5 103.5t24 70.5t40.5 44q22 16 65 22q35 5 74 5q9 -1 17 -1q48 -2 127 -9q49 -5 106 -6q34 -1 62 -1h35q40 1 107 2.5t103 2.5q20 4 45 4q11 -1 23 -1q40 -2 59 -23q23 -21 23 -74v-146q2 -20 0.5 -47t-5.5 -51.5t-19 -43.5t-40 -23q-38 -6 -90 -6 t-119 6q-60 6 -102 6q-49 0 -75 -8q-27 -9 -36 -25q-6 -11 -6 -31.5t3 -45.5t3 -34q0 -30 11 -40.5t47 -16.5q23 -5 81 -5h31q50 1 81 1h32q87 -5 92 -152q-1 -29 1 -64q0 -4 1 -9q1 -30 -9 -62q-10 -36 -34 -51q-16 -8 -33 -8q-5 -1 -83 7q-45 4 -82 5q-26 -1 -50 -3 q-54 -6 -71 -30q-9 -14 -11 -37.5t0 -60t2 -41.5q0 -186 -4 -297q-2 -102 -162 -102h-12q-13 0 -48 -1t-59.5 0t-54 5.5t-50 18t-29.5 36.5q-9 22 -9 113q3 147 3 264q0 175 -7 283q-12 186 -12 357q0 103 4 200z" />
<glyph unicode="G" horiz-adv-x="1251" d="M102 426q-29 175 -29 325q0 261 89 443q38 77 96.5 142.5t128.5 103.5q84 46 207 67q46 7 89 7q78 0 149 -22q110 -36 184 -130q38 -49 70 -115q32 -68 32 -119q0 -37 -32 -59q-34 -23 -82 -37q-77 -22 -128 -22q-56 0 -83 26q-9 9 -19.5 21.5t-16.5 20.5t-16 17.5 t-18.5 12.5t-23 6t-29.5 -2q-29 -5 -65.5 -21.5t-55.5 -35.5q-85 -79 -85 -281q0 -65 9 -143q6 -56 16.5 -96.5t32 -80t60.5 -58.5q37 -19 89 -19h5q92 0 123 55q13 20 13 37q0 16 -12 30q-22 25 -56 25h-7q-29 -6 -62 -0.5t-42 37.5q-4 16 -4 51q0 31 4 101q0 69 51 84 q33 11 69 13q14 1 30 1q24 0 52 -2q35 -2 55 -2h13q20 0 61.5 3t64 3.5t61.5 -4.5q24 -6 41 -22t25.5 -42t12.5 -51.5t3.5 -61t-2.5 -59t-5 -56t-4 -42.5q-9 -131 -48 -222t-130 -177q-55 -52 -137 -76q-75 -22 -150 -22h-13q-82 2 -165 24q-160 41 -270 150.5t-146 273.5z " />
<glyph unicode="H" horiz-adv-x="1363" d="M117 132v20q1 34 5 82q6 62 7 79v686q-1 33 -11 161q-6 69 -5 121q0 44 4 75q6 37 14 63.5t22 43t26 26t36 14t40.5 6t52 3.5t59.5 4q17 2 32 2q76 0 119 -37q30 -27 34 -71q2 -17 1 -33q0 -26 -4 -50q-1 -14 -1 -41q0 -46 3 -129q0 -12 -0.5 -38t-0.5 -42.5t4 -38 t12.5 -33t26 -19t42.5 -5.5q13 1 43 -0.5t49.5 -1t40.5 10t29 30.5q6 15 9.5 34.5t5 35.5t1 40.5t-1 37t-2.5 39.5t-2 34q-2 38 -8 113q-1 12 -1 24q0 67 36 93q42 31 129 34q8 0 43.5 2.5t50.5 3t45.5 -1.5t48 -8.5t37.5 -19.5t33 -33q19 -30 23 -58q1 -10 1 -24 q0 -22 -4 -50q-6 -46 -6 -63q-4 -64 -3.5 -144.5t3.5 -178.5q2 -56 7 -195.5t7 -216.5t2 -192t-6 -209q0 -6 -1 -18.5t-1 -18.5q-4 -41 -24.5 -61t-51.5 -22.5t-69 -3t-76 -1.5q-7 -1 -18 -1q-32 0 -93 7q-32 3 -53.5 45t-28 99.5t-8.5 119.5q-1 16 -1 30q0 43 5 73 q1 20 1 37q0 80 -19 110q-5 8 -11 12.5t-15 6t-14.5 2t-18 0t-17.5 -0.5q-8 0 -41 2t-58.5 1.5t-39.5 -5.5q-10 -5 -17.5 -14t-11.5 -24.5t-6 -27t-2.5 -32t0 -29.5t1.5 -29.5t1 -21.5q1 -9 5 -93q2 -38 2 -69q0 -38 -4 -68q-6 -52 -25 -87q-19 -33 -51 -41q-18 -5 -45 -4 q-19 0 -41 2q-54 6 -70 6q-13 -1 -34.5 -3t-39.5 -3t-35 0q-63 0 -86 63q-14 37 -16 77z" />
<glyph unicode="I" horiz-adv-x="659" d="M99 208q1 32 8 100q1 17 2 24q7 109 7 179v17q-1 73 -6 198q-4 104 -4 172v26q1 49 1 118q0 138 -3 355q0 35 11.5 60t35 38t48 20t62 7t63 -2t65 -6t55.5 -5q42 0 69 -18t37 -43q12 -26 14 -64q1 -16 1 -32q-1 -21 -3 -40q-4 -33 -7.5 -75.5t-3.5 -65.5q0 -83 -2.5 -255 t-2.5 -274q0 -17 -1 -35q1 -91 3 -211q2 -146 9 -269q2 -36 -8 -62.5t-32.5 -40.5t-47.5 -22t-61 -10q-22 -1 -41 0h-24q-29 1 -67.5 2.5t-60.5 1.5q-50 0 -78 28q-27 28 -33 90q-5 52 -5 83v11z" />
<glyph unicode="J" horiz-adv-x="1103" d="M14 399v9q0 53 34 75q36 24 104 27q36 2 60 3t61 -1t60.5 -8.5t44 -21.5t25.5 -38q9 -40 50 -51q12 -3 24 -3q32 0 58 26q29 32 29 88q0 12 -1 26q-5 45 -8 99t-4 90q-1 24 -1 63v43q1 70 1 91t2 105.5t2 92.5v10q0 25 -4 64q-5 47 -10 87q-4 33 -4 70v15q1 45 10 76.5 t36.5 52t71.5 20.5q17 0 101 -3q39 -1 63 -1q30 0 39 2q15 1 28 1q62 0 86 -20q25 -22 25 -91v-15q-3 -65 -3 -177q0 -149 5 -380q1 -45 9 -151t10 -172q1 -13 1 -26q0 -57 -9 -128q-10 -87 -39 -149q-33 -72 -99 -121.5t-137 -71t-155 -29.5q-26 -2 -53 -2q-103 0 -213 33 q-139 43 -208 133q-47 62 -68 122t-24 136z" />
<glyph unicode="K" horiz-adv-x="1343" d="M115 1372q-2 24 -2.5 41t2.5 27q6 31 31.5 48t56.5 15q23 1 91 -1q41 -1 71 -1h36q27 0 44.5 -2t38.5 -9t32 -24t12 -43v-198q0 -31 3.5 -91.5t3.5 -89.5q0 -6 -2 -36.5t-0.5 -51.5t8.5 -34q13 -26 40 -26q37 0 101 52q78 64 109 176q12 49 28 148q2 18 0 61.5t0 63.5 q0 2 0.5 9t0.5 10t1 9.5t1.5 10t2 10t3 10t4 8t5.5 8t6.5 6.5t8.5 5q44 21 103 21q21 0 44 -3q11 -2 33 -1q22 0 56 1q14 1 27 1q45 0 63 -9q11 -3 19.5 -11t14.5 -20.5t10.5 -24t7 -30t4.5 -31t2.5 -32.5t0.5 -29v-27v-20q0 -114 -41.5 -241t-108.5 -224q-6 -9 -19 -21.5 t-19.5 -20t-11 -21.5t6.5 -27q9 -17 25 -37q6 -7 49.5 -53t59.5 -76q61 -111 61 -250q1 -49 3 -104q2 -39 1 -80v-33q-1 -38 -16 -60t-44.5 -29t-53.5 -7t-64 4h-69.5t-90.5 10q-30 12 -45 45q-15 32 -15 65l1 68v5q0 93 -66 216q-2 4 -9.5 16.5t-11 18t-10.5 16t-12 17 t-12 14.5t-14 15q-16 17 -33 19t-37 -5q-3 -1 -22 -6.5t-29 -9t-22.5 -11t-16.5 -16.5q-3 -5 -3.5 -12t0 -11t2 -13t1.5 -11q1 -13 1 -31q0 -31 -4 -77q-7 -70 -7 -85q0 -21 5 -63q4 -35 4 -64v-11q-1 -33 -13 -62q-7 -17 -17.5 -26.5t-25.5 -12t-27 -2t-31.5 3t-29.5 2.5 h-8q-21 0 -67 -4q-39 -3 -71 -3q-14 0 -28 1q-43 2 -68 18q-21 13 -30.5 41t-10 47t2.5 61t3 46v28q-1 53 -3 135q-4 106 -3 150q0 82 3 244q3 139 3 253q-1 19 -1 37q0 128 -7 242q-1 15 -3 43t-3 43z" />
<glyph unicode="L" horiz-adv-x="1005" d="M106 111q0 72 2 248q1 117 1 203v77q-3 228 -3 417.5t3 340.5q0 41 21 71q19 28 52 27h6q26 1 72 3t83 3q18 0 35.5 0.5t33.5 -0.5q40 -2 71 -23.5t43 -58.5q5 -16 7.5 -34t2.5 -41t-0.5 -35.5t-3 -41t-2.5 -34.5q-1 -23 -1 -65q1 -32 1 -74q1 -60 0 -98v-40 q0 -51 -5 -152t-5 -151q0 -19 -0.5 -54t-0.5 -63.5t1 -52.5q0 -1 -0.5 -19.5t0 -25.5t2.5 -21.5t7.5 -23.5t13.5 -16q10 -9 25.5 -11.5t41.5 0t29 1.5q10 0 66.5 3.5t87.5 3.5t73 -8t64 -26q28 -19 37 -55q5 -8 5 -38q0 -17 -2 -40q-4 -53 -3 -72v-6q0 -8 2.5 -32t1 -41 t-9.5 -29q-19 -25 -57 -34.5t-102 -10.5t-69 -2q-57 -3 -82 -3q-4 1 -8 1q-24 0 -90 4.5t-90 5.5q-42 4 -77 4q-25 0 -46 -2q-32 -3 -61 -3q-64 0 -113 15q-38 12 -49 37t-11 72z" />
<glyph unicode="M" horiz-adv-x="1619" d="M111 72q0 25 5.5 71.5t6.5 65.5q2 35 2 104q0 25 -1 73t-1 73v254q0 70 -4 210.5t-4 211.5v178q0 92 18 143q20 53 90 53q15 0 44 -2t44 -2q19 0 58.5 5.5t60.5 5.5q33 0 80 -7q39 -5 60.5 -27.5t41.5 -66.5q44 -96 72 -188q35 -107 92 -207q18 -31 39 -31q20 0 35 16 t22 37q39 115 58 152q9 18 39.5 94t59 137t44.5 74q43 33 135 33q34 0 97 -6.5t90 -7.5q23 -1 40.5 -9t29 -18.5t19.5 -29.5t12 -34t6 -39t2.5 -38t0.5 -37q0 -101 -5 -300t-5 -300v-400q0 -69 2 -104q1 -19 5.5 -67.5t4.5 -73.5q0 -82 -82 -82q-23 0 -70 4t-71 4 q-20 0 -60 -3t-61 -3q-51 0 -76.5 19t-25.5 69q0 34 4 100t4 100v136q0 26 3 78t3 77q0 62 -22 62q-30 0 -52 -84q-7 -27 -26 -72q-3 -8 -12.5 -32.5t-16 -37.5t-20.5 -25.5t-33 -12.5h-109q-31 0 -48 2.5t-35.5 15.5t-30.5 39q-1 2 -22.5 64.5t-42.5 102.5t-38 40 q-22 0 -22 -86q0 -21 3 -65t3 -66v-172q0 -27 4 -80t4 -78q0 -53 -24.5 -73.5t-79.5 -20.5q-20 0 -59.5 3t-59.5 3q-24 0 -71 -4t-70 -4q-84 0 -84 86z" />
<glyph unicode="N" horiz-adv-x="1390" d="M113 1116v180q0 23 0.5 37t2.5 38t6 39t12 34t19.5 29.5t29 18.5t40.5 9q34 1 100.5 4t100.5 4q8 0 24 1t23 1q23 0 33 -6q8 -5 16 -11.5t15.5 -17t12 -16.5t12 -21.5t9.5 -19t9 -21.5l8 -18q86 -194 139 -303q3 -7 16 -31.5t19 -39.5q2 -4 7.5 -23t11 -34t13.5 -32.5 t17.5 -27.5t19.5 -10q6 0 10 2.5t6.5 8t4 10t2 13t0.5 13v13v9.5q0 13 -1 41t-1 43q0 158 -4 236q-1 14 -4.5 59t-3.5 70q0 100 63 114q53 13 158 13q51 0 79.5 -2.5t57.5 -11.5t43 -28t22.5 -51t8.5 -81q0 -27 -1 -79t-1 -77q0 -46 1 -139.5t1 -139.5q0 -69 -1 -206 t-1 -205q0 -58 3 -172t3 -172q0 -91 -31.5 -134.5t-118.5 -43.5q-20 0 -58 1t-58 1q-12 0 -38 -2t-38 -2q-71 0 -96 47q-21 39 -60 137q-21 53 -65 151q-9 19 -35 70t-37 80q-5 13 -13.5 40t-17 48.5t-20.5 36.5q-14 14 -23 14q-22 0 -22 -61q0 -25 3 -78t3 -78v-156 q1 -18 4.5 -73.5t3.5 -85.5q0 -56 -25 -73t-83 -17q-13 0 -40 2t-40 2q-23 0 -72 -2t-72 -2q-32 0 -53 6t-32 13.5t-16 29t-6 36.5t-1 52q0 29 3 90t3 90q0 22 -1 67t-1 68v258q0 72 -4 213t-4 211z" />
<glyph unicode="O" horiz-adv-x="1294" d="M90 928q-1 18 -1 36q0 109 21 221q24 130 89 193q73 71 188 108q101 33 196 33q13 0 25 -1q79 -2 150 -14.5t145 -38t133 -74t92 -115.5q27 -55 43 -118.5t21 -138.5t6 -129v-33q0 -45 -2 -109q-2 -88 -2 -125q0 -94 -3.5 -155t-23 -142t-55.5 -142q-64 -103 -196 -160 q-120 -52 -235 -52q-12 0 -24 1q-170 11 -286 54t-183 131q-90 123 -90 329q0 261 -8 441zM500 524v-9q0 -63 28 -109q30 -50 75 -60q11 -2 22 -3q35 0 75 24q61 42 70 106q6 35 9 76.5t4.5 95t2.5 72.5q1 30 1 60q0 121 -19 255q-8 60 -66 99q-36 25 -74 25q-22 0 -44 -9 q-40 -17 -62 -51t-22 -76q2 -124 2 -248t-2 -248z" />
<glyph unicode="P" horiz-adv-x="1187" d="M94.5 92q0.5 15 3 41t2.5 35q20 332 20 659q0 218 -9 435q0 11 -2 42t-2 47t1.5 41t6.5 44q8 32 46 50.5t81 24.5q29 1 43 0.5t42 -3t42 -3.5q63 -2 188 -2q18 -1 59 1q23 1 40 2q14 0 24 -1q115 -12 222.5 -72t180.5 -162t78 -218q2 -37 1 -70q0 -95 -14 -165 q-20 -94 -91 -187q-32 -43 -76 -78q-64 -52 -133 -78q-58 -23 -103 -28q-32 -4 -82 -4q-20 0 -42 1q-30 1 -50.5 -14t-29.5 -42t-12.5 -53.5t-2.5 -58.5q0 -31 2 -97t2 -99q0 -36 -14.5 -63.5t-46.5 -30.5q-16 -1 -33 0t-38 3t-33 3q-77 0 -93 -2q-30 -4 -55 -4 q-79 0 -106 37q-9 14 -13 34t-3.5 35zM503 958q0 -34 2.5 -55t7.5 -44.5t14.5 -36.5t23.5 -15q13 -2 26 -2q37 -1 73 17q48 24 65 69q17 43 21 97q1 11 0 21q0 43 -14 81q-18 48 -60 57q-45 11 -75 12t-46 -4.5t-23.5 -19.5t-9.5 -28t-2 -37v-13q-1 -31 -2 -48t-1 -51z" />
<glyph unicode="Q" horiz-adv-x="1318" d="M92 928q-1 18 -1 36q0 110 21 221q24 130 89 193q72 69 184.5 104.5t222.5 35.5q178 0 318 -56t204 -186q27 -55 43 -117.5t21.5 -141.5t6.5 -127v-27q0 -45 -2 -117q-3 -97 -3 -125q0 -48 -2 -90t-4 -67.5t-3.5 -47t-3 -32.5t-1.5 -19t2 -11.5t6 -5.5q51 -22 65 -33 q1 -1 11 -7t12 -7.5l10 -7.5t9.5 -9t6 -9t5 -11t0.5 -11.5t-2 -14.5q-8 -26 -18.5 -45.5t-32.5 -50.5t-29 -42q-8 -12 -42 -52.5t-44 -49.5q-15 -14 -42 1.5t-50.5 37t-28.5 20.5q-6 -1 -33 -17.5t-59 -25.5q-87 -25 -202 -26q-12 -1 -25 -1q-99 0 -177 11q-120 12 -211 52 t-151 126q-29 40 -44 112.5t-16.5 117t-1.5 120.5q0 222 -8 402zM502 529q0 -37 11 -77.5t34 -66.5q29 -34 81 -40q10 -1 19 -1q40 0 70 21q52 36 65 106q7 19 7 91v34q-1 68 -1 99v22q0 17 3 95q3 66 3 92v7q-1 22 -3 93q-4 54 -25 97.5t-64 57.5q-28 9 -54 9 q-53 0 -95 -38q-28 -24 -37.5 -55.5t-9.5 -77.5q0 -19 -1 -56.5t-1 -57.5q0 -195 -2 -279v-75z" />
<glyph unicode="R" horiz-adv-x="1316" d="M107 73q0 12 1 26t1 22q1 13 4 41t4 43q6 113 6 239t-3 280.5t-3 240.5q1 31 5 129q3 59 2 101q0 28 -1 50q-1 11 -3.5 39.5t-3 43t1.5 37t9 40.5t20 35q22 29 67 46.5t112.5 22.5t114.5 6h22q42 0 102 -3q77 -4 88 -3q185 0 342 -67q125 -59 185 -202q51 -121 51 -247 q0 -23 -2 -47q-13 -165 -101 -280q-23 -30 -49 -50q-4 -3 -16.5 -12t-19.5 -17t-11 -18q-8 -22 15 -45q100 -110 157 -297q10 -33 16 -81q3 -22 3 -45q0 -27 -4 -53q-7 -50 -35 -58q-15 -8 -59 -8q-15 0 -35 1q-42 2 -67 2q-19 0 -28 -1q-17 -3 -41 -3q-19 0 -41 2 q-51 4 -79 17q-11 4 -18 13t-10.5 23.5t-4.5 22.5t-2 25q-3 58 -19 117q-32 113 -104 172q-18 15 -70 15h-13q-63 -2 -71 -26q-7 -14 -4.5 -55t0.5 -55q-1 -15 -1 -35q0 -40 5 -100q0 -6 4.5 -32.5t4 -45.5t-8.5 -31q-9 -14 -26.5 -19.5t-31.5 -5t-38 3.5t-31 3q-22 1 -51 1 q-58 0 -145 -3q-33 0 -58.5 17t-31.5 46q-2 10 -2 22zM523 1002q2 -33 1 -44q-3 -26 -3 -49q0 -35 7 -59q16 -56 54 -68q24 -8 47 -8q29 0 55 14q46 24 64 70q14 34 14 72q0 24 -6 51q-14 68 -60 102q-23 17 -75 23q-14 2 -27 2q-32 0 -49 -12q-16 -13 -20 -37t-2 -57z" />
<glyph unicode="S" horiz-adv-x="1218" d="M41 328q8 47 51 83.5t94.5 54.5t108.5 26q14 2 26.5 2t21 -1t17.5 -6t14.5 -9t13 -12.5t12 -14.5l13.5 -18t15 -19q26 -32 62 -52q33 -18 69 -17h8q41 2 70 32q24 24 24 54q0 6 -1 13q-6 38 -27 70t-51 57q-44 36 -117.5 83t-125 83t-103.5 86q-53 49 -80 115 q-25 61 -25 136v11q8 182 94 281q71 80 199 122t252 44h6q84 0 172 -28q92 -30 170.5 -92.5t108.5 -145.5q11 -32 11 -57q0 -37 -23 -61q-39 -41 -124 -63q-11 -3 -33 -11t-36.5 -13t-36.5 -8.5t-33 2.5q-20 7 -42.5 23.5t-40 30t-37.5 24t-43.5 8t-49.5 -20.5t-32 -39.5 t6.5 -43t31.5 -42t49 -41t53.5 -35.5t50 -30.5t34.5 -20.5q63 -43 109.5 -80.5t90.5 -83.5t70 -93.5t42 -102.5q13 -45 12 -96v-23q-4 -64 -27 -135q-21 -66 -65 -122.5t-103 -88.5q-73 -40 -173 -64q-102 -25 -212 -25h-4q-108 0 -208 22q-102 22 -182.5 81.5t-115.5 149.5 q-2 6 -8 22.5t-9.5 27t-7.5 25t-5.5 26t-0.5 20.5z" />
<glyph unicode="T" horiz-adv-x="1263" d="M33 1266.5v60.5v19q1 111 33 144q29 29 113 29q19 0 40 -1q27 -1 108 -1t109 -1q85 -3 340 -3q126 0 195 5q68 4 109 4q27 0 42 -2q73 -8 97 -50q15 -29 15 -85q0 -13 -1 -27q-5 -51 -7.5 -104.5t-2.5 -78.5t-4.5 -52t-8.5 -36t-19 -18t-33 -10.5t-52 -1.5q-22 0 -68 2.5 t-71 2.5t-54.5 -7.5t-46.5 -24.5q-5 -5 -8.5 -10t-5.5 -13.5t-3.5 -14t-2.5 -18.5t-1 -20.5t-0.5 -26t-0.5 -28.5q-1 -44 -1 -126q1 -62 1 -145q1 -116 0 -191v-81q0 -19 1 -55.5t1 -59.5t-1 -57t-4.5 -56.5t-10 -49.5t-17.5 -43.5t-26.5 -31t-38 -20t-50.5 -3.5 q-34 4 -89 4q-36 0 -81 -2q-18 -1 -34 -0.5t-32 7t-28 21.5q-26 30 -32 80q-3 23 -2 51q0 33 4 75q6 76 6 89v416q-1 41 -1 79q0 63 3 118q1 16 1 30q0 73 -38 103q-17 11 -55 13q-18 1 -38 2q-26 0 -56 -2q-56 -3 -58 -3q-28 0 -49.5 4.5t-35.5 13t-24 21.5t-15 30t-7.5 38 t-3 45.5t-0.5 53z" />
<glyph unicode="U" horiz-adv-x="1343" d="M109 1217q0 161 2 194q0 48 8 66q9 20 34 27q19 5 51 5h20l46 -2q16 1 34 1t40.5 -0.5t34.5 -0.5q13 0 45 4t56.5 3t41.5 -11q16 -8 23 -29t7.5 -39.5t-1.5 -48t-2 -36.5q-1 -20 3 -150q1 -54 2 -89q0 -50 -3 -62q-11 -153 -11 -291q0 -69 3 -135q1 -24 3 -71t3 -71 q0 -73 53 -112q41 -29 81 -29q25 0 50 12q62 33 72 115q9 90 9 151v26q-2 67 -10 180q-7 100 -7 161v16q2 82 1.5 163.5t-1.5 162.5q0 8 -2.5 42.5t-2 56t9.5 45.5t29 32t43.5 12.5t52.5 5t47 0.5t52.5 -1.5t44.5 -1.5q91 -5 121 -13q12 -4 20.5 -10t12.5 -11t5 -16.5 t1 -16.5t-2 -21t-2 -21q-5 -76 -6 -216q0 -108 4 -254q5 -234 5 -371q0 -59 -1 -99q-6 -265 -128.5 -377t-375.5 -112q-329 0 -469 108q-35 26 -60.5 60t-40.5 70.5t-25 77.5t-12.5 82t-4.5 84q-1 22 -1 42.5t1 40.5q1 90 1 186q0 226 -5 486z" />
<glyph unicode="V" horiz-adv-x="1261" d="M25 1466q1 17 10 27.5t25.5 14t29.5 4t34 -1t28 -1.5q163 4 213 4h16q42 0 59 -8.5t45 -42.5q11 -17 18 -40t13.5 -54.5t9.5 -44.5q26 -100 52 -270q4 -23 14 -66.5t14 -66.5q20 -83 36 -101q16 -15 32 4q14 18 16 73t4 62q18 98 23 158q12 146 49 289q2 10 4.5 28 t5.5 32t8 26q4 8 12 13.5t16 8t22 4t21 2t23 0t19 -0.5h33q62 0 157 -5q28 -1 39.5 -2t33 -4.5t31 -10t20.5 -17.5t14.5 -28.5t1.5 -41.5q-4 -54 -33.5 -159.5t-34.5 -157.5q-10 -96 -29 -166q-18 -66 -32.5 -133t-35 -175.5t-26.5 -140.5q-7 -34 -30 -123t-31 -139 q-8 -47 -14.5 -73t-23 -71.5t-43.5 -69t-63 -24.5q-35 -1 -107 -3q-52 -2 -93 -1h-32q-53 1 -105 9q-45 6 -54 14q-14 12 -27 35t-20.5 41.5t-18.5 50t-14 39.5q-12 32 -22 66.5t-22.5 85.5t-16.5 65q-105 420 -117 463q-14 52 -36 148.5t-31 133.5q-32 122 -35 136 q-4 25 -30 95q-25 65 -25 105v6z" />
<glyph unicode="W" horiz-adv-x="1679" d="M31 1458q1 33 24 48.5t49.5 16t63.5 -1.5t49 -1q25 3 47 3.5t35 0t38.5 -1.5t45.5 -2q18 -1 33 -9.5t26 -27.5t19 -34t14.5 -44t9 -41t7 -41.5t4.5 -30.5q4 -24 9 -66.5t9 -67.5t11.5 -60.5t17.5 -67.5q7 -21 19.5 -74t15.5 -63q0 -1 2.5 -11t3.5 -13.5t4 -12.5t6 -13 t7.5 -9t10 -7t11.5 -2q10 1 18.5 7t14.5 18.5t9.5 20.5t8 25t4.5 19q22 102 51 119q14 8 47 8h23h45q44 2 59 2q51 0 64 -51q22 -85 26 -94q2 -7 5 -22t5.5 -23.5t9 -18.5t15.5 -16q16 -7 28.5 0t21.5 28t13.5 38.5t6.5 32.5q4 42 29.5 124t31.5 117q22 121 70 291 q6 22 16.5 36t21.5 21t36 9t44 1.5t62.5 -2.5t75.5 -2q90 0 123 -12q31 -10 31 -64q0 -32 -11 -81q-14 -54 -48 -185t-57.5 -225.5t-43.5 -185.5q-9 -42 -47.5 -212t-57.5 -263q-4 -18 -14.5 -88.5t-23 -113t-33.5 -67.5q-16 -17 -42 -25.5t-45 -9t-61 1t-57 1.5 q-35 0 -52 0.5t-35.5 6t-25.5 10.5t-17.5 23t-15.5 34.5t-16 52.5q-30 84 -43 143q-2 10 -3 17t-4.5 18t-6.5 18.5t-8.5 15t-12 11t-15.5 3.5t-20 -5q-10 -4 -16 -10.5t-10.5 -18.5t-5.5 -17t-5 -22q-3 -17 -12.5 -45t-11.5 -37q-2 -8 -9.5 -36t-12 -42.5t-14.5 -38 t-20.5 -37t-26.5 -25.5t-36 -15q-27 -5 -35 -5t-20.5 1.5t-34.5 1.5q-11 0 -34 -1.5t-37 -1.5t-33.5 3.5t-34.5 11.5q-31 15 -54 62t-33 91.5t-21.5 109.5t-16.5 85q-73 261 -86 322q-90 420 -119 536q-24 90 -31 131q-2 14 -12 57.5t-10 65.5z" />
<glyph unicode="X" horiz-adv-x="1501" d="M58 0.5q-10 14.5 5 52.5q6 15 15.5 30t23 33.5t19.5 28.5q7 11 47 76t59 101q36 67 107 184.5t94 157.5q4 7 18 25.5t21 33t6 29.5q-1 13 -7 25t-17.5 28.5t-14.5 21.5q-11 18 -34 52t-35 51q-42 64 -95 164q-25 49 -90.5 152.5t-91.5 156.5q-27 60 -27 84q0 6 2 10 q5 21 60 21q39 0 125 -4q69 -3 111 -3h20q12 0 48.5 2t53.5 1t42 -10.5t42 -28.5q18 -22 32.5 -49.5t30.5 -64t25 -54.5q6 -10 41 -85.5t54 -97.5q7 -8 15 -8q22 0 46 64q2 4 5 12l7 18q12 25 33 83.5t37 99t43 77.5t57 43q24 5 65.5 5t102.5 -5h176q7 0 30.5 4t38.5 1.5 t23 -15.5q6 -9 6 -23q0 -29 -24 -77q-26 -52 -91 -155t-91 -154q-57 -107 -94 -164q-13 -18 -37.5 -54t-36.5 -55q-4 -7 -16.5 -21t-19.5 -26.5t-5 -25.5q2 -12 11 -27t22.5 -32.5t17.5 -24.5q30 -55 99 -168t102 -174q4 -7 25 -40q121 -184 121 -244q1 -36 -34 -38h-2 q-31 -2 -110.5 -8.5t-122.5 -7.5q-6 0 -37 -1t-47 -0.5t-39.5 5.5t-38.5 14q-18 11 -71.5 109t-105.5 185q-47 80 -66 80q-2 0 -3 -1q-14 -5 -28 -23t-22 -33t-20.5 -42.5t-13.5 -30.5q-20 -42 -62.5 -113t-53.5 -90q-20 -35 -37 -47.5t-49 -11.5q-46 2 -129 2h-43 q-38 0 -70 -1q-64 0 -102 1q-41 0 -51 14.5z" />
<glyph unicode="Y" horiz-adv-x="1296" d="M20 1499q7 12 34 16q25 4 62 4q4 0 9 -1h47q62 8 118 8q73 0 136 -13q19 -4 33.5 -15t25.5 -34t14.5 -32.5t12.5 -38.5q65 -175 80 -236q1 -3 7 -26t11 -37.5t14 -34t20.5 -29.5t25.5 -10q15 1 25.5 13t13 18.5t6.5 21.5q27 105 71 287q2 8 7 32.5t10 42t13 38t20 33 t28 14.5q54 5 79 5q2 0 5 -1q24 0 92 -5t99 -6q88 -4 111 -14q32 -15 32 -51v-6q-5 -46 -23 -97.5t-44 -112t-37 -93.5q-6 -19 -14 -40.5t-18.5 -48t-15.5 -40.5q-40 -108 -90 -213q-18 -34 -86 -179q-34 -70 -37 -90q-1 -9 -1 -30q0 -29 2 -82q4 -181 10 -271q1 -22 1 -40 q0 -106 -38 -121q-10 -4 -25 -5t-36.5 0t-26.5 1q-38 -1 -73 -1q-58 0 -109 3h-8q-17 0 -60 -2q-14 -1 -26 -1q-32 0 -42 7q-22 8 -36.5 26t-21.5 35t-9.5 47t-1.5 46.5t3.5 49.5t2.5 41q2 27 2 58q0 51 -5 115q-8 104 -9 145q0 25 -33 101t-84 180t-62 128q-30 69 -94 191 t-92 203q-29 89 -29 126q0 14 4 21z" />
<glyph unicode="Z" horiz-adv-x="1263" d="M99 1183q-1 16 -1 30q0 19 2 34q3 40 3 84q0 27 -1 55v14q0 71 37 91q27 13 73 15q18 1 37 1q32 0 71 -2q63 -4 77 -4q117 -4 301 -4q47 0 128.5 3t127.5 3q12 0 38 1t40.5 1.5t36 -3t33 -11.5t21.5 -24.5t12 -41.5q2 -26 2 -56.5t-1 -67t-1 -56.5q0 -10 0.5 -30t0 -27.5 t-2 -22t-5 -23t-10 -20.5t-16.5 -24q-17 -20 -35 -43t-31 -40.5t-32.5 -46.5t-28.5 -42t-30.5 -47t-27 -43t-30 -48.5t-27.5 -44.5q-20 -34 -73.5 -114t-79.5 -129q-4 -7 -16 -24.5t-21 -32.5t-15 -31t1.5 -25t29.5 -10h260h113q70 0 86 -29l6 -18q4 -20 4 -31 q2 -39 10 -117q2 -19 2 -116q0 -15 -0.5 -22.5t-2.5 -20.5t-8.5 -21t-16.5 -12q-7 -4 -17.5 -4.5t-24.5 1t-18 1.5q-146 -10 -330 -10q-86 0 -180 2q-355 11 -368 12q-17 1 -28 0.5t-19 1.5t-13.5 10t-11.5 27q-4 14 -4 30.5t2 37t2 30.5q0 11 -5 51q-5 36 -5 64q1 3 1 5 q0 29 9 50q9 22 37 54.5t35 43.5q30 45 82.5 142t89.5 149q107 156 172 313q3 7 12 23.5t14.5 27.5t5.5 25t-10 23q-9 8 -21 9.5t-33 -2t-24 -3.5q-26 -3 -66 -3q-37 1 -87 3q-54 3 -92 2q-36 0 -60 -2q-20 -3 -34.5 0t-28.5 20q-19 21 -22 59z" />
<glyph unicode="[" horiz-adv-x="765" d="M109.5 1489q-3.5 48 3 77.5t30.5 41.5q20 10 51 11.5t54 -1.5q38 -4 148.5 -1.5t150.5 1.5q2 0 25.5 1t37 0.5t30 -5.5t22.5 -15q4 -7 4.5 -17.5t-1 -24.5t-1.5 -19v-84q0 -6 1 -22.5t1 -27.5t-2 -25t-9.5 -23t-19.5 -13q-13 -4 -64 -4q-6 0 -33.5 2t-44 2t-34 -8 t-21.5 -24t-4 -35t2 -43t2 -35v-90q-2 -57 -2 -219v-101q1 -97 -4 -161t-6 -87t8 -161q2 -23 2 -137v-76q0 -5 -2 -21.5t-1.5 -29.5t5.5 -19q7 -8 28 -9t48.5 2t32.5 3t35.5 1.5t51.5 -2.5t28 -17q4 -7 4.5 -18.5t-1 -26t-1.5 -19.5v-84q0 -4 2.5 -29t-0.5 -40.5t-13 -26.5 q-12 -15 -32.5 -19t-55 -0.5t-39.5 3.5q-66 -4 -100 -2q-36 1 -127 -2.5t-125 0.5q-19 1 -31.5 7.5t-18.5 13.5t-8.5 21t-2 23t2 28.5t1.5 28.5q2 20 2 62q0 85 -1.5 378t1.5 378q0 34 0.5 99.5t0.5 119.5t-1 100q0 45 -4 171t-2 194q0 7 -3.5 55z" />
<glyph unicode="\" horiz-adv-x="702" d="M-16.5 1457q0.5 6 2.5 14t6 14q9 15 51 20q64 3 129 0q12 -1 43 -0.5t43 -1.5q11 -2 19.5 -10t12 -14.5t9.5 -22.5t8 -20q23 -49 35 -107q15 -56 16 -63q20 -71 46.5 -156t44 -138t53 -159t47.5 -143q44 -129 100 -334q10 -36 36 -123t38 -133q8 -28 -6 -45 q-6 -8 -14.5 -14t-15 -9t-18.5 -4.5t-17.5 -1.5h-20h-17.5h-63h-47q-4 0 -12 -0.5t-13.5 -0.5t-12 1t-11.5 4q-19 7 -29 37q-16 37 -23 59q-20 67 -24 82q-2 6 -8 23t-9 25q-6 24 -18 45q-3 7 -7 24t-7 25q-24 86 -47 147q-31 90 -84.5 252t-67.5 203q-33 106 -47 160 q-12 43 -44 145t-46 158q0 2 -3 14t-4 16.5t-2.5 15t-1 16.5z" />
<glyph unicode="]" horiz-adv-x="765" d="M96.5 -103.5q0.5 22.5 3 55.5t2.5 40t-2 26.5t-1.5 34.5t5.5 25q6 10 22.5 14.5t31 4.5t35.5 -1.5t26 -1.5q8 0 22.5 -1t26.5 -1t25 1t22 7.5t13 18.5q4 11 4.5 26.5t-1 35.5t-1.5 28q0 59 2 178t2 176q1 172 0.5 209t-2 132.5t-2.5 207.5q0 16 -1 64.5t-1 62.5 q0 7 1 23.5t0.5 24.5t-3 19t-10 17.5t-19.5 9.5q-15 4 -32 4.5t-38.5 -1t-31.5 -1.5q-51 0 -64 4q-12 4 -19.5 13t-9.5 23t-2 25t1 27.5t1 22.5v84q0 4 -1.5 18t-1 25t4.5 18q6 10 23 15t30 5.5t36.5 -0.5t25.5 -1h211q20 -1 61 3.5t73 2.5t59 -16q25 -12 31.5 -41.5 t2.5 -77.5t-4 -55q2 -59 -1 -170.5t-3 -147.5q-1 -53 -2 -184t-2 -185q-1 -82 0.5 -132.5t1 -87t-5.5 -132.5q-6 -129 6 -395q1 -19 2 -57.5t2 -57.5q1 -36 -14.5 -52.5t-41 -15.5t-56.5 1q-19 0 -51 1t-50 1q-41 0 -121.5 1t-121.5 1q-51 0 -64 4q-18 6 -26.5 29t-8 45.5z " />
<glyph unicode="^" horiz-adv-x="923" d="M57 1206q-2 30 14.5 60.5t53.5 54.5q24 13 111.5 74.5t103.5 70.5q46 37 98 50q19 5 43 2q27 -4 50 -12.5t36 -17t34.5 -24t33.5 -22.5q19 -13 68 -41.5t79 -47.5t58 -47.5t30 -52.5q1 -24 -0.5 -57.5t-1.5 -48.5q0 -101 -43 -107q-18 -3 -41 5t-38.5 17.5t-37 25 t-26.5 18.5q-18 15 -60.5 46.5t-54.5 37.5t-32.5 17t-29.5 14.5t-25 6.5t-33 -2t-39 -16q-36 -16 -94.5 -59.5t-69.5 -50.5q-6 -4 -24 -16.5t-32 -21.5t-36 -19.5t-36.5 -10t-33.5 7.5q-14 9 -18.5 25t-3.5 43t1 31q-2 37 -4 67z" />
<glyph unicode="_" horiz-adv-x="1079" d="M113 72v96q-5 37 2 49t22.5 17.5t29.5 5.5t35.5 -2t28.5 -2q19 1 72.5 0.5t73.5 1.5q8 0 200 -2.5t261 0.5q75 4 104 -9q29 -14 29 -65q0 -7 -0.5 -17.5t-0.5 -20.5v-20.5t0.5 -18.5t0.5 -13v-6q0 -46 -27 -52q-5 -1 -15.5 -2t-15.5 -2q-25 -1 -71.5 0.5t-59.5 1.5h-73 q-46 1 -147 0t-148 0q-23 1 -60.5 -0.5t-60.5 0.5q-15 0 -43.5 1t-42.5 1q-53 0 -70 6q-15 5 -18 9q-6 7 -6 43z" />
<glyph unicode="`" horiz-adv-x="452" d="M-66 1827q0 86 78 86q13 0 39.5 1.5t43 2t38 -3t37.5 -12.5q22 -12 39 -36.5t33.5 -59.5t25.5 -48q41 -70 56 -123q15 -57 -52 -61q-20 -2 -54 -1.5t-44 3.5q-10 2 -19.5 6t-19.5 11.5t-15.5 12t-17 15.5t-14.5 14q-11 10 -38.5 39t-45.5 43q-70 55 -70 111z" />
<glyph unicode="a" horiz-adv-x="978" d="M25 324q0 134 91 228.5t232 111.5q28 4 64 4q22 0 58 -7.5t60 -7.5q15 0 19 2q35 13 35 50q0 18 -14 34t-31 23q-62 20 -133 20q-52 0 -93 -12q-13 -3 -53.5 -21t-62.5 -18q-7 0 -23 4q-22 7 -36.5 24t-31.5 48q-32 49 -43 94q-4 20 -4 29q0 41 41 82q27 27 77.5 45.5 t96.5 25.5q108 19 185 19q267 0 383 -168q27 -38 41 -86.5t16.5 -79.5t5.5 -96v-103q-1 -60 -1.5 -137t-2 -138t-6.5 -136q-1 -10 -1.5 -27.5t-1.5 -27t-5.5 -23t-12.5 -25.5q-48 -69 -204 -69q-26 0 -101 -1t-102 -1q-8 0 -35.5 0.5t-38 1t-36 1.5t-38.5 3t-34.5 5.5 t-36.5 8.5t-33 12.5t-33 16.5q-63 38 -95.5 82.5t-49.5 113.5q-12 49 -12 95zM342 340q0 -37 8 -45q20 -41 125 -41q91 0 107 43q8 14 8 70q0 57 -101 57q-62 0 -106 -23q-41 -30 -41 -61z" />
<glyph unicode="b" horiz-adv-x="1085" d="M92 518q0 55 3 149t3 152q0 54 1 164t1 166q0 21 1 74t1 73q0 3 -1.5 46.5t-0.5 54.5q2 7 2.5 30t3.5 31q4 9 8.5 16t12 11.5t12 7t15.5 3.5t14.5 1h17h15.5q29 0 93 2t93 2q41 0 57 -24t19 -68q1 -20 0 -48t0 -50q1 -11 1 -40v-51q-1 -43 -1 -68v-24q1 -25 17 -34 t37 -6.5t42 -0.5q198 -19 272 -65q124 -78 173 -199q21 -49 24 -106q9 -92 9 -173q0 -164 -36 -280q-26 -83 -91.5 -145.5t-143.5 -93t-158 -33.5q-32 0 -115 2t-114 2q-27 -1 -52 -1q-174 0 -208 50q-10 15 -14 39.5t-5 59.5t-2 44q-4 50 -5 104q-1 36 -1 78q0 21 0.5 43 t0.5 41q0 39 -1 64zM431 482q0 -14 0.5 -35.5t2.5 -40t6 -37.5q6 -31 38 -42q22 -7 44 -7q12 0 23 2q36 6 65 20q35 20 49 31q16 16 21 26q25 39 36 65.5t11 61.5q0 6 0.5 25.5t0 27.5t-2 25t-4 27t-8 23.5t-13.5 25.5q-27 40 -73 59q-21 9 -68 15q-28 4 -46 4q-12 0 -19 -2 q-41 -14 -54 -51q-8 -25 -9 -46t1.5 -49t1.5 -49q0 -12 -1.5 -38.5t-1.5 -40.5z" />
<glyph unicode="c" horiz-adv-x="860" d="M47 694q8 74 33 133q55 122 190 199q74 42 188 58q70 9 134 10q42 0 82 -4q43 -3 65.5 -16.5t28.5 -49.5q1 -8 1 -18q1 -33 -7 -96q-10 -82 -10 -105q-2 -78 -78 -78q-17 0 -37 4q-16 3 -34 3q-37 0 -80 -14q-63 -21 -91 -58q-9 -12 -14.5 -23.5t-8.5 -19t-4.5 -21 t-2 -18.5t0.5 -23.5t0 -24.5q0 -91 41 -149q13 -17 25 -27q23 -20 58 -26q21 -3 42 -4q13 0 27 2q34 4 66 6t58 -7t38 -36q8 -24 8 -39q15 -141 16 -172q1 -22 1 -37t-6 -25t-18.5 -16.5t-37.5 -11.5q-89 -17 -205 -17q-87 3 -173.5 34t-159.5 94.5t-101 146.5 q-42 126 -42 296q0 71 7 150z" />
<glyph unicode="d" horiz-adv-x="1071" d="M47 725q6 54 27 104q49 125 170 201q82 50 256 66q22 3 47 0t47 6.5t24 34.5v19q0 24 -1 64.5t-1 64.5v20q2 24 1.5 54t0.5 52q2 43 18.5 66.5t57.5 23.5q28 0 88 -2t88 -2h16h17.5t15 -1t15 -3.5t12 -6.5t12 -10.5t7.5 -15.5q3 -6 4 -15t1 -20t1 -16q2 -18 2 -61v-199 q0 -55 3 -166t3 -166v-299q0 -38 2 -108t2 -127.5t-4 -108.5q-1 -7 -2.5 -42.5t-5.5 -59.5t-13 -39q-8 -12 -22.5 -20.5t-36.5 -13t-40.5 -7t-47 -3t-42.5 -0.5t-41 1.5t-30 1.5q-31 0 -113.5 -2t-115.5 -2q-127 5 -241 78t-152 198q-37 116 -37 287q0 81 8 174zM367 571.5 q1 -25.5 0 -30.5q0 -72 39 -135q17 -22 20 -25q23 -23 53 -35q22 -9 63.5 -11.5t61.5 3.5q31 14 39 51q7 39 7 117q0 31 -1 69q-1 19 1.5 53t1 60t-10.5 51q-11 32 -86 32q-22 0 -49 -3q-26 -3 -60 -23q-32 -19 -53 -49q-9 -13 -15 -27.5t-8.5 -33.5t-3 -28.5t0.5 -35z" />
<glyph unicode="e" d="M69 684q1 31 5.5 74.5t18 80t36.5 68.5q66 93 143 131q122 60 266 61q47 0 97 -7q53 -9 77.5 -13.5t65 -19t68.5 -35.5q135 -102 135 -252v-67t-4 -58t-12.5 -63.5t-26 -50.5t-43.5 -52q-88 -73 -291 -73q-38 0 -79.5 4.5t-67.5 7t-37 0.5q-21 -8 -16.5 -29.5t16 -41 t18.5 -25.5q43 -37 135 -36q73 0 177 23q7 1 27 6t31.5 7t31 4.5t32 0.5t27 -6t25 -14.5t16.5 -25.5q7 -18 11 -35.5t4.5 -39.5t0 -36t-2.5 -42.5t-3 -41.5q-2 -39 -51 -66t-121 -38q-70 -10 -126 -14q-43 -3 -78 -3h-19q-95 1 -181.5 27t-160 86t-102.5 147q-25 74 -31 146 q-4 24 -5 47.5t-1.5 58.5t-1.5 49q0 21 -2 73q-1 35 -1 60v23zM392 720q4 -34 26 -50q6 -5 18.5 -9t21 -5.5t25.5 -3.5t21 -3q3 0 35 1t41 1q48 1 85 29q26 19 26 46q0 11 -5 24q-30 71 -163 71q-20 0 -42 -2q-45 -5 -69 -35q-20 -27 -21 -56q1 -4 1 -8z" />
<glyph unicode="f" horiz-adv-x="751" d="M59 881q1 21 3.5 74.5t3.5 74.5q8 113 61 234q37 78 118.5 134.5t171 82.5t179.5 28q137 0 162 -43q8 -14 9.5 -40t0 -42t-7.5 -50.5t-6 -35.5q-3 -28 -15.5 -65t-27.5 -62q-12 -19 -29.5 -22t-43.5 3t-40 5q-80 -6 -141 -61q-18 -17 -29 -50q-7 -21 -7 -41q0 -12 3 -24 q6 -32 33 -41q21 -6 41 -7.5t51 0t43 1.5q23 0 35.5 -2t23.5 -12t13 -29q7 -53 10 -130q2 -23 2 -45q0 -48 -6 -85q-16 -47 -72 -47h-90h-13.5h-13.5t-11.5 -0.5t-13 -3t-10.5 -5.5q-9 -6 -12.5 -14.5t-3.5 -15t1 -18t1 -17.5q-3 -4 -1.5 -54t1.5 -59q0 -48 -1 -126.5 t-1 -127.5q0 -5 0.5 -27.5t0 -31.5t-3.5 -27.5t-9 -28.5t-18 -20t-29 -14q-21 -4 -49 -5q-13 -1 -30 -1t-36 1q-40 1 -49 1q-17 1 -36 0t-41.5 1t-33.5 7q-24 11 -30 54q-5 29 -5 66q0 20 1 43q4 65 4 68q-4 54 -4 111.5t2 130t2 115.5q0 82 -5 180q-2 39 -2 115z" />
<glyph unicode="g" horiz-adv-x="1052" d="M67 530q-3 34 -3 69q0 62 10 126q14 99 51 168q50 93 155 140q100 44 206 44h14q21 -1 78.5 -3.5t80.5 -2.5t78 2q28 2 52 2q66 0 106 -16q46 -17 65 -44.5t19 -76.5q0 -69 4 -299q0 -41 -1 -123t-1 -123q0 -23 -2 -78t-2 -79q0 -21 1 -77v-47.5v-29.5q-1 -21 -5 -61.5 t-14.5 -74t-28.5 -71.5q-27 -58 -62 -98.5t-73.5 -65.5t-92 -39.5t-106.5 -20.5t-129 -9h-5q-45 0 -125 15q-85 16 -166.5 53.5t-84.5 82.5v11q0 40 18 98q22 66 48 108q18 32 37.5 39t52.5 -4q8 -3 40 -13.5t46.5 -15t44 -12t48 -10t42.5 -2.5t43 4q54 13 77.5 34t30.5 70 q1 3 3 13t3 16t1.5 15.5t-0.5 16t-5 12.5t-10 9q-13 3 -21.5 1t-23.5 -9t-22 -8q-27 -4 -57 -4q-43 0 -92 8q-82 15 -144 47q-61 32 -95.5 62t-50.5 77q-25 78 -33 174zM390 623v-24q0 -31 5 -52q13 -53 57 -73q25 -10 52 -10q22 0 45 7q37 11 62 40t26 64v13l2 25 q2 25 2 46t-5.5 45t-17.5 33q-26 18 -73 18q-19 0 -41 -3q-75 -12 -98 -56q-13 -25 -16 -73z" />
<glyph unicode="h" horiz-adv-x="1071" d="M62 379q1 68 1 111v47q0 49 4 161q3 90 3 146v26q0 56 1 156t1 156v153q0 53 2 62q1 5 1.5 24t2.5 27q4 9 8.5 15.5t12 10.5t12 6.5t15 3.5t14.5 1h16.5h15.5q28 0 100 2t101 2q41 0 57 -23t19 -67q1 -22 0 -50.5t0 -48.5q1 -11 1 -43v-59q-1 -50 -1 -77v-25q1 -16 8 -22 t20.5 -4.5t28.5 5.5t38 7.5t42 2.5q11 0 34 -1t32 -1.5t27.5 -2t27.5 -3t25 -5t28.5 -8t28 -11t32.5 -15.5q118 -62 164 -176q22 -52 25 -104q11 -112 13 -244q1 -58 1 -108q0 -62 -2 -112q-2 -88 -8 -243q-1 -47 -22 -59q-13 -7 -36 -7q-14 0 -32 3q-12 2 -40 2 q-24 0 -60 -2q-32 -1 -55 -1q-32 0 -46 3q-48 8 -58 23t-8 59v71q-1 60 -1 143q-2 138 -1 183q0 15 0.5 44.5t0.5 47t-4 43t-11.5 42.5t-22.5 34.5t-38 28.5q-19 10 -43 11t-47.5 -11t-36.5 -37q-11 -26 -14 -54q-2 -21 -2 -50v-21q1 -43 1 -58q-6 -231 -6 -368 q0 -7 4 -54.5t-2 -52.5q-7 -26 -21 -29t-42 3q-66 4 -123 4h-18h-50q-23 -1 -39 -1q-21 0 -30 1q-29 3 -37.5 14.5t-10.5 42.5v172q-1 26 -1 74q-1 36 0 84z" />
<glyph unicode="i" horiz-adv-x="505" d="M61 1368q3 92 89 92q15 0 58.5 2t64.5 2t55 -2t63 -8q38 -7 45 -57q2 -13 2 -103q0 -11 1.5 -33.5t0.5 -39.5q0 -2 -2 -13t-3 -14.5t-4 -11t-8 -12t-13 -7.5q-25 -10 -70 -10q-20 0 -61.5 2t-63.5 2q-9 0 -28 -0.5t-30 -0.5t-27 2t-30 7q-38 13 -38 74q0 11 1 23 q1 14 -1 53.5t-1 52.5zM68 134q2 40 2 52q-1 55 -1 74.5t2 75t3 74.5v211q-1 65 -3 173t-3 177q0 21 5 36.5t17 25t22 15t30.5 7.5t31.5 2.5t36.5 0t33.5 -0.5q13 0 31.5 1.5t32 1t30.5 -4.5q8 -2 25.5 -3t28.5 -2.5t22.5 -7.5t17.5 -18q8 -16 12 -40t4 -41t-1 -47t-1 -40 q-1 -22 -1 -46.5t0.5 -53.5t0.5 -45v-23q2 -27 2 -89q0 -52 -2 -130q-2 -170 -2 -219q0 -15 3 -58t3.5 -70.5t-8.5 -60.5t-30 -49q-16 -13 -37 -20.5t-49 -8.5t-44.5 -1t-51.5 3t-42 3q-25 0 -38 1t-32 8.5t-30 22.5q-14 20 -18 48q-2 18 -3 39q0 13 1 27z" />
<glyph unicode="j" horiz-adv-x="686" d="M13.5 -135.5q0.5 26.5 4.5 57.5q4 47 15.5 57.5t50.5 10.5q32 0 56.5 15t38.5 40.5t23 59.5t11.5 70.5t4.5 72.5v31q0 20 -1 38q0 34 -1.5 153t-3.5 272.5t-3 218.5q0 19 2 33t4 23.5t9.5 16t11.5 10t17 4.5l19.5 1.5t24.5 0t27 -0.5q2 0 36.5 1t63.5 1t65 -2.5t60.5 -10 t30.5 -20.5q16 -36 16 -285q0 -74 2 -243t2 -185q-1 -71 -1.5 -102t-6 -96.5t-14.5 -105.5t-28 -91t-46 -90q-121 -176 -324 -176h-14q-3 0 -36 -1.5t-53 0.5t-32 9q-8 6 -14 13.5t-9 13.5t-4.5 17t-2 15.5t0 18t0.5 16.5q0 21 -1.5 56.5t-1 62zM201.5 1316.5 q-0.5 16.5 0.5 42t7 40.5t16 30.5t28.5 23t43.5 7.5q14 0 61 2t68.5 2t57.5 -2t65 -8q34 -7 45 -57q2 -25 2 -62q0 -9 0.5 -33.5t0.5 -45.5t-1 -35q-3 -37 -15 -48q-5 -6 -14 -10q-30 -12 -69 -15q-21 -2 -47 -2q-21 0 -45 2q-39 1 -60 1h-14q-68 0 -101 14q-11 4 -16.5 11 t-6.5 15.5t-1 19.5v22q-1 12 -3 40.5t-2.5 45z" />
<glyph unicode="k" horiz-adv-x="1087" d="M78 1411q0 29 11.5 49.5t26 30.5t42.5 15.5t45 6t49 0.5q12 0 35.5 1.5t40.5 1t34 -4.5q3 0 14.5 -2t16.5 -3t15 -3.5t15.5 -5.5t13 -7t12.5 -9.5t8 -12.5q16 -35 16 -284q0 -44 -3 -180q-2 -81 -2 -139q0 -39 1 -68q0 -5 -2 -25.5t-0.5 -34.5t8.5 -22q7 -7 15.5 -7.5 t16 4t16.5 12.5t15.5 15.5t14 16.5t10.5 12q12 12 21 29t12.5 27.5t10.5 34.5t9 32q3 13 9 33t9 34.5t5 32.5q0 2 1 16t1.5 19.5t3 15.5t6.5 17t11 12q12 7 39 9q10 1 22 1q19 1 42 -1q37 -2 42 -3q17 0 53 3.5t65 3.5t52 -7q16 -5 24.5 -16t10.5 -18.5t2.5 -28.5t1.5 -27 q0 -186 -123 -354q-5 -7 -16 -17.5t-16.5 -16.5t-9.5 -18t5 -22q15 -25 60.5 -66.5t60.5 -70.5q33 -59 45 -123.5t14 -148.5q1 -9 0 -20q0 -22 -2 -48q-4 -40 -14 -57q-5 -10 -11.5 -17t-11.5 -10.5t-14.5 -5.5t-14.5 -2.5t-18 -1t-18 -0.5q-23 0 -72 2t-74 2 q-23 -5 -61.5 -2t-46.5 26q-7 8 -7 55q1 9 1 19q1 39 0 58v16q-12 87 -43 137q-22 40 -58 76q-18 18 -43 18q-14 0 -30 -6q-15 -8 -22.5 -25t-8.5 -29.5t0.5 -39t1.5 -31.5q1 -11 3 -59q2 -34 1 -58v-18q-1 -28 -10.5 -63.5t-30.5 -51.5q-20 -16 -53 -23t-53 -7q-3 0 -8 -1 q-21 1 -60 3q-47 2 -53 2q-61 3 -82 17q-11 7 -19 18q-14 21 -18 51q-2 19 -3 43q0 14 1 30q2 43 2 54q-1 18 -1 41q1 41 3 100q3 72 2 112v21q0 38 -4 203q-4 135 -4 219v35v31q0 102 -4 448z" />
<glyph unicode="l" horiz-adv-x="509" d="M61 1407q0 29 11.5 49.5t25.5 30.5t41.5 15.5t44.5 6t49 0.5q12 0 35 1.5t40 1t34 -4.5q3 -1 14.5 -2.5t16.5 -3t15 -3.5t16 -5t13.5 -7t12.5 -9.5t8 -12.5q12 -28 18 -64q6 -34 6 -58v-9q0 -23 -2 -71q-2 -56 -3 -82q0 -152 1 -457.5t1 -458.5q0 -8 2 -58q1 -33 1 -55 v-19q-1 -26 -11 -61t-31 -51q-20 -16 -52.5 -22.5t-57.5 -5.5t-66.5 4.5t-55.5 3.5q-60 3 -81 16q-11 8 -19 19q-14 19 -18 47q-2 18 -3 40q0 14 1 28q2 40 2 51q-1 18 -1 41q1 41 3 99q3 71 2 111v21q0 38 -4 203q-4 135 -4 219v35v163t-2 151.5t-3 162.5z" />
<glyph unicode="m" horiz-adv-x="1650" d="M61 981q-1 28 9 47.5t22.5 29.5t37 15t39 5.5t41.5 0.5h3.5h3.5q123 0 150 -4q11 -2 18.5 -5.5t12 -10t6 -10t4.5 -15t4 -14.5q4 -11 12 -13.5t15 1t12 8.5q49 49 119 64q38 8 74 8q32 0 64 -6q68 -13 128 -46q39 -20 59 -43q12 -13 25.5 -13.5t23 5.5t23.5 17.5t20 15.5 q54 33 92 43q55 17 122 17q30 0 62 -3q105 -11 173 -59q67 -47 99 -119t48 -172q4 -28 6.5 -55t3 -56.5t1 -49.5t-0.5 -57t0 -56q-1 -68 -4 -197t-4 -199q-2 -63 -123 -63h-4h-6q-5 0 -42.5 -0.5t-54.5 0t-45 4.5t-46 12q-11 5 -17.5 13.5t-9.5 22t-4 23t-1.5 27.5t-0.5 23 q0 21 1 59t1 60v249q-2 133 -20 179q-18 45 -75 45h-3q-28 0 -48.5 -6t-32.5 -17t-20 -26.5t-11 -33.5t-4.5 -39t-0.5 -43t0 -44v-2v-47q0 -63 -1 -179t-1 -184v-11.5v-12t-0.5 -11t-1.5 -11.5t-3 -10t-5 -10t-7 -8q-12 -12 -35 -18t-41 -6.5t-48 1t-37 1.5q-24 0 -123 6 q-39 5 -50 17.5t-8 52.5q3 54 3 115q0 36 -1 75q0 38 1.5 109.5t1.5 109.5q-2 135 -22 184q-20 48 -82 48h-3q-20 0 -36 -3t-27.5 -11.5t-20 -16t-13.5 -23t-8.5 -25t-5 -30.5t-2 -31t-0.5 -35v-34q-4 -158 -4 -367q0 -7 1 -25t0.5 -28.5t-2.5 -25t-9 -25.5t-18 -19 q-23 -18 -69 -20q-18 -1 -33 0q-24 0 -42 2q-122 0 -139 2q-61 6 -61 72q-2 58 -2 157t2 238q-1 11 -1 24.5t0.5 30t0.5 25.5q0 35 -5 440z" />
<glyph unicode="n" horiz-adv-x="1089" d="M66 987q0 21 5.5 37.5t11.5 26.5t21 17l22.5 10.5t29.5 5t27.5 1.5h29.5q11 -1 49 1q22 1 41 1h24q28 -1 50 -6q29 -6 34 -12q5 -8 7 -22q3 -20 18.5 -26t32.5 5q39 29 72 41q55 18 114 18q39 0 80 -8q299 -59 299 -342v-286q0 -259 -6 -398q0 -18 -8 -30.5t-24.5 -19.5 t-30.5 -11t-38.5 -3.5t-36.5 0.5t-37.5 2.5t-27.5 2.5q-12 1 -46.5 0.5t-45.5 1.5q-31 3 -46 27t-13 57q2 137 2 414q-1 59 -5.5 99t-16.5 74t-34.5 50.5t-56.5 15.5q-26 0 -46 -7t-31 -19.5t-19 -30t-10 -37.5t-3.5 -42.5t-0.5 -45.5t0 -45q-9 -237 -9 -381q0 -7 1 -25.5 t0.5 -28.5t-3 -24t-11 -24t-21.5 -17q-24 -14 -100 -14q-25 0 -56 2q-4 0 -69 -2q-30 -1 -47 -2q-21 0 -23 2q-29 3 -37 14.5t-8 44.5q-1 29 -1 87.5t-1 88.5q0 18 2 234q0 402 -4 528z" />
<glyph unicode="o" horiz-adv-x="1085" d="M68 322q-11 122 -11 222q0 166 31 267q16 61 68 127q124 147 377 147q44 0 92 -4q121 -11 226.5 -84.5t139.5 -185.5q32 -105 33 -271q0 -98 -12 -218q-6 -94 -60.5 -175t-138.5 -135q-29 -19 -123 -43q-70 -14 -157 -14h-31q-161 4 -244 55q-169 112 -190 312zM424 444 q0 -15 2 -43.5t8 -44.5t16 -35t26.5 -30t39.5 -15q38 -8 59 7t48 57q9 13 14.5 28t7.5 36t2.5 32.5t0 37.5t-0.5 32q0 46 -1.5 71.5t-9 64t-26.5 61.5t-49 32q-24 7 -41 7q-14 0 -22 -5q-19 -10 -45 -53q-29 -48 -29 -156v-38.5v-45.5z" />
<glyph unicode="p" horiz-adv-x="1079" d="M80 784q0 64 4 115q0 7 0.5 33.5t1.5 42t5.5 35.5t12.5 32q6 9 16.5 16.5t25.5 12t29 8t35 5.5t35.5 3t36.5 0.5t32.5 -0.5t31 -1t23.5 -1q33 0 121.5 1t119.5 1q126 -5 240.5 -78.5t153.5 -197.5q30 -97 32 -231v-32q0 -114 -12 -202q-2 -41 -25 -104 q-48 -123 -172 -201q-76 -46 -282 -66q-21 -3 -41 -0.5t-35 -6.5t-16 -34q-2 -25 -2 -66q0 -20 1 -44v-56q0 -34 -1 -57q-2 -44 -18 -67t-58 -23q-29 0 -93 2t-92 2h-15.5h-17t-15 1t-15 3.5t-12 6.5t-12 10.5t-7.5 15.5q-3 6 -4 15t-1 20t-1 16v174q0 56 -3 166t-3 164 q0 58 -1 152t-1 149q0 32 -2 116q-1 64 -1 116q0 17 1 34zM440.5 402.5q1.5 -19.5 8.5 -42.5q12 -40 34 -47q14 -3 48 1.5t51 11.5q44 18 75 63q33 51 33 141q0 87 -33 142q-8 16 -20 22q-17 20 -51 35q-20 9 -53 12t-50 -2q-31 -10 -37 -47q-5 -37 -5 -112q0 -37 1 -84 q1 -19 -1 -46.5t-0.5 -47z" />
<glyph unicode="q" horiz-adv-x="1079" d="M29 578q2 132 32 229q26 84 92 147.5t144.5 94.5t159.5 34h239q3 0 23.5 1t31 1t32.5 0.5t36.5 -0.5t35.5 -3t35 -5.5t29 -8t25.5 -12t16.5 -16.5q8 -12 12.5 -32t5.5 -35.5t1.5 -42t0.5 -33.5q4 -50 5 -113v-32q0 -50 -2 -110q-1 -80 -1 -114v-311q0 -54 -4 -164 t-4 -166q0 -14 1.5 -50.5t1.5 -68t-3 -55.5q-1 -5 -1 -16t-1 -20t-4 -15q-3 -9 -7.5 -15.5t-12 -10.5t-12 -6.5t-15 -3.5t-15 -1h-17.5h-16q-28 0 -90 -2t-90 -2q-42 0 -58 23t-18 67q-1 19 -1 46.5t1 64.5t1 65t-1 47q-1 20 -6.5 29t-14 10.5t-20 1t-26.5 0.5 q-242 23 -313 66q-124 78 -172 201q-20 54 -25 104q-12 88 -12 200v32zM379 511q0 -6 0.5 -19t1.5 -20.5t3 -19t5 -20t7 -18t10 -17.5q22 -37 81 -65q21 -9 55 -12t52 4q24 16 31 38q8 24 10.5 47t1.5 57.5t0 49.5q1 24 1 45q0 78 -9 127q-8 49 -60 53q-61 0 -84 -10 q-34 -15 -51 -35q-14 -6 -22 -22q-33 -59 -33 -123v-19v-21z" />
<glyph unicode="r" horiz-adv-x="817" d="M78 678v305q-1 28 7.5 47t18.5 29t32.5 14.5t36 5t44.5 0.5h8.5h7.5q55 0 84 2q61 0 95 -14q4 -2 7.5 -4t6 -4t4.5 -4.5t3 -4.5t2 -6t2 -5.5t1.5 -6t0.5 -6t0.5 -7t0.5 -7.5q3 -27 8 -31t25 10q5 4 18.5 15.5t21.5 17.5t20 14t22 13q26 13 61 23q34 10 70 12h9 q31 0 53 -16q25 -18 26 -54v-43q1 -19 -0.5 -41.5t-1.5 -34.5q0 -104 -2 -149q-1 -17 -12.5 -26t-23.5 -10.5t-34 -1.5t-30 -1q-100 -8 -150 -66q-29 -33 -39 -53q-10 -18 -16.5 -41.5t-8 -40t-4 -46.5l-3.5 -42q-4 -17 -4 -51q0 -21 2 -51q4 -74 4 -95q0 -188 -33 -215 q-20 -16 -52 -23t-52 -7q-3 0 -7 -1q-21 1 -59 3q-46 2 -51 2q-29 1 -49.5 4.5t-33 12t-19.5 15.5t-10 24t-3.5 27.5t0 36t0.5 39.5q-4 170 -4 537z" />
<glyph unicode="s" horiz-adv-x="946" d="M9 135.5q-2 27.5 20 59.5q7 11 26 42.5t30.5 48t33.5 35.5t47 25q23 4 52 -5.5t67 -30t45 -23.5q44 -19 92 -21q5 0 9 -1q43 0 83 18q25 9 30 38t-18 50q-39 29 -143.5 47t-122.5 24q-86 32 -149 90q-39 32 -57 100q-16 58 -15 118v19q3 69 24 118q27 63 69.5 106.5 t99 67t114.5 34.5t131 13q7 0 15 1q44 -1 110 -11q78 -12 113 -29q14 -7 42.5 -19t50.5 -24.5t38 -28.5q18 -19 18 -49q0 -33 -22 -78q-5 -11 -19 -55t-30 -63q-25 -37 -60 -37q-8 0 -18 2q-17 5 -77.5 30.5t-88.5 28.5q-4 2 -32 6t-63.5 5.5t-58.5 -13.5t-14 -47 q5 -19 15.5 -31.5t31 -18.5t29.5 -7.5t35 -3.5q82 -7 153 -27q145 -39 207 -166q32 -60 32 -148q0 -84 -26 -145q-62 -172 -274 -219q-38 -7 -125 -9q-25 -1 -46 -1q-52 0 -79 4q-196 26 -293 121q-30 32 -32 59.5z" />
<glyph unicode="t" horiz-adv-x="944" d="M59 866q2 118 8 145q13 58 62 58q5 0 23.5 -1.5t33.5 -1t25 4.5q12 6 12 33v70q2 34 1.5 67t-1.5 66v19.5v20.5t1 18t2.5 20.5t4.5 18t7 19.5q3 8 9 14t11 9.5t15.5 7t14.5 4.5t18 3.5t16 2.5q18 4 32.5 4.5t35 -1t32.5 -1.5h34t32 -2t32.5 -5.5t26 -11t22.5 -18t12 -27 t5 -38.5q0 -23 -1 -70.5t-1 -72.5v-66q0 -4 -1 -20.5t-1 -30.5t2 -21q2 -5 4 -7.5t5.5 -4.5t5.5 -2.5t8.5 -1t8.5 -0.5q9 1 52 3q18 1 34 1q24 -1 42 -3q32 -4 49 -17q12 -11 18.5 -30t7 -31t0.5 -38q3 -27 3 -64v-39q-2 -62 -27 -97q-12 -19 -43 -31q-27 -8 -69 -8 q-30 0 -67 4q-30 5 -34 -12q-3 -7 -3.5 -20t0.5 -30.5t1 -21.5q0 -15 -1 -49.5t-1 -53.5t3 -50.5t9.5 -50t20.5 -42t34.5 -36.5t52 -23.5t72.5 -12.5q10 0 29 0.5t29.5 0t23.5 -4t20 -14.5t9 -29q6 -54 6 -127v-35q0 -73 -4 -91t-27 -33q-9 -6 -37.5 -9t-53 -3t-59.5 0.5 t-38 0.5h-15q-105 0 -191 38q-92 41 -151 126q-34 49 -54 99.5t-28.5 112t-10 103t-1.5 121.5q0 17 1 57t1 58q0 11 -4 18t-13.5 9.5t-16.5 3t-21 0.5q-53 0 -80 14q-25 13 -25 135z" />
<glyph unicode="u" horiz-adv-x="1112" d="M78 448v24v42v64q0 293 4 432q0 13 3 23t6 16.5t10 11.5t12 7.5t15.5 4t16.5 2t19.5 1.5t19.5 1q49 4 89 4q65 0 108 -10q47 -10 57 -24t8 -58q-8 -291 -8 -398v-22q0 -116 22.5 -165.5t88.5 -49.5q43 1 68 12.5t36 38t13.5 50t3.5 69.5v4v4q6 238 8 396l-2 36 q-1 35 1 57t9 34q12 18 38 23q14 3 34 3q16 0 36 -2q44 -4 46 -4q94 0 139 -2q27 -2 42.5 -19.5t20.5 -48.5t5.5 -58t-1.5 -63.5t-2 -49.5v-63v-131q-2 -128 -2 -181q0 -225 2 -387q0 -17 -2 -30t-8.5 -22.5t-11.5 -16.5t-17.5 -11.5t-18 -7t-22 -3.5t-21.5 -1h-24h-22h-78 q-12 -1 -22 -1q-42 0 -66 13q-9 4 -13.5 7.5t-7 8.5t-2.5 8t-0.5 11.5t-0.5 13.5q0 6 -0.5 11.5t-2.5 14.5t-5.5 10t-10.5 -1q-14 -10 -32 -27.5t-34 -29.5t-36 -19q-60 -20 -124 -20q-41 0 -83 8q-134 27 -199 107t-92 233q-5 35 -7.5 69.5t-2.5 50.5z" />
<glyph unicode="v" horiz-adv-x="1071" d="M53 932q0 87 16 114q11 15 25 19q7 2 16 2t19.5 -1t15.5 -1q27 0 89 2t88 2q22 0 38.5 -3t27.5 -6.5t18.5 -13.5t11.5 -16t5.5 -22t1.5 -24.5t-0.5 -30.5t-0.5 -33q0 -141 6 -215q1 -13 3 -53t4 -63.5t7 -57t14.5 -60.5t24.5 -49q2 -2 10 -16t13.5 -21.5t14.5 -15 t18 -7.5q12 0 24 14.5t19 31t15.5 39.5t10.5 28q14 33 29 129q7 39 11 78q4 40 4 59v28v45q0 54 -1 71q0 5 -0.5 22t-0.5 30t1 32t3.5 33.5t7 29t12.5 23.5t18 12q12 4 41 4q19 0 66 -4t65 -4q19 0 56 1t55 1q28 0 39.5 -23.5t11.5 -54.5q0 -79 -4 -239q-5 -153 -26 -249 t-83 -223q-50 -96 -104 -157q-46 -56 -125 -96.5t-158 -40.5q-55 0 -109.5 24.5t-98.5 66t-77 81.5t-61 86q-61 97 -94 225q-29 111 -29 340q0 20 -2 62.5t-2 64.5z" />
<glyph unicode="w" horiz-adv-x="1478" d="M36.5 925.5q-0.5 17.5 0 28t1.5 29t3.5 31t7 26t12 22t17.5 11.5q12 4 35 4q15 0 45 -3t45 -3t52 3t52 3q56 0 74 -20.5t18 -77.5q0 -28 -2 -84.5t-2 -85.5q0 -37 6 -102.5t7 -79.5q6 -95 34 -170q1 -2 8 -17.5t11 -23t13.5 -15.5t19.5 -8t19.5 8.5t17 24t12 28t10 30.5 t6.5 22q15 39 19 147q0 6 1 52t3.5 83t7.5 41q20 17 72 17q23 0 74.5 2t76.5 2q96 0 96 -76q0 -18 -1 -61.5t-1 -69.5t2.5 -64.5t8.5 -70.5q4 -32 24.5 -73.5t44.5 -41.5q7 0 13 3t11 9t8 10.5t7.5 13.5l5.5 11q24 44 35.5 109t12.5 103t1 116q0 36 -3 106t-3 105 q0 58 17 77t73 19q15 0 56 -3t55 -3q16 0 49 4t49 4q26 0 42 -7t23 -23.5t9 -32.5t2 -43q0 -167 -20 -355q-1 -10 -5.5 -72.5t-11.5 -88.5q-34 -132 -72 -204t-120 -167q-29 -33 -96.5 -62.5t-112.5 -29.5q-71 0 -99.5 16.5t-65.5 66.5q-7 10 -11 15q-7 9 -19 37t-25.5 45.5 t-33.5 17.5q-15 0 -31 -16q-10 -11 -52.5 -68.5t-76.5 -82.5q-39 -31 -125 -31q-60 0 -123 38t-106.5 86t-77.5 103q-9 16 -24 49t-17 37q-30 61 -53 187q-35 180 -35 282v131q0 3 -0.5 20.5z" />
<glyph unicode="x" horiz-adv-x="1046" d="M49 70v77q0 116 57 218q7 12 64 74t57 87q0 16 -26.5 40.5t-28.5 27.5q-53 74 -82 154q-24 64 -30.5 95.5t-6.5 96.5v53q0 40 11 60.5t47 21.5q62 4 92 4q23 0 78.5 -5t76.5 -5q15 0 23.5 -1.5t16.5 -8t10 -19.5q5 -26 7.5 -82.5t8.5 -85.5q1 -5 4.5 -21t5 -22t5.5 -19.5 t7.5 -21t9.5 -18t13 -18.5q32 -41 59 -41q37 0 66 41q30 43 39.5 111t10 124t9.5 70q13 20 49 20q14 0 51 -3t52 -3q19 0 57 2t56 2q54 0 66.5 -14.5t12.5 -69.5q0 -12 -2 -37.5t-2 -38.5q0 -113 -24 -174q-40 -97 -129 -186q-15 -15 -15 -29q0 -23 23.5 -53t55 -60.5 t40.5 -47.5q60 -109 60 -259q0 -68 -11 -89q-17 -31 -63 -31h-23q-29 0 -97 -2t-95 -2t-45.5 12.5t-18.5 38.5q0 10 1 30.5t1 30.5q0 35 -4 51q-9 53 -47.5 131t-77.5 78q-12 0 -29 -13t-26 -26q-74 -96 -74 -237v-27q0 -12 -1 -21.5t-5 -16.5t-5.5 -12t-9.5 -8.5t-10 -5 t-13.5 -2.5t-14 -1h-17.5h-18q-23 0 -80 -1t-80 -1q-47 0 -69.5 20t-22.5 68z" />
<glyph unicode="y" horiz-adv-x="1075" d="M48 674q0 51 0.5 82t3.5 103.5t5 123.5q1 47 25 62.5t72 17.5q72 3 119 3q64 0 85 -5q47 -8 57.5 -23.5t8.5 -58.5q-4 -133 -4 -301v-28.5v-30t1 -26.5t3 -27.5t6 -24.5t10.5 -24.5t15 -20.5t21 -20.5t27.5 -16.5q37 -18 68 -18q13 0 24 3q45 8 45 70v10v305q0 83 -2 138 q0 22 5.5 38.5t12.5 27t22 18t25 11t31.5 5.5t31 2h32.5q11 0 33.5 1.5t39 1t33.5 -4.5q2 0 13.5 -2t15.5 -3l14 -3.5t15 -5.5t11.5 -7t11 -9.5t7.5 -12.5q9 -18 13 -59.5t4 -75.5t-1 -88t-1 -66v-377q0 -24 1 -78.5t1 -80.5q0 -80 -1 -113t-9 -86.5t-26.5 -95.5t-51.5 -92 q-56 -86 -152 -128q-90 -40 -191 -40h-14q-3 0 -51 -0.5t-100 -1.5h-54.5h-56.5q-58 1 -99 3.5t-48 6.5q-23 16 -31 62q-6 36 -6 68v15q4 39 4.5 74.5t3.5 67.5q5 41 97 51q44 4 94 4q52 0 109 -5h11t10 -0.5t11 -0.5q18 -3 43 -3q21 0 46 2q58 4 81 25q18 15 25 44.5 t-13 52.5q-6 4 -24 5.5t-33 0.5t-25 0q-10 0 -32.5 -1t-40.5 -1t-31 2q-137 13 -199 45q-124 68 -172 188q-19 53 -25 105q-6 69 -9 119q-3 44 -3 87q0 8 1 15z" />
<glyph unicode="z" horiz-adv-x="1087" d="M68 858q2 125 7 153q13 70 63 70h1q659 0 690 -2q12 -1 47 1t62.5 -1.5t44.5 -17.5q29 -23 29 -98q1 -20 1 -41q0 -79 -9 -181q-4 -40 -94.5 -120t-186.5 -151t-102 -79q-4 -4 -16 -14t-18 -19t-5 -20q1 -9 30.5 -9t69.5 4.5t47 4.5q3 0 51 1t82 1t73.5 -3.5t53.5 -10.5 q26 -14 26 -86q0 -16 -1 -35q-2 -122 -6 -146q-12 -73 -64 -73h-81h-284q-136 -1 -216 -1q-106 0 -111 1q-9 0 -46 -2q-13 -1 -26 -1q-21 1 -38 3q-27 4 -44 18q-5 4 -9 9t-6.5 9.5t-4.5 12.5t-3 12.5t-2 14t-1.5 14t-1 15t-0.5 13.5q0 116 2 136q-3 29 4 63q9 37 98 112.5 t189 149.5t116 92q2 2 7.5 7t10.5 10t11 11.5t9.5 12.5t5 11.5t-2.5 9.5t-12 6q-11 3 -29 3q-21 0 -51 -4q-58 -7 -76 -7q-3 0 -51 -1t-81.5 -1t-72.5 3.5t-53 10.5q-26 14 -26 129z" />
<glyph unicode="{" horiz-adv-x="780" d="M3.5 774.5q-0.5 14.5 0 21.5t2.5 18t6 20l2 2q7 11 56.5 18.5t56.5 13.5q21 16 31 60q2 12 2 71q4 32 4 48q0 71 2 108q10 147 57 248q54 115 156 166q58 25 117 28q3 0 19 1t23.5 1.5t22.5 0.5t24.5 -1t21 -3t20.5 -5q26 -9 32 -57q7 -62 3 -207q-1 -10 0 -23t1 -20.5 t-3.5 -18.5t-12.5 -22q-3 -4 -16 -7t-31.5 -5t-19.5 -2q-21 0 -33 -6q-40 -23 -37 -68q0 -82 -2 -123q-1 -9 -3.5 -48t-4 -52.5t-6.5 -46t-10.5 -51t-16.5 -43.5t-25 -46q-4 -4 -28 -24q-31 -15 -33 -21q-1 -5 5 -9.5t13 -6.5q6 -4 17.5 -12.5t17.5 -12.5q14 -12 41 -75 q23 -57 23 -171t10 -159q5 -27 21.5 -54t39.5 -34q5 -2 39.5 -4.5t48.5 -20.5q9 -13 11 -31.5t0 -47.5t-2 -35v-119q0 -38 -13 -55q-6 -7 -16.5 -11t-16.5 -5t-22 -2t-18 -1q-8 0 -26 1t-24 1q-106 10 -169 49t-128 131q-61 86 -61 324q0 3 -6 96q-6 81 -92 94 q-2 1 -18.5 3.5t-27 6.5t-14.5 11q-2 2 -2 4q-6 13 -7.5 27.5t0 36t1.5 28.5q2 38 -2 109q0 4 -0.5 18.5z" />
<glyph unicode="|" horiz-adv-x="430" d="M98.5 75q1.5 53 1.5 54q1 47 1 137t1 137q0 357 2 535v289q0 12 0.5 33t0.5 37.5t-1 31.5v70q0 5 -0.5 26t-0.5 32.5t2.5 28t7.5 25.5q14 29 65 29h96q46 0 50 -24q4 -20 4 -33q5 -96 3.5 -152t-5.5 -153t-4 -154q0 -151 2 -227q0 -294 4 -326q2 -20 2 -43.5t-1 -52 t-1 -43.5v-90q-1 -27 0 -60.5t0 -60.5q-4 -67 -2 -101v-30q0 -30 -11 -41q-4 -4 -11 -6t-11.5 -2.5t-13.5 0t-11 0.5q-9 -1 -52.5 -1t-51.5 -1l-12 -1q-12 0 -17 0.5t-13.5 3t-12.5 7.5q-8 12 -10 42.5t-0.5 83.5z" />
<glyph unicode="}" horiz-adv-x="780" d="M116.5 -55q2.5 35 2.5 39q-4 53 -2 79q0 54 12 68q13 16 51.5 22t52.5 19q22 19 39 82q8 37 8 113t1 88q0 3 1 8q7 96 30 137q2 4 5 8q1 2 12 22.5t19 28.5q13 10 35 25q19 10 16 16q-1 7 -30 21q-27 22 -29 24q-12 18 -21.5 37t-16 42.5t-10.5 37.5t-7 44t-4 39t-3 45.5 t-2 41.5q-2 22 -1.5 58.5t-0.5 58.5q-4 56 -36 74q-15 6 -33 6q-1 0 -20 2t-32 5t-16 7q-10 14 -13 25.5t-1.5 30.5t0.5 28q-4 139 2 207q5 48 33 57q27 10 94 6q87 -8 135 -26q201 -72 227 -416q2 -37 2 -108q-2 -20 -1 -50t5 -58.5t18.5 -51t39.5 -27.5q3 -1 27 -2.5 t38.5 -6.5t20.5 -15l2 -2q10 -22 6 -78q-1 -19 0 -39.5t3 -45t3 -38.5v-14.5v-18t-1 -17t-3.5 -17.5t-7.5 -13t-12 -10q-14 -7 -48 -9.5t-51 -13.5q-38 -23 -41 -84q-6 -93 -6 -96q0 -90 -8 -158q-17 -142 -111.5 -236.5t-236.5 -109.5q-5 0 -22 -1t-27 -1q-3 0 -17.5 1 t-21 2t-17 5t-16.5 11q-11 14 -14 35.5t-0.5 56.5z" />
<glyph unicode="~" horiz-adv-x="915" d="M78 653v15q0 38 1.5 56.5t9 44t26 42t49.5 31.5q63 25 110 35q28 7 97 -7q22 -6 74 -35.5t87 -31.5q17 -1 34.5 1.5t38 10.5t31.5 12.5t36 17t30 15.5q44 17 64 21q70 6 61 -195q-7 -50 -41 -80q-22 -22 -97.5 -51.5t-106.5 -32.5q-53 -5 -132.5 35.5t-123.5 40.5 q-25 2 -94 -23.5t-95 -25.5q-30 0 -44.5 33.5t-14.5 70.5z" />
<glyph unicode="&#xa1;" horiz-adv-x="559" d="M68 109q0 23 3 48t8 55.5t7 47.5q30 304 43 578q2 53 14 159q1 8 1.5 34.5t2 42.5t11 33.5t26.5 22.5q21 7 39 7q60 0 98 -3t65.5 -17.5t40.5 -27t20.5 -49.5t8.5 -67t1 -96q0 -133 2 -398.5t2 -398.5q0 -57 -31 -77.5t-92 -20.5q-29 0 -82 5.5t-76 6.5q-61 3 -86.5 28.5 t-25.5 86.5zM147 1341v158q0 37 19.5 54t47.5 16.5t60 -0.5q16 -1 43.5 2.5t40.5 3.5q45 0 69 -28.5t24 -73.5q0 -13 0.5 -39t0.5 -48t-1 -40q-2 -28 -28 -49t-61 -21q-8 0 -27.5 1t-27.5 1h-57q-45 0 -74 16.5t-29 46.5z" />
<glyph unicode="&#xa2;" horiz-adv-x="1058" d="M29 500q-10 156 41 272q73 168 249 277q22 14 51.5 24.5t46.5 17t19 13.5q4 10 4 65q0 4 -1 15.5t-1 19t2.5 18t8.5 17.5q5 7 14.5 10.5t23 5t24 1.5t25.5 -0.5t19 -0.5q8 0 31.5 1t33.5 0t26 -4.5t25.5 -13.5t14.5 -26q4 -12 4.5 -24.5t-1 -29t-1.5 -23.5q0 -32 17 -37 q10 -2 35.5 -8t36.5 -9t32.5 -10t34.5 -14t30.5 -18.5t32.5 -26.5q72 -76 90 -115q14 -37 5 -62.5t-44 -50.5q-14 -8 -43 -37t-58 -50t-54 -21q-21 1 -75.5 40.5t-88.5 49.5q-50 16 -94.5 8t-83.5 -28t-65 -56.5t-38 -78t-3.5 -91.5t38.5 -98q36 -56 112.5 -77t143.5 5 q21 8 69.5 51.5t80.5 44.5q17 0 35 -6q72 -25 151 -108q17 -17 22.5 -34.5t-1.5 -37t-16 -33.5t-27 -38t-27 -37q-72 -86 -193 -119q-2 0 -9 -1t-9 -1.5l-8 -2t-8 -2.5t-6 -3.5t-6 -5.5t-4 -7.5t-3 -9.5q-4 -50 -2 -106q0 -21 -10 -29q-12 -8 -50.5 -9.5t-79.5 0t-46 1.5 q-46 0 -56 8t-12 33.5t1 64t3 43.5q0 15 -2.5 19.5t-15.5 5.5q-86 13 -170 80t-144 155q-29 38 -55 111q-19 62 -22 123z" />
<glyph unicode="&#xa3;" horiz-adv-x="1077" d="M53 51q2 18 10.5 83.5t10.5 98.5q2 20 5 29.5t12.5 17t27.5 7.5q5 0 19.5 -1t20 0t14 4.5t11.5 12t4 23.5q2 31 11 139q0 5 2.5 36t-0.5 36q-2 16 -27 16h-4q-16 1 -26.5 2.5t-26.5 6.5t-23 15t-4 25q1 8 2 68.5t8 83.5q0 26 14 36.5t48 10.5q4 0 14.5 -1t18 -1t16.5 1.5 t13.5 7t4.5 15.5q1 11 4.5 35t4.5 35q2 13 5 40.5t5 41.5q23 108 86 215q78 131 217 196q93 41 180 44q64 1 112 -9.5t118 -38.5q54 -19 68.5 -46.5t2.5 -84.5q-10 -52 -59 -131q-20 -37 -41 -52t-42.5 -12t-42.5 11.5t-50.5 15.5t-57.5 2q-68 -11 -113.5 -73.5 t-62.5 -141.5q0 -2 -5.5 -19.5t-6.5 -27.5q0 -2 -0.5 -7t-0.5 -9.5t1 -7.5q7 -7 25.5 -7.5t46 2.5t39.5 3q4 0 24 1t31 0t26.5 -3.5t23 -11t7.5 -21.5t-4 -29q-1 -9 -1 -48t-1 -48q-2 -11 -5 -32t-3.5 -25.5t-5.5 -15t-9.5 -11t-18 -3.5t-27 -2l-40.5 3q-26 0 -59 -2 q-2 0 -13 0.5t-19 0.5t-17.5 -1.5t-15 -6t-5.5 -12.5q0 -41 -2 -59q0 -22 -3 -61.5t-3 -59.5q0 -4 -1 -14.5t-1 -20t2 -14.5q9 -21 192.5 -22t200.5 4q43 2 67.5 -11t23.5 -53q0 -19 4 -59q8 -86 0 -127q-2 -12 -6.5 -21t-13.5 -14.5t-14.5 -9t-19 -5t-18.5 -2t-22.5 0 t-20.5 0.5q-115 2 -340 2q-319 0 -422 6q-54 3 -72 24q-8 13 -8 37z" />
<glyph unicode="&#xa4;" horiz-adv-x="1116" d="M92 889q-1 12 8 26.5t17.5 22.5t26.5 23t20 16q5 4 23 24t34 32.5t29 10.5q5 0 10.5 -2t10.5 -6.5t8.5 -8l9 -9l6.5 -6.5q3 -3 10 -11.5t11.5 -12t11 -8t13.5 -3.5t15 6q117 49 189 51q100 0 190 -41q4 -2 15.5 -8t15.5 -6.5t16 2.5q6 3 12 7.5t14.5 14t10.5 11.5 q26 33 43 33q20 3 90 -66.5t68 -89.5q0 -6 -4.5 -13.5t-9 -12t-12 -11t-9.5 -8.5q-3 -4 -10.5 -10.5t-12 -11t-8.5 -11t-3.5 -14t5.5 -15.5q29 -57 37 -86q4 -16 5 -33.5t1.5 -41.5t1.5 -33q2 -48 -12 -119q-3 -10 -15.5 -32t-20 -42t-3.5 -35q0 -16 20.5 -30t39.5 -28.5 t16 -33.5q-1 -6 -6 -13t-13 -15t-10 -11q-53 -43 -88 -86q-21 -21 -38.5 -22t-29 8t-32.5 33q-2 2 -8 11t-12 14.5t-11 5.5q-4 1 -11.5 -3.5t-16.5 -11t-13 -8.5q-52 -23 -104 -29q-102 -15 -213 15q-25 8 -49 22q-22 16 -23 17q-11 4 -20 -9q-2 -2 -22.5 -25.5t-35.5 -35.5 t-26 -12q-5 1 -12.5 6.5t-15.5 13.5t-11 10q-38 48 -86 86q-21 22 -22.5 40t8 30t32.5 33q1 1 9.5 7t13 10t8 10t2.5 12q-3 11 -18.5 33.5t-18.5 39.5q-40 119 -12 238q15 60 45 113q-1 2 -2 6t-2 6q-5 8 -18 21t-15 16q-35 23 -37 43zM365 573q5 -55 36.5 -100.5 t85.5 -69.5q73 -28 144 4t106 107q9 19 11 25q18 101 -54 184q-56 49 -129 55q-81 0 -145 -57q-58 -61 -55 -148z" />
<glyph unicode="&#xa5;" horiz-adv-x="1179" d="M34.5 1359.5q-1.5 17.5 5 28.5t21.5 17q61 18 207 8q23 0 33 -0.5t25 -6t26 -17.5q32 -42 60 -125q18 -34 45.5 -105.5t40.5 -99.5q2 -5 7 -21q52 -154 85 -153q18 0 31 37q7 21 16.5 43t16.5 37t20.5 40.5t19.5 38.5q27 50 74 174q1 3 6 19.5t7 23t7 21t9.5 22.5 t11 19.5t14 20.5t15.5 16q24 19 55 23.5t78.5 -0.5t60.5 -5h4q5 0 18 -0.5t19 -1t17 -2t17 -4.5t12.5 -8t10 -12.5t3.5 -18.5q0 -27 -8.5 -57.5t-25.5 -73.5t-20 -53q-16 -27 -37.5 -83t-33.5 -81q-11 -22 -35 -63.5t-29 -49.5q-2 -5 -12 -18.5t-16.5 -25.5t-2.5 -21 q3 -6 16 -6.5t31 2t21 2.5q4 0 15 0.5t17 0t15 -1.5t16.5 -4t14.5 -8q22 -11 22 -69v-109q0 -47 -22 -55l-21 -4q-20 -1 -54 0.5t-44 1.5q-25 0 -79 -1t-81 -1t-31 -23.5t3 -48.5q1 -9 -1.5 -27.5t-0.5 -29.5q2 -23 41 -23q15 0 55.5 -1.5t73.5 -1t61 4.5q57 5 78 -10 q22 -15 22 -72v-106q0 -17 -0.5 -24.5t-5.5 -18t-16 -14.5q-25 -3 -46 -3.5t-43.5 0.5t-29.5 1q-17 0 -66.5 3t-76.5 1q-3 -1 -12 -1.5t-17 -2t-12 -5.5q-4 -3 -6 -11t-2.5 -14t0 -17.5t0.5 -12.5q0 -17 -1.5 -57.5t-1.5 -44.5q-2 -24 -8.5 -37t-20 -16.5t-25 -3t-32.5 3 t-34 2.5t-46.5 -2t-62.5 -2t-51 4q-58 3 -64 69q-2 37 -2 113q-1 10 -3 16.5t-8.5 8.5t-9.5 3t-14.5 0.5t-13.5 -0.5q-10 0 -28 1.5t-25 1.5q-10 0 -69.5 1t-69.5 1q-52 0 -64 16q-4 8 -4 47q-1 8 -1 30.5t0.5 49t0.5 29.5q-5 39 2 55q4 12 18 17.5t27 5t32 -2.5t24 -2h145 q1 0 15.5 -1t24 0.5t15.5 6.5q6 6 6 39q0 73 -8 86q-6 11 -19.5 16.5t-23 6t-29 -0.5t-22.5 -1q-10 0 -69.5 1t-69.5 1q-48 0 -64 14q-4 8 -4 49v107q-5 41 2 53q4 14 18 20t26.5 6t32.5 -1.5t24 -1.5h57q9 1 13 4t3 8t-3 10t-6 12t-5 11q-3 8 -10.5 21.5t-10.5 21.5 q-13 30 -27.5 57.5t-34 60.5t-26.5 46q-67 127 -86 178q-1 4 -8.5 26.5t-10 34t-4 29z" />
<glyph unicode="&#xa6;" horiz-adv-x="421" d="M90 38.5q-2 30.5 0 80t2 53.5q1 46 1 124t1 124q2 0 1 69t-1 70t-0.5 19t0 25.5t3 20t7.5 19.5q6 9 18.5 13.5t23.5 4t28 -2t23 -1.5q7 0 30 1t31 0t22.5 -5t22 -14.5t12.5 -28.5q6 -15 4.5 -62.5t-0.5 -62.5q3 -41 2.5 -157t-2.5 -164q-4 -63 -2 -98v-29q0 -31 -10 -41 q-4 -4 -11 -6t-11.5 -2.5t-13.5 0t-11 0.5q-9 -1 -52.5 -1t-51.5 -1h-12q-12 -1 -17.5 -0.5t-14 3t-12.5 7.5q-8 12 -10 42.5zM95 1411q0 12 2 28t7 25q14 27 66 27h96q44 0 49 -23q4 -20 4 -32q5 -94 3.5 -148t-5.5 -149.5t-4 -151.5v-92q0 -3 0.5 -15.5t0.5 -19.5 t-2.5 -16t-8.5 -13q-7 -5 -19.5 -6.5t-32 -0.5t-20.5 1q-11 0 -33.5 -2t-40.5 -2t-32 4q-6 1 -10.5 4.5t-8 7t-5.5 10t-3 11t-1.5 12.5t-0.5 11.5v12v9.5v283v100v68q0 6 -0.5 25.5t-0.5 31.5z" />
<glyph unicode="&#xa7;" horiz-adv-x="915" d="M40 785q9 67 40 128q6 12 20 27.5t22.5 25t14 26.5t-5.5 32q-45 78 -35 172q7 73 37 139q33 64 103 107.5t155 59t178.5 8.5t175.5 -37q72 -25 95 -60q24 -37 -16.5 -111.5t-84.5 -101.5q-7 -3 -12 -5t-9 -2.5t-8.5 1t-7 2.5t-9.5 4.5l-11 5.5q-48 19 -109 29 q-35 3 -68.5 1t-59 -24t-27.5 -59q-1 -28 24.5 -52.5t57.5 -37.5q17 -7 67 -25.5t73.5 -29t59.5 -32t62 -46.5q83 -80 91 -208.5t-67 -217.5q-3 -4 -12.5 -14t-15 -16.5t-9.5 -16.5t-1 -19q2 -7 14 -29t18 -44q14 -44 11 -99q-7 -56 -39 -121q-30 -61 -96.5 -106t-144.5 -65 t-162.5 -17.5t-151.5 29.5q-120 48 -152 94q-26 37 12.5 108t83.5 97q7 5 12.5 7t11.5 1.5t9.5 -2t11.5 -5t13 -5.5q7 -3 25 -12.5t28 -14.5t25.5 -10.5t27.5 -7.5q151 -18 158 79q1 28 -26 55.5t-58 39.5q-23 10 -84.5 31.5t-102 42.5t-73.5 53q-49 47 -68.5 114t-10.5 134 zM325 769q-2 -26 7 -46q10 -22 32.5 -38t41 -22.5t53.5 -15.5t45 -12q36 -15 51 -6q11 5 19 25t10 36q2 12 0 22.5t-8 19.5t-12 16.5t-18 15t-19.5 12.5t-22.5 11t-21.5 9t-21.5 8.5t-19 6.5q-6 2 -21 9t-25 10.5t-23 5.5t-22 -3t-15 -18q-9 -20 -11 -46z" />
<glyph unicode="&#xa8;" horiz-adv-x="901" d="M74.5 1789q0.5 5 0.5 22.5t2.5 24t6 20t9.5 19.5t14.5 14t21 11t27.5 3q13 0 45.5 1.5t47.5 2t40.5 -1.5t48.5 -7q21 -4 29 -26t8 -62v-43q4 -26 0.5 -61t-21.5 -57q-9 -11 -24 -16t-26.5 -5.5t-30.5 0t-27 0.5q-4 0 -21.5 -1.5t-27.5 -1.5t-27.5 0.5t-28.5 4t-23 8.5 t-19.5 15t-10.5 24q-1 12 -6.5 31t-5.5 35q0 2 -1 21.5t-0.5 24.5zM485 1812.5q0 12.5 3.5 32.5t11.5 30.5t23 19t38 8.5q13 0 46 1.5t48 2t40.5 -1.5t49.5 -7q16 -3 25.5 -20.5t11.5 -34.5t3.5 -44t2.5 -32q4 -79 -30 -118q-10 -14 -27 -18.5t-47 -3.5t-35 1q-2 0 -25 -1.5 t-32 -1.5t-29.5 2t-31 7.5t-22 16t-15.5 26.5q-1 10 -4 30t-3 36q0 9 -1 33t-1 36.5z" />
<glyph unicode="&#xa9;" horiz-adv-x="1251" d="M53 666v79v76q14 170 125.5 306t282.5 180q57 14 164 14q37 0 57 -2q97 -3 172 -37q168 -66 266 -229q54 -91 66 -201q4 -46 4 -107q0 -76 -2 -94q-9 -108 -62 -200q-61 -118 -171.5 -192t-249.5 -91q-120 -13 -216 8q-82 19 -149 57q-125 63 -200.5 179.5t-86.5 253.5z M162 823q-15 -134 22.5 -260t137.5 -196q64 -43 147 -71t156 -28q83 0 194 39q73 26 129 79.5t86 121.5q68 151 39 350q-10 102 -74.5 182.5t-162.5 124.5q-100 47 -211 47q-103 0 -201 -32q-144 -49 -213 -193q-43 -80 -49 -164zM327 708.5q0 66.5 13 135.5q43 172 211 209 q61 19 134 10.5t118 -45.5q98 -106 47 -150q-5 -4 -45 -26q-12 -12 -35.5 -23t-42.5 -12q-13 0 -23 10.5t-25.5 21.5t-41.5 13q-9 0 -29 -8q-57 -24 -67 -109q-7 -87 43 -129q27 -23 65 -17t56 40q7 10 40 10q43 0 89.5 -19.5t42.5 -54.5q-1 -17 -7.5 -32.5t-10.5 -22 t-19.5 -25t-20.5 -24.5q-72 -82 -198.5 -80t-198.5 80q-46 48 -70.5 114.5t-24.5 133z" />
<glyph unicode="&#xaa;" horiz-adv-x="798" d="M53 868q0 109 73.5 186t188.5 91q10 2 52 2q18 0 47 -5t49 -5q12 0 14 2q29 10 29 39q0 14 -12 28t-25 19q-50 16 -109 16q-40 0 -73 -10q-10 -2 -43 -16.5t-51 -14.5q-13 0 -19 2q-28 8 -55 60q-26 40 -35 75q-4 16 -4 23q0 32 35 67q21 21 62.5 37t78.5 21 q79 14 147 14q217 0 312 -135q7 -10 13 -21t10 -19.5t8 -21.5l6 -19.5t4.5 -22t3.5 -20t2 -22.5t1.5 -20.5t1.5 -24t1 -22.5v-84q-1 -37 -1.5 -145.5t-6.5 -188.5q-1 -7 -2 -26.5t-4 -31.5t-11 -24q-41 -57 -166 -57h-163q-58 0 -84 1t-71 10t-77 28q-52 31 -78.5 67.5 t-38.5 92.5q-10 34 -10 75zM309 883q0 -32 8 -37q15 -33 101 -33q72 0 86 35q6 10 6 55q0 47 -80 47q-54 0 -88 -18q-33 -26 -33 -49z" />
<glyph unicode="&#xab;" horiz-adv-x="1150" d="M8 725q1 11 7.5 23t10.5 17.5t18 21t15 16.5q37 41 94 122t83 113q10 13 58.5 81t82.5 98q12 9 26 15t32 8.5t27.5 3t31 0t24.5 -0.5q5 0 15 0.5t18 0.5h19.5t19 -1.5l17.5 -3.5t14.5 -6t10 -9.5t3.5 -13.5t-4 -18q-7 -16 -17.5 -31t-26.5 -35t-22 -28q-10 -15 -36.5 -55 t-46.5 -67t-42 -52q-72 -90 -86 -117q-5 -7 -15.5 -20t-16 -20.5t-13 -21.5t-6 -23.5t5.5 -25.5q12 -24 29.5 -51t31.5 -45t39 -49.5t35 -44.5q108 -145 162 -230q68 -104 -6 -104q-22 0 -64.5 -3.5t-72.5 -1.5t-62 13q-31 7 -104 115q-62 94 -215 303q-48 55 -64 86 q-13 20 -10 41zM444 725q1 11 7.5 23t11.5 18.5t17.5 20t15.5 16.5q24 26 49.5 58.5t42.5 57t44.5 64t41.5 59.5q70 99 145 177q14 14 33.5 20t33 6.5t36.5 -1t30 -1.5q5 0 15.5 0.5t18.5 0.5h19.5t19.5 -1.5t18 -3.5t14.5 -6t10 -9.5t3.5 -13.5t-4 -18q-7 -16 -17.5 -31 t-26.5 -35t-22 -28q-12 -17 -37 -55.5t-45 -66t-42 -52.5q-72 -90 -86 -117q-5 -7 -15.5 -20t-16.5 -20.5t-13.5 -21.5t-6 -23.5t5.5 -25.5q15 -31 34.5 -59.5t57.5 -76t44 -54.5q101 -136 161 -230q68 -104 -6 -104q-22 0 -64.5 -3.5t-72 -1.5t-61.5 13q-32 7 -105 115 q-62 94 -215 303q-46 53 -63 86q-14 21 -11 41z" />
<glyph unicode="&#xac;" horiz-adv-x="813" d="M55 610q0 23 2 62.5t2 64.5q0 7 -2 20t-2 19q0 14 8.5 23t26 12t26 3.5t27.5 0.5q61 0 133 -1t134 -1h149q13 0 35 1t35 1q15 0 39 1.5t34 0.5t22 -7t16.5 -23t4.5 -46v-92q0 -36 3.5 -98t3.5 -98q0 -67 -12.5 -83t-73.5 -16q-136 0 -158 15q-14 9 -14 37q0 14 3 41t3 40 q0 20 -1 31.5t-10 24t-26 12.5t-49.5 -3t-48.5 -3q-11 0 -81 -1.5t-116 0t-72 7.5q-41 8 -41 55z" />
<glyph unicode="&#xad;" horiz-adv-x="1705" />
<glyph unicode="&#xae;" horiz-adv-x="1280" d="M61 745q0 5 1 37t1 39q14 171 125.5 307t284.5 179q57 14 158 14q43 0 63 -2q91 -3 172 -37q169 -69 262 -229q54 -91 66 -201q8 -92 8 -107q0 -10 -3 -47.5t-3 -46.5q-12 -107 -59 -200q-61 -117 -173 -191t-247 -92q-122 -13 -215 8q-87 20 -152 57q-124 64 -200 180 t-87 253q0 7 -1 39.5t-1 39.5zM170 823q-15 -134 22.5 -260t137.5 -196q64 -43 146.5 -71t156.5 -28q79 0 194 39q72 26 130 79.5t87 121.5q65 144 39 350q-10 101 -75 182t-162 125q-100 47 -213 47q-95 0 -201 -32q-70 -24 -125.5 -75.5t-87.5 -117.5q-43 -80 -49 -164z M360 451v30q0 5 1 20t1 23q5 54 5.5 94.5t-1 98.5t-1.5 98q0 13 1.5 57t0.5 70q-4 60 18 94q6 7 12.5 12t17 8t18.5 4.5t24.5 2t26 0.5h33h36.5q166 0 240 -27q51 -21 86.5 -72t39.5 -108t-30 -108q-18 -21 -29 -27q-2 -2 -11 -8.5t-12.5 -10t-6.5 -11t-1 -15.5 q4 -10 23 -23q12 -12 25 -35q18 -20 36 -73q5 -17 8 -42t-1 -51.5t-19 -31.5q-16 -4 -47.5 -3.5t-46.5 -0.5q-50 -5 -84 10q-5 2 -8 7.5t-4.5 9.5t-2.5 11.5t-1 8.5q-5 52 -9 69q-8 23 -18.5 33.5t-36.5 28.5q-10 8 -42 7.5t-36 -11.5q-5 -17 -5.5 -40.5t1.5 -52.5t2 -38 q0 -3 0.5 -10t0.5 -10.5t-2 -9t-7 -9.5q-4 -4 -12.5 -4t-20.5 2t-18 2q-67 0 -98 -2q-15 0 -29 10t-17 23zM568.5 850.5q1.5 -10.5 0.5 -16.5q-7 -27 2 -54q4 -25 27 -28q28 -10 55.5 0t38.5 32q20 61 -30 97q-10 8 -40.5 9t-43.5 -9q-7 -6 -9 -13t-0.5 -17.5z" />
<glyph unicode="&#xaf;" horiz-adv-x="690" d="M53 1679v90q0 51 21 58q57 11 144 12t200 -3.5t153 -4.5h17t25 -3t14 -11q4 -6 5.5 -15.5t1.5 -17t-0.5 -20t-0.5 -17.5q0 -11 1.5 -36.5t1.5 -46t-3 -36.5q-2 -8 -5.5 -14t-9 -9.5t-10 -6t-12.5 -3t-12 -0.5h-11.5h-9.5h-237q-10 0 -28 0.5t-32.5 0.5t-27.5 -1h-62 q-2 0 -22 -0.5t-29.5 0t-24 3t-22.5 8.5q-25 18 -25 73z" />
<glyph unicode="&#xb0;" horiz-adv-x="727" d="M67 1280.5q14 79.5 56 140.5q23 39 65 58q82 46 164 41q98 -6 178 -56q56 -35 86.5 -99.5t32.5 -131.5q0 -67 -24.5 -130t-71.5 -102q-34 -27 -82 -45q-71 -28 -163.5 -17.5t-151.5 60.5q-58 46 -80.5 124t-8.5 157.5zM253 1247q-3 -38 21 -71q17 -35 70 -39q85 0 105 61 q23 69 -33 113q-27 18 -64.5 19t-64.5 -19q-31 -26 -34 -64z" />
<glyph unicode="&#xb1;" horiz-adv-x="915" d="M74 829q0 78 129 78q11 0 29 -2t29 -3t23 1t17.5 10.5t5.5 24.5q0 31 1 67.5t1 69.5q0 18 13.5 40.5t31.5 23.5q24 3 44.5 4.5t34 2t33.5 0t29 -1t34.5 -2.5t37.5 -3q21 -1 35 -34t14 -56q0 -5 -1.5 -23t-2 -36t0 -37t4 -31.5t10.5 -14.5q17 -4 63 -4h14.5h19h20.5 t22 -1.5t20.5 -3t19.5 -5t15 -7.5t11 -10t4 -14q2 -36 2 -153q0 -66 -56 -66q-22 0 -53 -1t-53 -1q-5 0 -15 0.5t-15.5 0.5t-14 -1.5t-12.5 -5t-7.5 -10.5t-3.5 -17q0 -21 1 -38t1.5 -23.5t-1 -20.5t-5.5 -39q-5 -34 -55 -34h-189q-19 0 -31.5 4.5t-19.5 9.5t-10 17.5 t-3 19.5t0.5 26t0.5 27t2 21.5t2.5 22.5t-1 18.5t-8 14.5t-18.5 5q-15 0 -42 -2t-45.5 -3t-41 1.5t-36.5 11t-23.5 27t-9.5 47.5q0 27 -1 54t-1 54zM98 293q0 26 10 42.5t29 23.5t36 9.5t40 2.5q69 0 221 -1t232 -1h14.5h18.5h19.5t21 -1.5t20 -3t18.5 -5t14 -7.5t11 -10 t4 -14q3 -24 0.5 -82t-2.5 -82q0 -66 -55 -66q-169 0 -309 -3t-187 -3h-14q-25 0 -37 0.5t-32 3t-30 9.5t-21 19t-15.5 32t-4.5 47t-1 45t-1 45z" />
<glyph unicode="&#xb2;" horiz-adv-x="788" d="M39 1249q0 17 6 35q34 97 127 153t201 56q159 0 248.5 -77t89.5 -234q0 -86 -45.5 -156.5t-122.5 -112.5q-1 0 -25 -11t-36.5 -21t-12.5 -21q0 -10 13 -16t34 -7t41 -0.5t41.5 2t26.5 1.5q73 0 94.5 -29t21.5 -109q0 -56 -17.5 -84t-70.5 -28h-379q-11 0 -37 -0.5 t-38 -0.5t-33 2t-32 6t-25.5 12.5t-21.5 20.5t-12 31t-5 44q0 34 4 40q3 52 40.5 107t88.5 100t101 85t85 75t35 57q0 54 -68 54q-29 0 -53 -13t-37 -28t-28 -28t-29 -13q-43 0 -106.5 34.5t-63.5 73.5z" />
<glyph unicode="&#xb3;" horiz-adv-x="735" d="M47 1298q0 5 1 10.5t3 11t4 10t6 10.5t6 9.5t7.5 9.5t7 8.5t7.5 9t7 7.5q104 113 250 113q103 0 184 -37h2q71 -33 104.5 -102t33.5 -154q0 -42 -31 -92t-31 -63q0 -12 18.5 -39t37 -61t18.5 -62q0 -152 -88 -228.5t-244 -76.5q-47 0 -86 8q-62 12 -138.5 71.5 t-76.5 116.5q0 33 67.5 80t104.5 47q21 0 34 -11.5t19 -25.5t23.5 -25.5t46.5 -11.5q27 0 44.5 14t17.5 40q0 20 -12.5 38.5t-31.5 26.5h-2q-28 13 -36.5 28.5t-8.5 49.5q0 44 8 70t20 34.5t24 14t20 16.5t8 33q0 21 -14 33t-35 12q-30 0 -67 -28.5t-68 -28.5 q-37 0 -100.5 40t-63.5 74z" />
<glyph unicode="&#xb4;" horiz-adv-x="452" d="M117 1640q16 56 55 123q9 13 25.5 48t33.5 59.5t39 36.5q16 9 37.5 12.5t38 3t43 -2t39.5 -1.5q35 0 56.5 -21.5t21.5 -64.5q0 -56 -70 -111q-18 -14 -45.5 -43t-38.5 -39q-3 -3 -14.5 -14t-17 -15.5t-15.5 -12t-19.5 -11.5t-19.5 -6q-10 -3 -44 -3.5t-54 1.5 q-66 4 -51 61z" />
<glyph unicode="&#xb6;" horiz-adv-x="1705" />
<glyph unicode="&#xb7;" horiz-adv-x="524" d="M83 749.5q0 11.5 1.5 32.5t7 32t14.5 23.5t24.5 18.5t37.5 6q12 0 53.5 2t61 2t52 -2t58.5 -8q5 -1 9 -3t7 -6t5 -7t4 -9t3 -9.5t2.5 -11t2 -11t1.5 -11t1 -10.5q1 -11 -1 -33t-1 -34q0 -5 2.5 -33.5t2 -41.5t-5 -33.5t-15.5 -33.5q-12 -16 -31 -20.5t-51 -3t-39 1.5 q-96 -7 -164 6q-31 6 -37 41q-2 29 -2 88q0 8 -1.5 32t-1.5 35.5z" />
<glyph unicode="&#xb8;" horiz-adv-x="468" d="M117 -350q0 10 2.5 19.5t5.5 20.5t4 15q2 13 10.5 36t16.5 30q15 7 43 5.5t32 0.5q28 7 40 28q9 18 -15 23h-2q-14 4 -31 3.5t-28 2.5q-21 3 -28.5 22t-2.5 35q45 62 55 82q2 5 6.5 17.5t7.5 20t10.5 18t16.5 18.5q11 17 76 12q25 0 31 -8h2q8 -12 -2 -47q0 -3 -4 -12.5 t-7 -20.5t-5.5 -22t-0.5 -18.5t10 -8.5q51 -6 72.5 -57t7.5 -98q-15 -61 -79 -104.5t-130 -41.5q-94 0 -108 14q-6 5 -6 15z" />
<glyph unicode="&#xb9;" horiz-adv-x="561" d="M25 1335q0 29 105.5 96.5t139.5 67.5q103 0 134.5 -1.5t50.5 -8.5q17 -7 25 -18t9.5 -19.5t2.5 -30.5q4 -62 5.5 -138t1.5 -127t-0.5 -143t-0.5 -130q0 -29 -1 -85t-1 -83q0 -24 -2.5 -42t-9.5 -31t-12 -22t-19.5 -15t-22.5 -9t-30 -4.5t-32.5 -1.5h-39.5q-23 0 -35.5 1 t-31 5t-31 14t-19.5 27q-5 12 -8 59.5t-3.5 115.5t0 129t1 124.5t0.5 77.5q0 33 -15 33q-8 0 -23 -9.5t-24 -9.5q-22 0 -68 76t-46 102z" />
<glyph unicode="&#xba;" horiz-adv-x="890" d="M80 883q-26 259 16 393q13 49 54 104q117 138 378 115q98 -10 183.5 -69t113.5 -150q39 -131 17 -393q-6 -77 -50.5 -143t-111.5 -107q-24 -16 -98 -35q-67 -15 -152 -12q-133 4 -197 45q-138 89 -153 252zM366.5 981q0.5 -12 2 -35t6.5 -35.5t13 -28t21 -24.5t31 -12 q31 -7 47.5 5t38.5 46q6 9 10 20.5t6.5 20t3.5 24.5t1 22v25v21q0 30 -0.5 46t-4 44t-10.5 44t-21 31.5t-34 21.5q-35 9 -51 0.5t-37 -43.5q-22 -38 -22 -125q0 -6 -0.5 -31t0 -37z" />
<glyph unicode="&#xbb;" horiz-adv-x="1159" d="M82 1210q-2 8 3.5 13.5t10 9.5t14.5 6t18 3.5t19.5 1.5h19.5t18.5 -0.5t15.5 -0.5q7 0 30 1.5t36.5 1t33 -6.5t33.5 -20q75 -78 145 -177q14 -20 41.5 -59.5t44.5 -64t42.5 -57t49.5 -58.5q3 -3 15.5 -16.5t17.5 -20t11.5 -18.5t7.5 -23q3 -20 -11 -41q-17 -33 -63 -86 q-153 -209 -215 -303q-73 -108 -105 -115q-32 -11 -61.5 -13t-72 1.5t-64.5 3.5q-74 0 -6 104q60 94 161 230q11 15 35.5 45t39 48.5t32 45.5t29.5 51q4 16 5.5 25.5t-6 23.5t-13.5 21.5t-16.5 20.5t-15.5 20q-14 27 -86 117q-22 25 -42 52.5t-45 66t-37 55.5q-6 8 -22 28 t-26.5 35t-17.5 31q-2 10 -4 18zM518 1210q-2 8 3.5 13.5t10 9.5t14.5 6l17.5 3.5t19 1.5h19.5t18 -0.5t15 -0.5q3 0 24.5 0.5t31 0t27.5 -3t32 -8.5t26 -15q34 -30 83.5 -99t58.5 -80q27 -32 83 -113.5t93 -121.5q3 -4 12 -13.5t13.5 -15t11 -14.5t10 -17.5t4.5 -17.5 q3 -21 -10 -41q-16 -31 -64 -86q-153 -209 -215 -303q-73 -108 -104 -115q-32 -11 -62 -13t-72.5 1.5t-64.5 3.5q-74 0 -6 104q54 85 162 230q10 13 35 44.5t39 49.5t31.5 45t29.5 51q4 16 5.5 25.5t-6 23.5t-13 21.5t-16 20.5t-15.5 20q-14 27 -86 117q-22 25 -42 52 t-46.5 67t-36.5 55q-6 8 -22 28t-26.5 35t-17.5 31q-2 10 -4 18z" />
<glyph unicode="&#xbf;" horiz-adv-x="1093" d="M39.5 487.5q9.5 105.5 44.5 180.5q11 22 28.5 44t49.5 55.5t35 37.5q10 11 34 33.5t40 41.5t24 40q6 17 8 117.5t21 115.5q25 20 68 20t71 -6q22 -2 58 1t58 3.5t56 -8.5q14 -5 22 -20t11 -41.5t3.5 -38.5t0.5 -39q-1 -15 -1 -43.5t-1 -52t-4 -43.5q-8 -55 -39 -91 t-88 -73q-64 -41 -106 -104t-32 -128q10 -74 61 -108.5t130 -34.5q58 0 98 48.5t58 113.5q12 44 28.5 55.5t61.5 9.5h36t39.5 -1t34 -4t37 -11t31.5 -20q34 -29 37.5 -85t-17.5 -115.5t-46.5 -110t-49.5 -81.5q-77 -96 -200.5 -139t-250.5 -22q-123 17 -208 67 q-71 39 -136.5 109.5t-89.5 142.5q-25 79 -15.5 184.5zM314.5 1541.5q-0.5 27.5 25 43t82.5 10.5q22 -2 66.5 1t75 4.5t61 -10.5t41.5 -40q4 -12 5.5 -29t1 -29.5t-2.5 -35t-2 -29.5q-1 -11 -1.5 -35t-2 -38.5t-11 -30.5t-28.5 -23q-36 -12 -67.5 -13t-65 3.5t-52.5 3.5 q-6 -1 -20.5 -3t-21.5 -2.5t-18 0.5t-20 6t-18 14q-18 19 -23 44.5t-3 67t1 58.5q-2 35 -2.5 62.5z" />
<glyph unicode="&#xc0;" horiz-adv-x="1345" d="M29 55q0 22 5.5 50.5t17 64.5t20 61t23 64.5t18.5 50.5q37 108 88 318t61 247q69 253 117 447q1 3 3 14t3 15t3.5 13.5t4.5 14.5t5.5 13t7 13.5t8 11.5t10.5 11q31 27 100 27q44 0 132 -1t132 -1q21 0 39 -7.5t32.5 -25t25 -32t21.5 -42t16.5 -41t14.5 -44t11 -35.5 q6 -20 20.5 -60.5t20.5 -60.5q130 -423 146 -479q6 -20 25.5 -74.5t27.5 -85.5q5 -20 17.5 -57t17.5 -56q26 -105 41 -145q39 -103 39 -166v-8q-4 -70 -115 -70q-38 0 -113.5 -2t-113.5 -2q-55 0 -82 29q-36 38 -58 146t-43 144q-16 27 -40 35t-62 8q-16 0 -46 -3t-46 -3 q-1 0 -25 -8q-7 -3 -13 -8.5t-10 -11t-8 -15.5t-6 -16t-5 -19t-4 -17.5t-3 -17.5t-2 -14q-12 -72 -35 -133q-3 -7 -8.5 -31t-13.5 -37.5t-25 -19.5q-38 -14 -92 -14q-20 0 -66 4q-49 4 -149 4q-35 0 -62.5 13.5t-27.5 43.5zM358 1827q0 86 78 86q13 0 39.5 1.5t43 2t38 -3 t37.5 -12.5q22 -12 39 -36.5t33.5 -59.5t25.5 -48q41 -70 56 -123q15 -57 -52 -61q-20 -2 -54 -1.5t-44 3.5q-10 2 -19.5 6t-19.5 11.5t-15.5 12t-17 15.5t-14.5 14q-11 10 -38.5 39t-45.5 43q-70 55 -70 111zM561 793q0 -24 8 -39.5t25.5 -22t33 -8.5t40.5 -2q45 0 64.5 14 t19.5 56q0 49 -30 126.5t-69 77.5q-36 0 -64 -78t-28 -124z" />
<glyph unicode="&#xc1;" horiz-adv-x="1345" d="M29 55q0 22 5.5 50.5t17 64.5t20 61t23 64.5t18.5 50.5q37 108 88 318t61 247q69 253 117 447q1 3 3 14t3 15t3.5 13.5t4.5 14.5t5.5 13t7 13.5t8 11.5t10.5 11q31 27 100 27q44 0 132 -1t132 -1q21 0 39 -7.5t32.5 -25t25 -32t21.5 -42t16.5 -41t14.5 -44t11 -35.5 q6 -20 20.5 -60.5t20.5 -60.5q130 -423 146 -479q6 -20 25.5 -74.5t27.5 -85.5q5 -20 17.5 -57t17.5 -56q26 -105 41 -145q39 -103 39 -166v-8q-4 -70 -115 -70q-38 0 -113.5 -2t-113.5 -2q-55 0 -82 29q-36 38 -58 146t-43 144q-16 27 -40 35t-62 8q-16 0 -46 -3t-46 -3 q-1 0 -25 -8q-7 -3 -13 -8.5t-10 -11t-8 -15.5t-6 -16t-5 -19t-4 -17.5t-3 -17.5t-2 -14q-12 -72 -35 -133q-3 -7 -8.5 -31t-13.5 -37.5t-25 -19.5q-38 -14 -92 -14q-20 0 -66 4q-49 4 -149 4q-35 0 -62.5 13.5t-27.5 43.5zM518 1640q16 56 55 123q8 13 25.5 48.5t34.5 59.5 t39 36q21 11 45 14t63 0.5t49 -2.5q35 0 56.5 -21.5t21.5 -64.5q0 -57 -69 -111q-18 -14 -45.5 -43t-38.5 -39q-3 -3 -14.5 -14t-17 -15.5t-15.5 -12t-19.5 -11.5t-19.5 -6q-10 -3 -44.5 -3.5t-54.5 1.5q-66 4 -51 61zM561 793q0 -24 8 -39.5t25.5 -22t33 -8.5t40.5 -2 q45 0 64.5 14t19.5 56q0 49 -30 126.5t-69 77.5q-36 0 -64 -78t-28 -124z" />
<glyph unicode="&#xc2;" horiz-adv-x="1345" d="M29 55q0 22 5.5 50.5t17 64.5t20 61t23 64.5t18.5 50.5q37 108 88 318t61 247q69 253 117 447q1 3 3 14t3 15t3.5 13.5t4.5 14.5t5.5 13t7 13.5t8 11.5t10.5 11q31 27 100 27q44 0 132 -1t132 -1q21 0 39 -7.5t32.5 -25t25 -32t21.5 -42t16.5 -41t14.5 -44t11 -35.5 q6 -20 20.5 -60.5t20.5 -60.5q130 -423 146 -479q6 -20 25.5 -74.5t27.5 -85.5q5 -20 17.5 -57t17.5 -56q26 -105 41 -145q39 -103 39 -166v-8q-4 -70 -115 -70q-38 0 -113.5 -2t-113.5 -2q-55 0 -82 29q-36 38 -58 146t-43 144q-16 27 -40 35t-62 8q-16 0 -46 -3t-46 -3 q-1 0 -25 -8q-7 -3 -13 -8.5t-10 -11t-8 -15.5t-6 -16t-5 -19t-4 -17.5t-3 -17.5t-2 -14q-12 -72 -35 -133q-3 -7 -8.5 -31t-13.5 -37.5t-25 -19.5q-38 -14 -92 -14q-20 0 -66 4q-49 4 -149 4q-35 0 -62.5 13.5t-27.5 43.5zM385.5 1688q-1.5 21 10.5 43t40 38 q12 7 56.5 33.5t58.5 34.5q7 3 21.5 11t26.5 13t24 7q16 5 36 2q18 -2 35 -8t27 -11.5t26.5 -16.5t24.5 -15q10 -6 56 -29t64 -39.5t21 -38.5q1 -15 -0.5 -39.5t-1.5 -34.5q0 -65 -32 -69q-17 -3 -36 4t-45 23l-26 16q-52 33 -53 33q-7 3 -20.5 10.5t-18 9.5t-15 5t-18 2 t-19 -4t-26.5 -9q-21 -8 -30 -12.5t-20.5 -12t-27.5 -16.5q-5 -3 -19 -12t-24 -15t-26.5 -13.5t-27 -6.5t-24.5 6q-10 6 -13.5 17t-3 28t0.5 20q0 25 -1.5 46zM561 793q0 -24 8 -39.5t25.5 -22t33 -8.5t40.5 -2q45 0 64.5 14t19.5 56q0 49 -30 126.5t-69 77.5q-36 0 -64 -78 t-28 -124z" />
<glyph unicode="&#xc3;" horiz-adv-x="1345" d="M29 55q0 22 5.5 50.5t17 64.5t20 61t23 64.5t18.5 50.5q37 108 88 318t61 247q69 253 117 447q1 3 3 14t3 15t3.5 13.5t4.5 14.5t5.5 13t7 13.5t8 11.5t10.5 11q31 27 100 27q44 0 132 -1t132 -1q21 0 39 -7.5t32.5 -25t25 -32t21.5 -42t16.5 -41t14.5 -44t11 -35.5 q6 -20 20.5 -60.5t20.5 -60.5q130 -423 146 -479q6 -20 25.5 -74.5t27.5 -85.5q5 -20 17.5 -57t17.5 -56q26 -105 41 -145q39 -103 39 -166v-8q-4 -70 -115 -70q-38 0 -113.5 -2t-113.5 -2q-55 0 -82 29q-36 38 -58 146t-43 144q-16 27 -40 35t-62 8q-16 0 -46 -3t-46 -3 q-1 0 -25 -8q-7 -3 -13 -8.5t-10 -11t-8 -15.5t-6 -16t-5 -19t-4 -17.5t-3 -17.5t-2 -14q-12 -72 -35 -133q-3 -7 -8.5 -31t-13.5 -37.5t-25 -19.5q-38 -14 -92 -14q-20 0 -66 4q-49 4 -149 4q-35 0 -62.5 13.5t-27.5 43.5zM365 1686q0 65 13.5 96t65.5 55q49 20 75 25.5 t83 -0.5q16 -5 63.5 -30t75.5 -26q13 0 25.5 1t20.5 3t20.5 6.5t17.5 7l20 10l19 9.5q55 27 81.5 13.5t28 -53.5t-0.5 -91q-2 -27 -9.5 -45t-27.5 -39q-16 -17 -71.5 -38t-82.5 -25q-43 -5 -111.5 27t-105.5 32q-18 1 -67.5 -18t-71.5 -19q-25 0 -43 36t-18 63zM561 793 q0 -24 8 -39.5t25.5 -22t33 -8.5t40.5 -2q45 0 64.5 14t19.5 56q0 49 -30 126.5t-69 77.5q-36 0 -64 -78t-28 -124z" />
<glyph unicode="&#xc4;" horiz-adv-x="1345" d="M29 55q0 22 5.5 50.5t17 64.5t20 61t23 64.5t18.5 50.5q37 108 88 318t61 247q69 253 117 447q1 3 3 14t3 15t3.5 13.5t4.5 14.5t5.5 13t7 13.5t8 11.5t10.5 11q31 27 100 27q44 0 132 -1t132 -1q21 0 39 -7.5t32.5 -25t25 -32t21.5 -42t16.5 -41t14.5 -44t11 -35.5 q6 -20 20.5 -60.5t20.5 -60.5q130 -423 146 -479q6 -20 25.5 -74.5t27.5 -85.5q5 -20 17.5 -57t17.5 -56q26 -105 41 -145q39 -103 39 -166v-8q-4 -70 -115 -70q-38 0 -113.5 -2t-113.5 -2q-55 0 -82 29q-36 38 -58 146t-43 144q-16 27 -40 35t-62 8q-16 0 -46 -3t-46 -3 q-1 0 -25 -8q-7 -3 -13 -8.5t-10 -11t-8 -15.5t-6 -16t-5 -19t-4 -17.5t-3 -17.5t-2 -14q-12 -72 -35 -133q-3 -7 -8.5 -31t-13.5 -37.5t-25 -19.5q-38 -14 -92 -14q-20 0 -66 4q-49 4 -149 4q-35 0 -62.5 13.5t-27.5 43.5zM311.5 1789q0.5 5 0.5 22.5t2.5 24t6 20t9.5 19.5 t14.5 14t21 11t27.5 3q13 0 45.5 1.5t47.5 2t40.5 -1.5t48.5 -7q21 -4 29 -26t8 -62v-43q4 -26 1 -61t-21 -57q-12 -14 -29 -18.5t-46 -3.5t-34 1q-4 0 -21.5 -1.5t-27 -1.5t-27 0.5t-28.5 4t-23 8.5t-19.5 15t-10.5 24q-1 12 -7 31t-6 35q0 2 -1 21.5t-0.5 24.5zM561 793 q0 -24 8 -39.5t25.5 -22t33 -8.5t40.5 -2q45 0 64.5 14t19.5 56q0 49 -30 126.5t-69 77.5q-36 0 -64 -78t-28 -124zM723 1812.5q0 12.5 3.5 32.5t11.5 30.5t23 19t38 8.5q13 0 46 1.5t48 2t40.5 -1.5t49.5 -7q16 -3 25.5 -20.5t11.5 -34.5t3.5 -44t2.5 -32q4 -78 -31 -118 q-8 -11 -22.5 -16t-26.5 -5.5t-31.5 0t-27.5 0.5q-4 0 -21.5 -1.5t-26.5 -1.5t-26 0.5t-27.5 4t-23 8.5t-20 15t-11.5 24q-1 9 -3.5 29t-2.5 37q0 9 -1 33t-1 36.5z" />
<glyph unicode="&#xc5;" horiz-adv-x="1345" d="M29 55q0 22 5.5 50.5t17 64.5t20 61t23 64.5t18.5 50.5q37 108 88 318t61 247q69 253 117 447q1 3 3 14t3 15t3.5 13.5t4.5 14.5t5.5 13t7 13.5t8 11.5t10.5 11q31 27 100 27q44 0 132 -1t132 -1q21 0 39 -7.5t32.5 -25t25 -32t21.5 -42t16.5 -41t14.5 -44t11 -35.5 q6 -20 20.5 -60.5t20.5 -60.5q130 -423 146 -479q6 -20 25.5 -74.5t27.5 -85.5q5 -20 17.5 -57t17.5 -56q26 -105 41 -145q39 -103 39 -166v-8q-4 -70 -115 -70q-38 0 -113.5 -2t-113.5 -2q-55 0 -82 29q-36 38 -58 146t-43 144q-16 27 -40 35t-62 8q-16 0 -46 -3t-46 -3 q-1 0 -25 -8q-7 -3 -13 -8.5t-10 -11t-8 -15.5t-6 -16t-5 -19t-4 -17.5t-3 -17.5t-2 -14q-12 -72 -35 -133q-3 -7 -8.5 -31t-13.5 -37.5t-25 -19.5q-38 -14 -92 -14q-20 0 -66 4q-49 4 -149 4q-35 0 -62.5 13.5t-27.5 43.5zM435 1734.5q-6 85.5 42 149.5q23 37 73.5 58.5 t102.5 17.5q78 -4 129 -39q41 -25 62.5 -71t21.5 -93q0 -71 -32 -117.5t-99 -76.5q-56 -20 -121 -12t-108 44q-65 54 -71 139.5zM561 793q0 -24 8 -39.5t25.5 -22t33 -8.5t40.5 -2q45 0 64.5 14t19.5 56q0 49 -30 126.5t-69 77.5q-36 0 -64 -78t-28 -124zM575.5 1742 q3.5 -14 10.5 -26q19 -26 47.5 -33.5t53 5t32.5 38.5q6 21 4.5 39t-18.5 39q-18 20 -54.5 21t-54.5 -17q-15 -14 -19.5 -33t-1 -33z" />
<glyph unicode="&#xc7;" horiz-adv-x="1196" d="M102 1061q35 164 144 275t268 151q82 21 164 22.5t164 -22.5t137 -76q18 -17 39 -41.5t42 -59.5t33 -68t8 -66.5t-30 -55.5q-16 -15 -45 -33.5t-41 -27.5q-29 -24 -68.5 -44.5t-70.5 -21.5q-23 -1 -41 12t-29.5 28.5t-37 29t-62.5 14.5q-38 0 -60 -10q-50 -24 -79 -78 q-27 -48 -39 -139q-12 -69 -1.5 -168t44.5 -160q30 -53 81.5 -72.5t101.5 -0.5t77 71q6 11 21 16.5t23 6t29 0.5q35 -1 75 -9t82 -23.5t67.5 -45.5t21.5 -68q-14 -132 -108 -250q-74 -94 -185 -129t-237 -14q-112 16 -203 66q-72 39 -130.5 103t-94.5 140q-139 276 -60 748z M496 -350q0 10 2.5 19.5t5.5 20.5t4 15q2 13 10.5 36t16.5 30q15 7 43 5.5t32 0.5q28 7 40 28q9 18 -15 23h-2q-14 4 -31.5 3.5t-28.5 2.5q-21 3 -28 22t-2 35q45 62 55 82q2 5 6.5 17.5t7.5 20t10.5 18t16.5 18.5q11 17 76 12q24 0 30 -8h3q7 -11 -3 -47q0 -3 -4 -13 t-7 -20.5t-5 -21.5t0 -18.5t10 -8.5q51 -6 72.5 -57t7.5 -98q-15 -61 -79 -104.5t-130 -41.5q-94 0 -108 14q-6 5 -6 15z" />
<glyph unicode="&#xc8;" horiz-adv-x="1173" d="M109 123q-14 213 0.5 615.5t9.5 574.5q-3 91 26.5 136.5t88.5 52t145 -4.5q27 -3 59.5 -4t55.5 -1t60.5 0.5t57.5 0.5q29 -1 118.5 7.5t162.5 7t113 -22.5q30 -15 45 -48.5t14 -68t-2 -70.5q0 -11 0.5 -35.5t0.5 -41t-3 -38.5t-9.5 -37t-20.5 -28.5t-34 -19.5t-43.5 -7.5 t-58.5 0t-45 1.5q-30 0 -84 2t-97.5 2t-82.5 -4q-54 -6 -54 -58q0 -6 0.5 -29.5t1.5 -37t6.5 -30.5t16.5 -26q15 -13 38.5 -17.5t64.5 -4.5h42q14 -1 66 0.5t66 -2.5q36 -3 48.5 -26.5t12.5 -65.5q0 -16 3 -49t4.5 -58t-2.5 -52.5t-20 -45t-46 -23.5q-19 -8 -91.5 -1.5 t-91.5 5.5q-3 0 -27 1t-34.5 0t-28 -5t-26.5 -13.5t-11 -25.5q-3 -26 -4.5 -59.5t11.5 -65.5t38 -38q104 -20 217 -17q10 0 39 0.5t44.5 0t39.5 -2t43.5 -6t36.5 -12.5q43 -20 59 -53t19 -91q0 -8 1.5 -33.5t1.5 -35t-2.5 -30t-8 -32t-17 -25t-28.5 -22.5 q-31 -19 -78.5 -21.5t-81.5 3.5q-88 5 -395 10q-78 3 -156 0q-83 -4 -113 4q-76 19 -81 121zM338 1827q0 86 78 86q10 0 49 2.5t63 -0.5t45 -14q22 -12 39 -36t34.5 -59.5t25.5 -48.5q39 -67 55 -123q15 -57 -51 -61q-20 -2 -54 -1.5t-44 3.5q-10 2 -19.5 6t-19.5 11.5 t-15.5 12t-17 15.5t-14.5 14q-11 10 -38.5 39t-45.5 43q-70 55 -70 111z" />
<glyph unicode="&#xc9;" horiz-adv-x="1173" d="M109 123q-14 213 0.5 615.5t9.5 574.5q-3 91 26.5 136.5t88.5 52t145 -4.5q27 -3 59.5 -4t55.5 -1t60.5 0.5t57.5 0.5q29 -1 118.5 7.5t162.5 7t113 -22.5q30 -15 45 -48.5t14 -68t-2 -70.5q0 -11 0.5 -35.5t0.5 -41t-3 -38.5t-9.5 -37t-20.5 -28.5t-34 -19.5t-43.5 -7.5 t-58.5 0t-45 1.5q-30 0 -84 2t-97.5 2t-82.5 -4q-54 -6 -54 -58q0 -6 0.5 -29.5t1.5 -37t6.5 -30.5t16.5 -26q15 -13 38.5 -17.5t64.5 -4.5h42q14 -1 66 0.5t66 -2.5q36 -3 48.5 -26.5t12.5 -65.5q0 -16 3 -49t4.5 -58t-2.5 -52.5t-20 -45t-46 -23.5q-19 -8 -91.5 -1.5 t-91.5 5.5q-3 0 -27 1t-34.5 0t-28 -5t-26.5 -13.5t-11 -25.5q-3 -26 -4.5 -59.5t11.5 -65.5t38 -38q104 -20 217 -17q10 0 39 0.5t44.5 0t39.5 -2t43.5 -6t36.5 -12.5q43 -20 59 -53t19 -91q0 -8 1.5 -33.5t1.5 -35t-2.5 -30t-8 -32t-17 -25t-28.5 -22.5 q-31 -19 -78.5 -21.5t-81.5 3.5q-88 5 -395 10q-78 3 -156 0q-83 -4 -113 4q-76 19 -81 121zM444 1640q15 53 56 123q9 13 25.5 48t33.5 59.5t39 36.5q16 9 37.5 12.5t38 3t43 -2t39.5 -1.5q35 0 56.5 -21.5t21.5 -64.5q0 -56 -70 -111q-18 -14 -45.5 -43t-38.5 -39 q-3 -3 -14.5 -14t-17 -15.5t-15.5 -12t-19.5 -11.5t-19.5 -6q-10 -3 -44 -3.5t-54 1.5q-67 4 -52 61z" />
<glyph unicode="&#xca;" horiz-adv-x="1173" d="M109 123q-14 213 0.5 615.5t9.5 574.5q-3 91 26.5 136.5t88.5 52t145 -4.5q27 -3 59.5 -4t55.5 -1t60.5 0.5t57.5 0.5q29 -1 118.5 7.5t162.5 7t113 -22.5q30 -15 45 -48.5t14 -68t-2 -70.5q0 -11 0.5 -35.5t0.5 -41t-3 -38.5t-9.5 -37t-20.5 -28.5t-34 -19.5t-43.5 -7.5 t-58.5 0t-45 1.5q-30 0 -84 2t-97.5 2t-82.5 -4q-54 -6 -54 -58q0 -6 0.5 -29.5t1.5 -37t6.5 -30.5t16.5 -26q15 -13 38.5 -17.5t64.5 -4.5h42q14 -1 66 0.5t66 -2.5q36 -3 48.5 -26.5t12.5 -65.5q0 -16 3 -49t4.5 -58t-2.5 -52.5t-20 -45t-46 -23.5q-19 -8 -91.5 -1.5 t-91.5 5.5q-3 0 -27 1t-34.5 0t-28 -5t-26.5 -13.5t-11 -25.5q-3 -26 -4.5 -59.5t11.5 -65.5t38 -38q104 -20 217 -17q10 0 39 0.5t44.5 0t39.5 -2t43.5 -6t36.5 -12.5q43 -20 59 -53t19 -91q0 -8 1.5 -33.5t1.5 -35t-2.5 -30t-8 -32t-17 -25t-28.5 -22.5 q-31 -19 -78.5 -21.5t-81.5 3.5q-88 5 -395 10q-78 3 -156 0q-83 -4 -113 4q-76 19 -81 121zM311.5 1688q-1.5 21 10.5 43t40 38q12 7 56.5 33.5t58.5 34.5q7 3 21.5 11t26.5 13t24 7q16 5 37 2q23 -3 40 -9.5t43 -23t29 -18.5q11 -6 56.5 -29t64 -39.5t21.5 -38.5 q1 -15 -0.5 -39.5t-1.5 -34.5q0 -65 -33 -69q-17 -3 -36 4t-45 23l-26 16q-52 33 -53 33q-7 3 -20.5 10.5t-18 9.5t-15 5t-18 2t-19 -4t-26.5 -9q-21 -8 -30 -12.5t-20 -12t-27 -16.5q-5 -3 -19 -12t-24 -15t-26.5 -13.5t-27 -6.5t-24.5 6q-10 6 -14 19t-3 24.5t0 21.5 q0 25 -1.5 46z" />
<glyph unicode="&#xcb;" horiz-adv-x="1173" d="M109 123q-14 213 0.5 615.5t9.5 574.5q-3 91 26.5 136.5t88.5 52t145 -4.5q27 -3 59.5 -4t55.5 -1t60.5 0.5t57.5 0.5q29 -1 118.5 7.5t162.5 7t113 -22.5q30 -15 45 -48.5t14 -68t-2 -70.5q0 -11 0.5 -35.5t0.5 -41t-3 -38.5t-9.5 -37t-20.5 -28.5t-34 -19.5t-43.5 -7.5 t-58.5 0t-45 1.5q-30 0 -84 2t-97.5 2t-82.5 -4q-54 -6 -54 -58q0 -6 0.5 -29.5t1.5 -37t6.5 -30.5t16.5 -26q15 -13 38.5 -17.5t64.5 -4.5h42q14 -1 66 0.5t66 -2.5q36 -3 48.5 -26.5t12.5 -65.5q0 -16 3 -49t4.5 -58t-2.5 -52.5t-20 -45t-46 -23.5q-19 -8 -91.5 -1.5 t-91.5 5.5q-3 0 -27 1t-34.5 0t-28 -5t-26.5 -13.5t-11 -25.5q-3 -26 -4.5 -59.5t11.5 -65.5t38 -38q104 -20 217 -17q10 0 39 0.5t44.5 0t39.5 -2t43.5 -6t36.5 -12.5q43 -20 59 -53t19 -91q0 -8 1.5 -33.5t1.5 -35t-2.5 -30t-8 -32t-17 -25t-28.5 -22.5 q-31 -19 -78.5 -21.5t-81.5 3.5q-88 5 -395 10q-78 3 -156 0q-83 -4 -113 4q-76 19 -81 121zM217.5 1789q0.5 5 0.5 22.5t2.5 24t6 20t9.5 19.5t14.5 14t21 11t27.5 3q13 0 45.5 1.5t47.5 2t40.5 -1.5t48.5 -7q21 -4 29 -26t8 -62v-43q4 -26 1 -61t-21 -57 q-12 -14 -29 -18.5t-46 -3.5t-34 1q-4 0 -21.5 -1.5t-27.5 -1.5t-27.5 0.5t-28.5 4t-23 8.5t-19.5 15t-10.5 24q-1 12 -6.5 31t-5.5 35q0 2 -1 21.5t-0.5 24.5zM629 1812.5q0 12.5 3.5 32.5t11.5 30.5t23 19t38 8.5q13 0 46 1.5t48 2t40.5 -1.5t49.5 -7q16 -3 25.5 -20.5 t11.5 -34.5t3.5 -44t2.5 -32q4 -78 -31 -118q-8 -11 -22.5 -16t-26.5 -5.5t-31.5 0t-27.5 0.5q-4 0 -21.5 -1.5t-26.5 -1.5t-26 0.5t-27.5 4t-23 8.5t-20 15t-11.5 24q-1 9 -3.5 29t-2.5 37q0 9 -1 33t-1 36.5z" />
<glyph unicode="&#xcc;" horiz-adv-x="659" d="M59 1827q0 86 78 86q13 0 39.5 1.5t43 2t38 -3t37.5 -12.5q22 -12 39 -36.5t33.5 -59.5t25.5 -48q41 -70 56 -123q15 -57 -52 -61q-20 -2 -54 -1.5t-44 3.5q-10 2 -19.5 6t-19.5 11.5t-15.5 12t-17 15.5t-14.5 14q-11 10 -38.5 39t-45.5 43q-70 55 -70 111zM133 209.5 q1 33.5 8 99.5q1 16 2 23q8 124 7 196.5t-5.5 198t-3.5 197.5q2 148 -2 473q0 35 11.5 60t35 38t48 20t62 7t63 -2t65 -6t55.5 -5q42 0 69 -18t37.5 -43.5t13 -64t-1 -71.5t-7.5 -75.5t-4 -65.5q0 -83 -2.5 -255t-3 -273.5t2 -247t9.5 -268.5q2 -36 -8 -62.5t-32.5 -40.5 t-47.5 -22t-61 -9.5t-65 -0.5t-67.5 2.5t-60.5 1.5q-50 0 -78.5 29t-34 90t-4.5 94.5z" />
<glyph unicode="&#xcd;" horiz-adv-x="659" d="M84 209.5q1 33.5 8 99.5q1 16 2 23q8 124 7 196.5t-5.5 198t-3.5 197.5q2 148 -2 473q0 35 11.5 60t35 38t48 20t62 7t63 -2t65 -6t55.5 -5q42 0 69 -18t37.5 -43.5t13 -64t-1 -71.5t-7.5 -75.5t-4 -65.5q0 -83 -2.5 -255t-3 -273.5t2 -247t9.5 -268.5q2 -36 -8 -62.5 t-32.5 -40.5t-47.5 -22t-61 -9.5t-65 -0.5t-67.5 2.5t-60.5 1.5q-50 0 -78.5 29t-34 90t-4.5 94.5zM188 1640q15 53 56 123q9 13 25.5 48t33.5 59.5t39 36.5q16 9 37.5 12.5t38 3t43 -2t39.5 -1.5q35 0 56.5 -21.5t21.5 -64.5q0 -56 -70 -111q-18 -14 -45.5 -43t-38.5 -39 q-3 -3 -14.5 -14t-17 -15.5t-15.5 -12t-19.5 -11.5t-19.5 -6q-10 -3 -44 -3.5t-54 1.5q-67 4 -52 61z" />
<glyph unicode="&#xce;" horiz-adv-x="659" d="M64.5 1688q-1.5 21 10.5 43t40 38q14 8 57 34t57 34q7 3 21.5 11t26.5 13t24 7q16 5 37 2q18 -2 35 -8t27 -11.5t26.5 -16.5t24.5 -15q10 -6 56 -29t64 -39.5t21 -38.5q1 -15 -0.5 -39.5t-1.5 -34.5q0 -65 -33 -69q-17 -3 -36 4t-44 23t-26 16q-51 32 -54 33 q-7 4 -20 10.5l-18 9t-15 5.5t-17.5 2t-19 -4t-26.5 -9q-21 -8 -30 -12.5t-20.5 -12t-27.5 -16.5q-5 -3 -19 -12t-24 -15t-26.5 -13.5t-27 -6.5t-24.5 6q-10 6 -13.5 17t-3 28t0.5 20q0 25 -1.5 46zM99 207.5q1 31.5 8 100.5q1 17 2 24q8 123 7 196t-6 198t-4 198 q2 148 -2 473q0 35 11.5 60t35 38t48 20t62 7t63 -2t65 -6t55.5 -5q42 0 69 -18t37.5 -43.5t13 -64t-1 -71.5t-7.5 -75.5t-4 -65.5q0 -83 -2.5 -255t-3 -273.5t2 -247t9.5 -268.5q2 -36 -8 -62.5t-32.5 -40.5t-47.5 -22t-61 -9.5t-65 -0.5t-67.5 2.5t-60.5 1.5 q-50 0 -78 28.5t-33.5 90t-4.5 93z" />
<glyph unicode="&#xcf;" horiz-adv-x="659" d="M-28.5 1789q0.5 5 0.5 22.5t2.5 24t6 20t9.5 19.5t14.5 14t21 11t27.5 3q12 0 45 1.5t48 2t41 -1.5t49 -7q21 -4 28.5 -26.5t7.5 -62v-42.5q4 -26 1 -61t-21 -57q-12 -14 -29 -18.5t-46 -3.5t-34 1q-4 0 -21.5 -1.5t-27 -1.5t-27 0.5t-28.5 4t-23 8.5t-19.5 15t-10.5 24 q-1 12 -7 31t-6 35q0 2 -1 21.5t-0.5 24.5zM99 207.5q1 31.5 8 100.5q1 17 2 24q8 123 7 196t-6 198t-4 198q2 148 -2 473q0 35 11.5 60t35 38t48 20t62 7t63 -2t65 -6t55.5 -5q42 0 69 -18t37.5 -43.5t13 -64t-1 -71.5t-7.5 -75.5t-4 -65.5q0 -83 -2.5 -255t-3 -273.5 t2 -247t9.5 -268.5q2 -36 -8 -62.5t-32.5 -40.5t-47.5 -22t-61 -9.5t-65 -0.5t-67.5 2.5t-60.5 1.5q-50 0 -78 28.5t-33.5 90t-4.5 93zM383 1812.5q0 12.5 3.5 32.5t11.5 30.5t23 19t38 8.5q13 0 46 1.5t48 2t40.5 -1.5t49.5 -7q16 -3 25.5 -20.5t11.5 -34.5t3.5 -44 t2.5 -32q4 -78 -31 -118q-8 -11 -22.5 -16t-26.5 -5.5t-31.5 0t-27.5 0.5q-4 0 -21.5 -1.5t-26.5 -1.5t-26 0.5t-27.5 4t-23 8.5t-20 15t-11.5 24q-1 9 -3.5 29t-2.5 37q0 9 -1 33t-1 36.5z" />
<glyph unicode="&#xd0;" horiz-adv-x="1241" d="M-35 692v88q0 51 25 58q66 11 167.5 12t233 -3.5t178.5 -4.5q2 0 19 -0.5t28.5 -3.5t16.5 -11q4 -6 6 -16t2.5 -16t0 -19t-0.5 -16q0 -11 1.5 -36.5t1.5 -45.5t-3 -35q-2 -9 -8 -16t-11.5 -10t-16.5 -5t-15 -2h-18h-13h-276q-11 0 -32 0.5t-38.5 0.5t-32.5 -1h-71 q-3 0 -26 -0.5t-34.5 0t-28.5 3t-26 8.5q-29 18 -29 71zM109 1360q0 43 8 76q23 77 184 77q35 0 105.5 -4t105.5 -4h39q113 0 214 -26t187 -78t140 -141.5t61 -206.5q8 -128 8 -289q0 -110 -1.5 -171t-12 -154t-31.5 -167q-18 -64 -56.5 -112t-85.5 -76.5t-109 -46.5 t-117.5 -24.5t-122.5 -8.5q-26 -1 -107.5 -4.5t-126.5 -3.5q-46 0 -69 2q-23 0 -46.5 0.5t-46 1t-41.5 6.5t-33.5 16.5t-23 31.5t-8.5 52q0 77 0.5 279t0.5 308.5t-2.5 270t-8.5 298.5q-4 66 -4 98zM504 905q0 -99 4 -291q4 -94 4 -139q0 -9 -1 -26.5t-1 -26.5 q0 -33 11.5 -47.5t43.5 -14.5q102 0 144 80q1 1 2 4.5t2 4.5q20 48 20 141q0 27 1 84t1 86q0 136 -18 239q-25 140 -142 140q-46 0 -58.5 -13.5t-12.5 -60.5v-160z" />
<glyph unicode="&#xd1;" horiz-adv-x="1390" d="M115 1116v180q0 23 0.5 37t2.5 38t6 39t12 34t19.5 29.5t29 18.5t40.5 9q34 1 100.5 4t100.5 4q8 0 24 1t23 1q23 0 33 -6q8 -5 16 -11.5t15.5 -17t12 -16.5t12 -21.5t9.5 -19t9 -21.5l8 -18q86 -194 139 -303q3 -7 16 -31.5t19 -39.5q2 -4 7.5 -23t11 -34t13.5 -32.5 t17.5 -27.5t19.5 -10q6 0 10 2.5t6.5 8t4 10t2 13t0.5 13v13v9.5q0 13 -1 41t-1 43q0 158 -4 236q-1 14 -4.5 59t-3.5 70q0 100 63 114q53 13 158 13q51 0 79.5 -2.5t57.5 -11.5t43 -28t22.5 -51t8.5 -81q0 -27 -1 -79t-1 -77q0 -46 1 -139.5t1 -139.5q0 -69 -1 -206 t-1 -205q0 -58 3 -172t3 -172q0 -91 -31.5 -134.5t-118.5 -43.5q-20 0 -58 1t-58 1q-12 0 -38 -2t-38 -2q-71 0 -96 47q-21 39 -60 137q-21 53 -65 151q-9 19 -35 70t-37 80q-5 13 -13.5 40t-17 48.5t-20.5 36.5q-14 14 -23 14q-22 0 -22 -61q0 -25 3 -78t3 -78v-156 q1 -18 4.5 -73.5t3.5 -85.5q0 -56 -25 -73t-83 -17q-13 0 -40 2t-40 2q-23 0 -71.5 -2t-72.5 -2q-32 0 -53 6t-32 13.5t-16 29t-6 36.5t-1 52q0 29 3 90t3 90q0 22 -1 67t-1 68v258q0 72 -4 213t-4 211zM391 1686q0 65 14 95.5t66 55.5q49 20 75 25.5t83 -0.5 q16 -5 63.5 -30t75.5 -26q13 0 25.5 1t20.5 3t20.5 6.5t17.5 7l20 10l19 9.5q42 20 67 17.5t33 -24t10 -54t-2 -70.5q-2 -27 -9 -45t-27 -39q-16 -17 -71.5 -38t-82.5 -25q-43 -5 -111.5 27t-105.5 32q-18 1 -67.5 -18t-71.5 -19q-25 0 -43.5 36t-18.5 63z" />
<glyph unicode="&#xd2;" horiz-adv-x="1294" d="M92 928q8 -180 8 -441q0 -206 90 -329q67 -88 183 -131t286 -54q127 -6 259.5 51t195.5 160q36 61 55.5 142t23 142t3.5 155q0 37 2.5 125.5t1.5 142t-6 128.5t-21 138.5t-43 118.5q-33 67 -92 115.5t-133 74t-145 38t-150 14.5q-106 5 -221 -32t-188 -108 q-65 -63 -89 -193t-20 -257zM352 1827q0 86 78 86q13 0 39.5 1.5t43 2t38 -3t37.5 -12.5q22 -12 39 -36.5t33.5 -59.5t25.5 -48q39 -67 55 -123q15 -57 -51 -61q-20 -2 -54 -1.5t-44 3.5q-10 2 -19.5 6t-19.5 11.5t-15.5 12t-17 15.5t-14.5 14q-11 10 -38.5 39t-45.5 43 q-70 55 -70 111zM502 524q4 248 0 496q0 42 22 76t62 51q60 23 118 -16t66 -99q24 -167 18 -315q-1 -19 -2.5 -72.5t-4.5 -95t-9 -76.5q-9 -64 -70 -106q-52 -31 -97 -21t-75 59.5t-28 118.5z" />
<glyph unicode="&#xd3;" horiz-adv-x="1294" d="M92 928q8 -180 8 -441q0 -206 90 -329q67 -88 183 -131t286 -54q127 -6 259.5 51t195.5 160q36 61 55.5 142t23 142t3.5 155q0 37 2.5 125.5t1.5 142t-6 128.5t-21 138.5t-43 118.5q-33 67 -92 115.5t-133 74t-145 38t-150 14.5q-106 5 -221 -32t-188 -108 q-65 -63 -89 -193t-20 -257zM502 524q4 248 0 496q0 42 22 76t62 51q60 23 118 -16t66 -99q24 -167 18 -315q-1 -19 -2.5 -72.5t-4.5 -95t-9 -76.5q-9 -64 -70 -106q-52 -31 -97 -21t-75 59.5t-28 118.5zM518 1640q16 56 55 123q8 13 25.5 48.5t34.5 59.5t39 36q21 11 45 14 t63 0.5t49 -2.5q35 0 56.5 -21.5t21.5 -64.5q0 -57 -69 -111q-18 -14 -45.5 -43t-38.5 -39q-3 -3 -14.5 -14t-17 -15.5t-15.5 -12t-19.5 -11.5t-19.5 -6q-10 -3 -44.5 -3.5t-54.5 1.5q-66 4 -51 61z" />
<glyph unicode="&#xd4;" horiz-adv-x="1294" d="M92 928q8 -180 8 -441q0 -206 90 -329q67 -88 183 -131t286 -54q127 -6 259.5 51t195.5 160q36 61 55.5 142t23 142t3.5 155q0 37 2.5 125.5t1.5 142t-6 128.5t-21 138.5t-43 118.5q-33 67 -92 115.5t-133 74t-145 38t-150 14.5q-106 5 -221 -32t-188 -108 q-65 -63 -89 -193t-20 -257zM385.5 1688q-1.5 21 10.5 43t40 38q12 7 56.5 33.5t58.5 34.5q7 3 21.5 11t26.5 13t24 7q16 5 36 2q18 -2 35 -8t27 -11.5t26.5 -16.5t24.5 -15q10 -6 56 -29t64 -39.5t21 -38.5q1 -15 -0.5 -39.5t-1.5 -34.5q0 -65 -32 -69q-17 -3 -36 4t-45 23 l-26 16q-52 33 -53 33q-7 3 -20.5 10.5t-18 9.5t-15 5t-18 2t-19 -4t-26.5 -9q-21 -8 -30 -12.5t-20.5 -12t-27.5 -16.5q-5 -3 -19 -12t-24 -15t-26.5 -13.5t-27 -6.5t-24.5 6q-10 6 -13.5 17t-3 28t0.5 20q0 25 -1.5 46zM502 524q4 248 0 496q0 42 22 76t62 51 q60 23 118 -16t66 -99q24 -167 18 -315q-1 -19 -2.5 -72.5t-4.5 -95t-9 -76.5q-9 -64 -70 -106q-52 -31 -97 -21t-75 59.5t-28 118.5z" />
<glyph unicode="&#xd5;" horiz-adv-x="1294" d="M92 928q8 -180 8 -441q0 -206 90 -329q67 -88 183 -131t286 -54q127 -6 259.5 51t195.5 160q36 61 55.5 142t23 142t3.5 155q0 37 2.5 125.5t1.5 142t-6 128.5t-21 138.5t-43 118.5q-33 67 -92 115.5t-133 74t-145 38t-150 14.5q-106 5 -221 -32t-188 -108 q-65 -63 -89 -193t-20 -257zM344 1686q0 65 14 95.5t66 55.5q49 20 75 25.5t83 -0.5q16 -5 63.5 -30t75.5 -26q13 0 25.5 1t20.5 3t20.5 6.5t17.5 7l20 10l19 9.5q42 20 67 17.5t33 -24t10 -54t-2 -70.5q-2 -27 -9.5 -45t-27.5 -39q-16 -17 -71 -38t-82 -25 q-43 -5 -111.5 27t-105.5 32q-18 1 -67.5 -18t-71.5 -19q-25 0 -43.5 36t-18.5 63zM502 524q4 248 0 496q0 42 22 76t62 51q60 23 118 -16t66 -99q24 -167 18 -315q-1 -19 -2.5 -72.5t-4.5 -95t-9 -76.5q-9 -64 -70 -106q-52 -31 -97 -21t-75 59.5t-28 118.5z" />
<glyph unicode="&#xd6;" horiz-adv-x="1294" d="M92 928q8 -180 8 -441q0 -206 90 -329q67 -88 183 -131t286 -54q127 -6 259.5 51t195.5 160q36 61 55.5 142t23 142t3.5 155q0 37 2.5 125.5t1.5 142t-6 128.5t-21 138.5t-43 118.5q-33 67 -92 115.5t-133 74t-145 38t-150 14.5q-106 5 -221 -32t-188 -108 q-65 -63 -89 -193t-20 -257zM270.5 1789q0.5 5 0.5 22.5t2.5 24t6 20t9.5 19.5t14.5 14t21 11t27.5 3q12 0 45 1.5t48 2t41 -1.5t49 -7q21 -4 28.5 -26.5t7.5 -62v-42.5q4 -26 1 -61t-21 -57q-12 -14 -29 -18.5t-46 -3.5t-34 1q-4 0 -21.5 -1.5t-27 -1.5t-27 0.5t-28.5 4 t-23 8.5t-19.5 15t-10.5 24q-1 12 -7 31t-6 35q0 2 -1 21.5t-0.5 24.5zM502 524q4 248 0 496q0 42 22 76t62 51q60 23 118 -16t66 -99q24 -167 18 -315q-1 -19 -2.5 -72.5t-4.5 -95t-9 -76.5q-9 -64 -70 -106q-52 -31 -97 -21t-75 59.5t-28 118.5zM682 1812.5 q0 12.5 3.5 32.5t11.5 30.5t23 19t38 8.5q13 0 46 1.5t48 2t40.5 -1.5t49.5 -7q16 -3 25.5 -20.5t11.5 -34.5t3.5 -44t2.5 -32q4 -78 -31 -118q-8 -11 -22.5 -16t-26.5 -5.5t-31.5 0t-27.5 0.5q-4 0 -21.5 -1.5t-26.5 -1.5t-26 0.5t-27.5 4t-23 8.5t-20 15t-11.5 24 q-1 9 -3.5 29t-2.5 37q0 9 -1 33t-1 36.5z" />
<glyph unicode="&#xd7;" horiz-adv-x="894" d="M53.5 869q0.5 9 7.5 18q13 13 49.5 47.5t55.5 54.5q14 14 37.5 39.5t36.5 38.5q18 15 43 -4q21 -15 59 -57q30 -30 51 -54q1 -1 9 -9.5t14.5 -14.5t15 -13.5t15.5 -10t12 0.5q12 7 33.5 29.5t25.5 26.5q16 15 42 42t32 33l7 7l7.5 7.5t7.5 6.5t8 6t7.5 3.5t8.5 1 t8.5 -2.5t8.5 -6q22 -17 68 -70q11 -11 61 -57q1 -1 15.5 -14t21.5 -20.5t12.5 -20.5t2.5 -23q-4 -10 -15 -21t-25.5 -23t-19.5 -17q-60 -51 -76 -70l-8.5 -8.5t-9 -10t-7 -11t-3.5 -12t2 -13.5q2 -7 15.5 -18.5t15.5 -14.5q4 -4 20 -19t21.5 -20t18.5 -18.5t20.5 -22 t18 -21.5t19.5 -26q8 -11 8.5 -22t-2 -18t-13.5 -18.5t-15 -14.5t-19 -15q-15 -13 -94 -98q-12 -12 -16.5 -16t-16 -11.5t-22 -6.5t-21.5 9q-7 5 -19 16t-15 13q-50 42 -109 108q0 1 -4.5 6.5t-5 6t-5.5 4.5t-6.5 2.5t-7.5 -0.5q-6 -2 -12 -7t-12.5 -13t-9.5 -11 q-7 -7 -22 -22.5t-22 -22.5q-38 -47 -79 -66q-18 -4 -29 -5t-25.5 9t-22.5 18t-20 21q-9 11 -21 23.5t-21 20.5t-24 22t-22 20q-45 39 -22 74l28 35q34 37 72 72q2 2 12 11t17.5 16t14 16.5t5.5 15.5q-1 8 -10 17.5t-25.5 22t-17.5 13.5q-13 15 -42.5 45.5t-43.5 44.5 q-10 9 -15 14t-11.5 14t-6 18z" />
<glyph unicode="&#xd8;" horiz-adv-x="1253" d="M39 -14q-2 16 4.5 37.5t13 34t22.5 37.5t19 30q2 3 12.5 16.5t15.5 21t9 20t2 22.5q-1 7 -4.5 14t-9.5 16t-8 13q-10 16 -23 55q-7 24 -11.5 48.5t-7 55.5t-3.5 46.5t-1.5 56t-0.5 49.5q0 36 -2.5 223.5t0.5 223.5q4 113 23 201.5t71 150.5q63 72 166.5 109t212.5 40 q122 6 252 -26q6 -1 28 -9t35 -8q11 -2 25 21q15 25 31 39.5t40 21.5q40 11 109 4h22.5h27.5t22 -5.5t14 -16.5q4 -3 1.5 -17t-2.5 -18.5t-6 -18.5t-8 -18t-8.5 -17.5t-7.5 -15.5q-6 -14 -29 -55q-2 -4 -8 -14t-7 -13.5t-2 -11.5t2.5 -16t10.5 -19q53 -72 72 -207 q14 -93 14 -237q0 -76 -4 -232q0 -161 -16 -241q-25 -133 -88 -211q-50 -65 -152 -117q-175 -86 -420 -43q-88 13 -125 31q-3 1 -11.5 4.5t-11.5 4.5t-10 2.5t-11 1t-9 -2t-9 -6t-7 -10.5q-3 -5 -9 -17.5t-9.5 -18t-11 -13.5t-17.5 -13q-29 -14 -78 -14q-14 -1 -86 4 q-2 0 -10.5 2t-12 3t-9 3.5t-8 7t-3.5 11.5zM462 880q0 -9 1 -20.5t4.5 -20.5t9.5 -14q21 -21 54 36q0 2 1 3q46 90 56 107q3 4 30 45.5t39 64.5q31 60 -22 68q-45 7 -77 -2t-50 -28.5t-28.5 -53.5t-13.5 -66.5t-3 -78.5q0 -4 -0.5 -17.5t-0.5 -22.5zM543 440 q-37 -59 10 -78q56 -24 114 10.5t76 94.5q11 40 15 141q2 23 -0.5 66t-7.5 43q-15 22 -35 0.5t-33 -47.5q-45 -69 -78 -125q-10 -17 -30.5 -52.5t-30.5 -52.5z" />
<glyph unicode="&#xd9;" horiz-adv-x="1343" d="M111 1217q0 161 2 194q0 48 8 66q9 20 34 27t70.5 5t46.5 -2h109q13 0 45 4t56.5 3t41.5 -11q16 -8 23 -29t7.5 -39.5t-1.5 -48t-2 -36.5q0 -20 3.5 -150t-1.5 -151q-16 -229 -8 -426q1 -24 3 -71t3 -71q0 -73 53 -112q67 -47 131 -17q62 33 72 115q11 110 8.5 177 t-10 180t-6.5 177q3 163 0 326q0 7 -2.5 42.5t-2 56.5t10 45t29.5 32t43 12.5t52 5t47.5 0.5t52.5 -1.5t44 -1.5q91 -5 121 -13q12 -4 20.5 -10t12.5 -11t5 -16.5t1 -16.5t-2 -21t-2 -21q-9 -136 -2 -470t4 -470q-6 -265 -128.5 -377t-375.5 -112q-329 0 -469 108 q-35 26 -60.5 60t-40.5 70.5t-25 77.5t-12.5 82t-4.5 84t0 83q3 300 -4 672zM395 1827q0 86 78 86q13 0 39.5 1.5t43 2t38 -3t37.5 -12.5q22 -12 39 -36.5t33.5 -59.5t25.5 -48q39 -67 55 -123q15 -57 -51 -61q-20 -2 -54 -1.5t-44 3.5q-10 2 -19.5 6t-19.5 11.5t-15.5 12 t-17 15.5t-14.5 14q-11 10 -38.5 39t-45.5 43q-70 55 -70 111z" />
<glyph unicode="&#xda;" horiz-adv-x="1343" d="M111 1217q0 161 2 194q0 48 8 66q9 20 34 27t70.5 5t46.5 -2h109q13 0 45 4t56.5 3t41.5 -11q16 -8 23 -29t7.5 -39.5t-1.5 -48t-2 -36.5q0 -20 3.5 -150t-1.5 -151q-16 -229 -8 -426q1 -24 3 -71t3 -71q0 -73 53 -112q67 -47 131 -17q62 33 72 115q11 110 8.5 177 t-10 180t-6.5 177q3 163 0 326q0 7 -2.5 42.5t-2 56.5t10 45t29.5 32t43 12.5t52 5t47.5 0.5t52.5 -1.5t44 -1.5q91 -5 121 -13q12 -4 20.5 -10t12.5 -11t5 -16.5t1 -16.5t-2 -21t-2 -21q-9 -136 -2 -470t4 -470q-6 -265 -128.5 -377t-375.5 -112q-329 0 -469 108 q-35 26 -60.5 60t-40.5 70.5t-25 77.5t-12.5 82t-4.5 84t0 83q3 300 -4 672zM584 1640q16 56 55 123q9 13 25.5 48t33.5 59.5t39 36.5q16 9 37.5 12.5t38 3t43 -2t39.5 -1.5q35 0 56.5 -21.5t21.5 -64.5q0 -56 -70 -111q-18 -14 -45.5 -43t-38.5 -39q-3 -3 -14.5 -14 t-17 -15.5t-15.5 -12t-19.5 -11.5t-19.5 -6q-10 -3 -44 -3.5t-54 1.5q-66 4 -51 61z" />
<glyph unicode="&#xdb;" horiz-adv-x="1343" d="M111 1217q0 161 2 194q0 48 8 66q9 20 34 27t70.5 5t46.5 -2h109q13 0 45 4t56.5 3t41.5 -11q16 -8 23 -29t7.5 -39.5t-1.5 -48t-2 -36.5q0 -20 3.5 -150t-1.5 -151q-16 -229 -8 -426q1 -24 3 -71t3 -71q0 -73 53 -112q67 -47 131 -17q62 33 72 115q11 110 8.5 177 t-10 180t-6.5 177q3 163 0 326q0 7 -2.5 42.5t-2 56.5t10 45t29.5 32t43 12.5t52 5t47.5 0.5t52.5 -1.5t44 -1.5q91 -5 121 -13q12 -4 20.5 -10t12.5 -11t5 -16.5t1 -16.5t-2 -21t-2 -21q-9 -136 -2 -470t4 -470q-6 -265 -128.5 -377t-375.5 -112q-329 0 -469 108 q-35 26 -60.5 60t-40.5 70.5t-25 77.5t-12.5 82t-4.5 84t0 83q3 300 -4 672zM410.5 1688q-1.5 21 10.5 43t40 38q14 8 57 34t57 34q7 3 21.5 11t26.5 13t24 7q16 5 37 2q18 -2 35 -8t27 -11.5t26.5 -16.5t24.5 -15q10 -6 56 -29t64 -39.5t21 -38.5q1 -15 -0.5 -39.5 t-1.5 -34.5q0 -65 -33 -69q-17 -3 -36 4t-44 23t-26 16q-51 32 -54 33q-7 4 -20 10.5l-18 9t-15 5.5t-17.5 2t-19 -4t-26.5 -9q-21 -8 -30 -12.5t-20.5 -12t-27.5 -16.5q-5 -3 -19 -12t-24 -15t-26.5 -13.5t-27 -6.5t-24.5 6q-10 6 -13.5 17t-3 28t0.5 20q0 25 -1.5 46z" />
<glyph unicode="&#xdc;" horiz-adv-x="1343" d="M111 1217q0 161 2 194q0 48 8 66q9 20 34 27t70.5 5t46.5 -2h109q13 0 45 4t56.5 3t41.5 -11q16 -8 23 -29t7.5 -39.5t-1.5 -48t-2 -36.5q0 -20 3.5 -150t-1.5 -151q-16 -229 -8 -426q1 -24 3 -71t3 -71q0 -73 53 -112q67 -47 131 -17q62 33 72 115q11 110 8.5 177 t-10 180t-6.5 177q3 163 0 326q0 7 -2.5 42.5t-2 56.5t10 45t29.5 32t43 12.5t52 5t47.5 0.5t52.5 -1.5t44 -1.5q91 -5 121 -13q12 -4 20.5 -10t12.5 -11t5 -16.5t1 -16.5t-2 -21t-2 -21q-9 -136 -2 -470t4 -470q-6 -265 -128.5 -377t-375.5 -112q-329 0 -469 108 q-35 26 -60.5 60t-40.5 70.5t-25 77.5t-12.5 82t-4.5 84t0 83q3 300 -4 672zM315.5 1789q0.5 5 0.5 22.5t2.5 24t6 20t9.5 19.5t14.5 14t21 11t27.5 3q12 0 45 1.5t48 2t41 -1.5t49 -7q21 -4 28.5 -26.5t7.5 -62v-42.5q4 -26 1 -61t-21 -57q-12 -14 -29 -18.5t-46 -3.5 t-34 1q-4 0 -21.5 -1.5t-27 -1.5t-27 0.5t-28.5 4t-23 8.5t-19.5 15t-10.5 24q-1 12 -7 31t-6 35q0 2 -1 21.5t-0.5 24.5zM727 1812.5q0 12.5 3.5 32.5t11.5 30.5t23 19t38 8.5q13 0 46 1.5t48 2t40.5 -1.5t49.5 -7q16 -3 25.5 -20.5t11.5 -34.5t3.5 -44t2.5 -32 q4 -78 -31 -118q-8 -11 -22.5 -16t-26.5 -5.5t-31.5 0t-27.5 0.5q-4 0 -21.5 -1.5t-26.5 -1.5t-26 0.5t-27.5 4t-23 8.5t-20 15t-11.5 24q-1 9 -3.5 29t-2.5 37q0 9 -1 33t-1 36.5z" />
<glyph unicode="&#xdd;" horiz-adv-x="1253" d="M18 1499q7 12 34.5 16t70.5 3.5t47 -0.5q141 18 254 -5q19 -4 33.5 -15t25.5 -34t14.5 -32.5t12.5 -38.5q65 -175 80 -236q1 -3 7 -26t11 -37.5t14 -34t20.5 -29.5t25.5 -10q15 1 25.5 13t13 18.5t6.5 21.5q27 105 71 287q2 8 7 32.5t10 42t13 38t20 33t28 14.5 q59 5 83.5 4.5t92.5 -5.5t99 -6q88 -4 111 -14q35 -16 32 -57q-5 -46 -23 -97.5t-44 -112t-37 -93.5q-6 -19 -14 -40.5t-18.5 -48t-15.5 -40.5q-40 -108 -90 -213q-18 -34 -86 -179q-35 -71 -38 -90.5t1 -111.5q4 -159 11 -271q8 -143 -37 -161q-10 -4 -25 -5t-36.5 0 t-26.5 1q-102 -3 -183 2q-13 1 -67.5 -2.5t-67.5 6.5q-22 8 -36.5 26t-21.5 35t-9.5 47t-1.5 46.5t3.5 49.5t2.5 41q5 69 -3 173t-9 145q0 25 -33 101t-84 180t-62 128q-30 69 -94 191t-92 203q-40 122 -25 147zM514 1640q16 56 55 123q8 13 25.5 48.5t34.5 59.5t39 36 q21 11 45 14t63 0.5t49 -2.5q35 0 56.5 -21.5t21.5 -64.5q0 -57 -69 -111q-18 -14 -45.5 -43t-38.5 -39q-3 -3 -14.5 -14t-17 -15.5t-15.5 -12t-19.5 -11.5t-19.5 -6q-10 -3 -44.5 -3.5t-54.5 1.5q-66 4 -51 61z" />
<glyph unicode="&#xde;" horiz-adv-x="1167" d="M96 125q0 170 3 529.5t3 529.5q0 24 -2 85t-2 85q0 38 1 57t6 41.5t14.5 31.5t28.5 18t45.5 11.5t66.5 2.5q23 0 61.5 2t59.5 3t48.5 -3t41.5 -14.5t24.5 -32.5t10.5 -56q0 -9 -3 -26.5t-3 -26.5q0 -14 7 -25.5t19 -11.5q4 0 12 3t13 3q228 0 341.5 -53t180.5 -205 q41 -94 41 -303q0 -173 -43 -293q-44 -123 -158 -200.5t-243 -77.5q-18 0 -69 3t-69 3q-36 0 -36 -41q0 -10 -1 -46t-1 -46q0 -33 -9 -54.5t-21 -31.5t-35 -14t-40.5 -3.5t-49.5 2.5t-50 2q-100 0 -118 3q-50 9 -65 56q-10 32 -10 93zM498 678q0 -71 8 -87q18 -29 84 -30 q41 0 69 15.5t42.5 36t22 57.5t8.5 62t1 69q0 72 -51 118t-123 46q-25 0 -42 -15t-17 -41q0 -40 -1 -115.5t-1 -115.5z" />
<glyph unicode="&#xdf;" horiz-adv-x="1224" d="M-35 -276q-4 129 8 186q4 20 17.5 33.5t35 27.5t31.5 23q17 16 28 41t14.5 59.5t4.5 58.5t-0.5 64t-1.5 49v359q-1 44 -4.5 116.5t-4 108.5t2.5 117q8 109 62 233q35 75 116 135q62 44 175 80q145 45 288.5 0.5t237.5 -162.5q129 -159 69 -379q-3 -11 -20 -40t-14 -50 q5 -19 33 -41t32 -26q32 -35 55 -82q41 -77 44 -209t-29 -211q-33 -91 -104 -147.5t-167 -77.5q-39 -7 -113.5 -9t-113.5 3q-57 7 -80 25t-26 79q0 7 -1.5 34.5t-1.5 43t1 42t6.5 42t14.5 32.5t26 24.5t39 6.5q16 0 49.5 -4.5t55 -5t47 4t41 23.5t22.5 52q7 46 -6.5 109 t-47.5 81q-22 12 -76 18t-79 21q-14 8 -22.5 21.5t-11 32t-3 32.5t0.5 37t1 31q0 29 12 52t27 36t36.5 32t33.5 36q33 40 28 85t-53 70q-55 23 -103 9t-90 -54q-40 -38 -36 -141q5 -88 5 -228t1 -198q1 -109 3.5 -210t-13.5 -216t-54 -201q-24 -61 -110 -127 q-81 -61 -148 -84q-73 -25 -123 -18q-16 2 -26.5 11t-14 21t-5.5 27t-1 29t0 27z" />
<glyph unicode="&#xe0;" horiz-adv-x="978" d="M55 324q0 134 91.5 228.5t232.5 111.5q28 4 63 4q22 0 58.5 -7.5t60.5 -7.5q15 0 19 2q34 13 34 50q0 18 -14 34t-31 23q-62 20 -133 20q-52 0 -92 -12q-13 -3 -54 -21t-63 -18q-6 0 -22 4q-22 7 -36.5 24t-31.5 48q-32 49 -43 94q-4 20 -4 29q0 41 41 82 q27 27 77.5 45.5t96.5 25.5q108 19 184 19q267 0 383 -168q27 -38 41 -86t17 -80t6 -96v-103q-1 -60 -1.5 -137t-2 -138t-6.5 -136q-1 -10 -1.5 -27.5t-1.5 -27t-5.5 -23t-12.5 -25.5q-48 -69 -205 -69q-26 0 -101 -1t-101 -1q-8 0 -35.5 0.5t-38 1t-36 1.5t-38.5 3 t-34.5 5.5t-36.5 8.5t-33 12.5t-33 16.5q-63 38 -95.5 82.5t-49.5 113.5q-13 54 -13 95zM209 1417q0 86 78 86q10 0 49 2.5t63 -0.5t45 -14q22 -12 39 -36t34.5 -59t25.5 -48q39 -67 55 -123q16 -58 -51 -62q-20 -2 -54 -1.5t-44 3.5q-10 2 -19.5 6t-19.5 11.5t-16 12.5 t-17.5 16t-14.5 14q-11 11 -38.5 39.5t-44.5 42.5q-70 55 -70 110zM373 340q0 -37 8 -45q20 -41 125 -41q90 0 106 43q9 16 9 70q0 57 -101 57q-62 0 -106 -23q-41 -30 -41 -61z" />
<glyph unicode="&#xe1;" horiz-adv-x="978" d="M55 324q0 134 91.5 228.5t232.5 111.5q28 4 63 4q22 0 58.5 -7.5t60.5 -7.5q15 0 19 2q34 13 34 50q0 18 -14 34t-31 23q-62 20 -133 20q-52 0 -92 -12q-13 -3 -54 -21t-63 -18q-6 0 -22 4q-22 7 -36.5 24t-31.5 48q-32 49 -43 94q-4 20 -4 29q0 41 41 82 q27 27 77.5 45.5t96.5 25.5q108 19 184 19q267 0 383 -168q27 -38 41 -86t17 -80t6 -96v-103q-1 -60 -1.5 -137t-2 -138t-6.5 -136q-1 -10 -1.5 -27.5t-1.5 -27t-5.5 -23t-12.5 -25.5q-48 -69 -205 -69q-26 0 -101 -1t-101 -1q-8 0 -35.5 0.5t-38 1t-36 1.5t-38.5 3 t-34.5 5.5t-36.5 8.5t-33 12.5t-33 16.5q-63 38 -95.5 82.5t-49.5 113.5q-13 54 -13 95zM373 340q0 -37 8 -45q20 -41 125 -41q90 0 106 43q9 16 9 70q0 57 -101 57q-62 0 -106 -23q-41 -30 -41 -61zM432 1231q16 56 55 123q8 13 25.5 48t34.5 59t39 36q21 11 45 14t63 0.5 t49 -2.5q35 0 56.5 -21.5t21.5 -64.5q0 -56 -69 -110q-18 -14 -45.5 -43t-38.5 -39q-4 -4 -14.5 -14t-17 -15.5t-16 -13t-19 -11.5t-19.5 -6q-10 -3 -44.5 -3.5t-54.5 1.5q-67 4 -51 62z" />
<glyph unicode="&#xe2;" horiz-adv-x="978" d="M55 324q0 134 91.5 228.5t232.5 111.5q28 4 63 4q22 0 58.5 -7.5t60.5 -7.5q15 0 19 2q34 13 34 50q0 18 -14 34t-31 23q-62 20 -133 20q-52 0 -92 -12q-13 -3 -54 -21t-63 -18q-6 0 -22 4q-22 7 -36.5 24t-31.5 48q-32 49 -43 94q-4 20 -4 29q0 41 41 82 q27 27 77.5 45.5t96.5 25.5q108 19 184 19q267 0 383 -168q27 -38 41 -86t17 -80t6 -96v-103q-1 -60 -1.5 -137t-2 -138t-6.5 -136q-1 -10 -1.5 -27.5t-1.5 -27t-5.5 -23t-12.5 -25.5q-48 -69 -205 -69q-26 0 -101 -1t-101 -1q-8 0 -35.5 0.5t-38 1t-36 1.5t-38.5 3 t-34.5 5.5t-36.5 8.5t-33 12.5t-33 16.5q-63 38 -95.5 82.5t-49.5 113.5q-13 54 -13 95zM256.5 1279q-1.5 21 10.5 43t40 38q11 6 36.5 21t46.5 27.5t32 18.5q7 3 21.5 11t26.5 13t24 7q16 5 36 2q18 -2 35 -8t27 -11.5t26.5 -16.5t24.5 -15q15 -9 45 -24t46.5 -24.5t32 -25 t17.5 -32.5q1 -15 -0.5 -39.5t-1.5 -34.5q0 -66 -32 -70q-17 -3 -36 4t-45 23l-26 16q-5 3 -16.5 11t-20.5 13.5t-16 8.5t-20.5 10.5t-18 9.5t-15 5t-18 2t-19 -4t-26.5 -9q-21 -8 -30 -12.5t-20.5 -12t-27.5 -16.5q-5 -3 -19 -12t-24 -15t-26.5 -13.5t-27 -6.5t-24.5 6 q-10 6 -13.5 17.5t-3 28.5t0.5 20q0 25 -1.5 46zM373 340q0 -37 8 -45q20 -41 125 -41q90 0 106 43q9 16 9 70q0 57 -101 57q-62 0 -106 -23q-41 -30 -41 -61z" />
<glyph unicode="&#xe3;" horiz-adv-x="978" d="M55 324q0 134 91.5 228.5t232.5 111.5q28 4 63 4q22 0 58.5 -7.5t60.5 -7.5q15 0 19 2q34 13 34 50q0 18 -14 34t-31 23q-62 20 -133 20q-52 0 -92 -12q-13 -3 -54 -21t-63 -18q-6 0 -22 4q-22 7 -36.5 24t-31.5 48q-32 49 -43 94q-4 20 -4 29q0 41 41 82 q27 27 77.5 45.5t96.5 25.5q108 19 184 19q267 0 383 -168q27 -38 41 -86t17 -80t6 -96v-103q-1 -60 -1.5 -137t-2 -138t-6.5 -136q-1 -10 -1.5 -27.5t-1.5 -27t-5.5 -23t-12.5 -25.5q-48 -69 -205 -69q-26 0 -101 -1t-101 -1q-8 0 -35.5 0.5t-38 1t-36 1.5t-38.5 3 t-34.5 5.5t-36.5 8.5t-33 12.5t-33 16.5q-63 38 -95.5 82.5t-49.5 113.5q-13 54 -13 95zM215 1276q0 65 14 95.5t66 55.5q49 20 75 25.5t83 -0.5q15 -5 63 -29.5t76 -25.5q13 0 25.5 1t20.5 3t20.5 6.5t17.5 7l20 10l19 9.5q42 20 67 17.5t33 -24t10 -54t-2 -70.5 q-2 -27 -9.5 -45t-27.5 -39q-16 -17 -71 -39t-82 -25q-43 -5 -111.5 27t-105.5 32q-18 1 -68 -17.5t-72 -18.5q-25 0 -43 35.5t-18 62.5zM373 340q0 -37 8 -45q20 -41 125 -41q90 0 106 43q9 16 9 70q0 57 -101 57q-62 0 -106 -23q-41 -30 -41 -61z" />
<glyph unicode="&#xe4;" horiz-adv-x="978" d="M55 324q0 134 91.5 228.5t232.5 111.5q28 4 63 4q22 0 58.5 -7.5t60.5 -7.5q15 0 19 2q34 13 34 50q0 18 -14 34t-31 23q-62 20 -133 20q-52 0 -92 -12q-13 -3 -54 -21t-63 -18q-6 0 -22 4q-22 7 -36.5 24t-31.5 48q-32 49 -43 94q-4 20 -4 29q0 41 41 82 q27 27 77.5 45.5t96.5 25.5q108 19 184 19q267 0 383 -168q27 -38 41 -86t17 -80t6 -96v-103q-1 -60 -1.5 -137t-2 -138t-6.5 -136q-1 -10 -1.5 -27.5t-1.5 -27t-5.5 -23t-12.5 -25.5q-48 -69 -205 -69q-26 0 -101 -1t-101 -1q-8 0 -35.5 0.5t-38 1t-36 1.5t-38.5 3 t-34.5 5.5t-36.5 8.5t-33 12.5t-33 16.5q-63 38 -95.5 82.5t-49.5 113.5q-13 54 -13 95zM162.5 1379q0.5 5 0.5 22.5t2.5 24t6 20t9.5 19.5t14.5 14t21 11t27.5 3t45.5 2t47 2t41.5 -1.5t48 -6.5q21 -4 29 -26t8 -62v-43q5 -88 -21 -119q-12 -14 -29 -18.5t-45 -3t-34 1.5 q-4 0 -21.5 -1.5t-27.5 -1.5t-27.5 0.5t-28.5 4t-23 8.5t-19.5 15t-10.5 24q-1 12 -6.5 30.5t-5.5 34.5q0 2 -1 21.5t-0.5 24.5zM373 340q0 -37 8 -45q20 -41 125 -41q90 0 106 43q9 16 9 70q0 57 -101 57q-62 0 -106 -23q-41 -30 -41 -61zM573 1402.5q0 12.5 3.5 32.5 t11.5 30.5t23 19t38 8.5q16 0 47 2t47 2t41.5 -1.5t49.5 -6.5q16 -3 25.5 -20.5t11.5 -34.5t3.5 -44t2.5 -32q4 -79 -31 -119q-10 -14 -27 -18.5t-46.5 -3t-35.5 1.5q-2 0 -25 -1.5t-32 -1.5t-29.5 2t-31 7.5t-22 16t-15.5 26.5q-1 10 -4 29.5t-3 35.5q0 9 -1 33t-1 36.5z " />
<glyph unicode="&#xe5;" horiz-adv-x="978" d="M55 324q0 134 91.5 228.5t232.5 111.5q28 4 63 4q22 0 58.5 -7.5t60.5 -7.5q15 0 19 2q34 13 34 50q0 18 -14 34t-31 23q-62 20 -133 20q-52 0 -92 -12q-13 -3 -54 -21t-63 -18q-6 0 -22 4q-22 7 -36.5 24t-31.5 48q-32 49 -43 94q-4 20 -4 29q0 41 41 82 q27 27 77.5 45.5t96.5 25.5q108 19 184 19q267 0 383 -168q27 -38 41 -86t17 -80t6 -96v-103q-1 -60 -1.5 -137t-2 -138t-6.5 -136q-1 -10 -1.5 -27.5t-1.5 -27t-5.5 -23t-12.5 -25.5q-48 -69 -205 -69q-26 0 -101 -1t-101 -1q-8 0 -35.5 0.5t-38 1t-36 1.5t-38.5 3 t-34.5 5.5t-36.5 8.5t-33 12.5t-33 16.5q-63 38 -95.5 82.5t-49.5 113.5q-13 54 -13 95zM306 1337.5q-6 85.5 42 149.5q23 37 73.5 58.5t102.5 17.5q78 -4 129 -39q41 -25 62.5 -71t21.5 -93q0 -137 -131 -195q-56 -20 -121 -11.5t-108 44.5q-65 54 -71 139.5zM373 340 q0 -37 8 -45q20 -41 125 -41q90 0 106 43q9 16 9 70q0 57 -101 57q-62 0 -106 -23q-41 -30 -41 -61zM446.5 1345q3.5 -14 10.5 -26q19 -26 47.5 -33.5t53 5t32.5 38.5q6 21 4 39t-19 39q-18 20 -54 21t-54 -17q-15 -14 -19.5 -33t-1 -33z" />
<glyph unicode="&#xe7;" horiz-adv-x="860" d="M70 694q8 77 32 133q55 121 191 199q73 43 187 58.5t216 5.5q43 -3 66 -17t29 -49q3 -32 -7 -113.5t-10 -105.5q-3 -95 -115 -74q-51 10 -113.5 -11t-90.5 -58q-9 -12 -14.5 -23.5t-8.5 -19t-4.5 -21t-2 -18.5t0 -23.5t0.5 -24.5q0 -91 41 -149q13 -17 25 -27 q23 -21 58 -26.5t68.5 -2t66 6t58 -6.5t37.5 -36q8 -24 8 -39q16 -156 17 -172q1 -22 0.5 -37t-6 -25t-18.5 -16.5t-38 -11.5q-89 -17 -204 -17q-87 3 -174 34t-160 94.5t-101 146.5q-59 175 -34 446zM350 -350q0 10 2.5 19.5t5.5 20.5t4 15q2 13 10.5 36t16.5 30 q15 7 43.5 5.5t32.5 0.5q28 7 39 28q9 18 -15 23h-2q-14 4 -31 3.5t-28 2.5q-21 3 -28.5 22t-2.5 35q4 5 17 22.5t22 30.5t17 29q2 5 6.5 17.5t7.5 20t10.5 18t16.5 18.5q11 17 75 12q25 0 31 -8h2q8 -12 -2 -47q0 -3 -4 -13t-7 -20.5t-5 -21.5t0 -18.5t10 -8.5 q51 -6 72.5 -57t7.5 -98q-15 -61 -79 -104.5t-130 -41.5q-95 0 -109 14q-6 5 -6 15z" />
<glyph unicode="&#xe8;" d="M48.5 684q0.5 30 5 74t18.5 80.5t37 68.5q66 93 143 131q160 80 362 54q53 -9 77.5 -13.5t65 -19t68.5 -35.5q136 -103 136 -252q0 -59 -1 -84t-8.5 -70t-26.5 -77t-51 -60q-88 -73 -290 -73q-38 0 -79.5 4.5t-68 7t-37.5 0.5q-21 -8 -16.5 -29.5t16.5 -41t19 -25.5 q78 -65 311 -13q6 1 27 6t32 7t30.5 4.5t32.5 0.5t27.5 -6t25 -14.5t16.5 -25.5q7 -18 11 -35.5t4.5 -39.5t0 -36t-2.5 -42.5t-3 -41.5q-2 -39 -51 -66t-120.5 -38t-127 -14.5t-96.5 -2.5q-95 1 -182 27t-160.5 86t-102.5 147q-25 74 -31 146q-4 24 -5 47.5t-1.5 58.5 t-1.5 49q0 20 -1.5 73t-1 83zM225 1417q0 86 78 86q13 0 39.5 1.5t43 2t38 -3t37.5 -12.5q22 -12 39 -36t33.5 -59t25.5 -48q39 -67 55 -123q16 -58 -51 -62q-20 -2 -54 -1.5t-44 3.5q-10 2 -19.5 6t-19 11.5t-16 13t-17 15.5t-14.5 14q-11 10 -38.5 39t-45.5 43 q-70 55 -70 110zM371 719.5q3 -33.5 26 -49.5q6 -5 18.5 -9t21 -5.5t25.5 -3.5t21 -3q3 0 35 1t41 1q48 2 85.5 29.5t21.5 69.5q-35 81 -205 69q-46 -5 -69.5 -35.5t-20.5 -64z" />
<glyph unicode="&#xe9;" d="M48.5 684q0.5 30 5 74t18.5 80.5t37 68.5q66 93 143 131q160 80 362 54q53 -9 77.5 -13.5t65 -19t68.5 -35.5q136 -103 136 -252q0 -59 -1 -84t-8.5 -70t-26.5 -77t-51 -60q-88 -73 -290 -73q-38 0 -79.5 4.5t-68 7t-37.5 0.5q-21 -8 -16.5 -29.5t16.5 -41t19 -25.5 q78 -65 311 -13q6 1 27 6t32 7t30.5 4.5t32.5 0.5t27.5 -6t25 -14.5t16.5 -25.5q7 -18 11 -35.5t4.5 -39.5t0 -36t-2.5 -42.5t-3 -41.5q-2 -39 -51 -66t-120.5 -38t-127 -14.5t-96.5 -2.5q-95 1 -182 27t-160.5 86t-102.5 147q-25 74 -31 146q-4 24 -5 47.5t-1.5 58.5 t-1.5 49q0 20 -1.5 73t-1 83zM371 719.5q3 -33.5 26 -49.5q6 -5 18.5 -9t21 -5.5t25.5 -3.5t21 -3q3 0 35 1t41 1q48 2 85.5 29.5t21.5 69.5q-35 81 -205 69q-46 -5 -69.5 -35.5t-20.5 -64zM408 1231q16 56 55 123q9 13 25.5 48t33.5 59t39 36q16 9 37.5 12.5t38 3t43 -2 t39.5 -1.5q35 0 56.5 -21.5t21.5 -64.5q0 -55 -70 -110q-18 -14 -45.5 -43t-38.5 -39q-4 -4 -14.5 -14t-17 -15.5t-16 -13t-19 -11.5t-19.5 -6q-10 -3 -44 -3.5t-54 1.5q-67 4 -51 62z" />
<glyph unicode="&#xea;" d="M48.5 684q0.5 30 5 74t18.5 80.5t37 68.5q66 93 143 131q160 80 362 54q53 -9 77.5 -13.5t65 -19t68.5 -35.5q136 -103 136 -252q0 -59 -1 -84t-8.5 -70t-26.5 -77t-51 -60q-88 -73 -290 -73q-38 0 -79.5 4.5t-68 7t-37.5 0.5q-21 -8 -16.5 -29.5t16.5 -41t19 -25.5 q78 -65 311 -13q6 1 27 6t32 7t30.5 4.5t32.5 0.5t27.5 -6t25 -14.5t16.5 -25.5q7 -18 11 -35.5t4.5 -39.5t0 -36t-2.5 -42.5t-3 -41.5q-2 -39 -51 -66t-120.5 -38t-127 -14.5t-96.5 -2.5q-95 1 -182 27t-160.5 86t-102.5 147q-25 74 -31 146q-4 24 -5 47.5t-1.5 58.5 t-1.5 49q0 20 -1.5 73t-1 83zM252.5 1279q-1.5 21 10.5 43t40 38q11 6 36.5 21t46.5 27.5t32 18.5q8 3 21.5 11t25.5 13t24 7q16 5 37 2q18 -2 35 -8t27 -11.5t26.5 -16.5t24.5 -15q15 -9 45 -24t46.5 -24.5t32 -25t17.5 -32.5q1 -15 -0.5 -39.5t-1.5 -34.5q0 -66 -33 -70 q-17 -3 -36 4t-44 23t-26 16q-5 3 -16.5 11t-20.5 13.5t-16 8.5t-20.5 10.5t-18 9.5t-15 5t-18 2t-19 -4t-26.5 -9q-21 -8 -30 -12.5t-20.5 -12t-27.5 -16.5q-5 -3 -19 -12t-24 -15t-26.5 -13.5t-27 -6.5t-24.5 6q-10 6 -13.5 17.5t-3 28.5t0.5 20q0 25 -1.5 46zM371 719.5 q3 -33.5 26 -49.5q6 -5 18.5 -9t21 -5.5t25.5 -3.5t21 -3q3 0 35 1t41 1q48 2 85.5 29.5t21.5 69.5q-35 81 -205 69q-46 -5 -69.5 -35.5t-20.5 -64z" />
<glyph unicode="&#xeb;" d="M48.5 684q0.5 30 5 74t18.5 80.5t37 68.5q66 93 143 131q160 80 362 54q53 -9 77.5 -13.5t65 -19t68.5 -35.5q136 -103 136 -252q0 -59 -1 -84t-8.5 -70t-26.5 -77t-51 -60q-88 -73 -290 -73q-38 0 -79.5 4.5t-68 7t-37.5 0.5q-21 -8 -16.5 -29.5t16.5 -41t19 -25.5 q78 -65 311 -13q6 1 27 6t32 7t30.5 4.5t32.5 0.5t27.5 -6t25 -14.5t16.5 -25.5q7 -18 11 -35.5t4.5 -39.5t0 -36t-2.5 -42.5t-3 -41.5q-2 -39 -51 -66t-120.5 -38t-127 -14.5t-96.5 -2.5q-95 1 -182 27t-160.5 86t-102.5 147q-25 74 -31 146q-4 24 -5 47.5t-1.5 58.5 t-1.5 49q0 20 -1.5 73t-1 83zM158.5 1373q0.5 5 0.5 22.5t2.5 24t6 20t9.5 19.5t14.5 14t21 11t27.5 3t45.5 2t47 2t41.5 -1.5t48 -6.5q21 -4 29 -26t8 -62v-43q5 -88 -21 -119q-9 -11 -24 -16t-26.5 -5.5t-30.5 0t-27 0.5q-4 0 -19 -1t-23 -1.5t-23.5 0t-25.5 2t-22.5 5 t-20.5 9.5t-14.5 15t-9.5 21q-1 12 -6.5 30.5t-5.5 34.5q0 2 -1 21.5t-0.5 24.5zM371 719.5q3 -33.5 26 -49.5q6 -5 18.5 -9t21 -5.5t25.5 -3.5t21 -3q3 0 35 1t41 1q48 2 85.5 29.5t21.5 69.5q-35 81 -205 69q-46 -5 -69.5 -35.5t-20.5 -64zM569 1396.5q0 12.5 3.5 32.5 t11.5 30.5t23 19t38 8.5q16 0 46.5 2t47 2t41.5 -1.5t49 -6.5q16 -3 25.5 -20.5t11.5 -34.5t3.5 -44t2.5 -32q4 -80 -30 -119q-10 -14 -27 -18.5t-47 -3.5t-35 1q-3 0 -21 -1.5t-26.5 -1t-26 1t-27.5 3.5t-22.5 8.5t-20 15.5t-11.5 24q-1 10 -4 29.5t-3 35.5q0 9 -1 33 t-1 36.5z" />
<glyph unicode="&#xec;" horiz-adv-x="516" d="M-8 1417q0 86 78 86q10 0 49 2.5t63 -0.5t45 -14q22 -12 39 -36t34.5 -59t25.5 -48q39 -67 55 -123q16 -58 -51 -62q-20 -2 -54.5 -1.5t-44.5 3.5q-10 2 -19.5 6t-19 11.5t-16 13t-17 15.5t-14.5 14q-11 10 -38.5 39t-45.5 43q-69 54 -69 110zM137 134.5q2 40.5 2 51.5 q-1 55 -1 74.5t2 75t3 74.5v211q-1 65 -3 173t-3 177q0 21 4.5 36.5t16.5 25t21.5 15t30 7.5t31 2.5t35.5 0t33 -0.5q12 0 33 1.5t36 1t32 -4.5q8 -2 25.5 -3t28.5 -2.5t22.5 -7.5t17.5 -18q8 -16 12 -40t4 -41t-1 -47t-1 -40q-1 -22 -1 -46.5t0.5 -53.5t0.5 -45v-23 q3 -49 0.5 -219t-2.5 -219q0 -14 3 -57.5t3 -71t-9 -60.5t-30 -49q-16 -13 -37 -20.5t-49 -8.5t-45 -1t-52 3t-42 3q-25 0 -38 1t-32 8.5t-30 22.5q-15 20 -19 47t-2 67.5z" />
<glyph unicode="&#xed;" horiz-adv-x="516" d="M6 134.5q2 40.5 2 51.5q-1 55 -1 74.5t2 75t3 74.5v211q-1 65 -3 173t-3 177q0 21 4.5 36.5t16.5 25t21.5 15t30 7.5t31 2.5t35.5 0t33 -0.5q12 0 33 1.5t36 1t32 -4.5q8 -2 25.5 -3t28.5 -2.5t22.5 -7.5t17.5 -18q8 -16 12 -40t4 -41t-1 -47t-1 -40q-1 -22 -1 -46.5 t0.5 -53.5t0.5 -45v-23q3 -49 0.5 -219t-2.5 -219q0 -14 3 -57.5t3 -71t-9 -60.5t-30 -49q-16 -13 -37 -20.5t-49 -8.5t-45 -1t-52 3t-42 3q-25 0 -38 1t-32 8.5t-30 22.5q-15 20 -19 47t-2 67.5zM123 1231q16 56 55 123q9 13 25.5 48t33.5 59t39 36q16 9 37.5 12.5t38 3 t43 -2t39.5 -1.5q35 0 56.5 -21.5t21.5 -64.5q0 -55 -70 -110q-18 -14 -45.5 -43t-38.5 -39q-4 -4 -14.5 -14t-17 -15.5t-16 -13t-19 -11.5t-19.5 -6q-10 -3 -44 -3.5t-54 1.5q-67 4 -51 62z" />
<glyph unicode="&#xee;" horiz-adv-x="516" d="M-7.5 1279q-1.5 21 10.5 43t40 38q11 6 36.5 21t46.5 27.5t32 18.5q8 3 21.5 11t25.5 13t24 7q16 5 37 2q18 -2 35 -8t27 -11.5t26.5 -16.5t24.5 -15q15 -9 45 -24t46.5 -24.5t32 -25t17.5 -32.5q1 -15 -0.5 -39.5t-1.5 -34.5q0 -66 -33 -70q-17 -3 -36 4t-44 23t-26 16 q-5 3 -16.5 11t-20.5 13.5t-16 8.5t-20.5 10.5t-18 9.5t-15 5t-18 2t-19 -4t-26.5 -9q-21 -8 -30 -12.5t-20.5 -12t-27.5 -16.5q-5 -3 -19 -12t-24 -15t-26.5 -13.5t-27 -6.5t-24.5 6q-10 6 -13.5 17.5t-3 28.5t0.5 20q0 25 -1.5 46zM66 134.5q2 39.5 2 51.5q-1 55 -1 74.5 t2 75t3 74.5v211q-1 65 -3 173t-3 177q0 21 4.5 36.5t16.5 25t21.5 15t30 7.5t31 2.5t35.5 0t33 -0.5q12 0 32.5 1.5t35.5 1t32 -4.5q8 -2 25.5 -3t28.5 -2.5t22.5 -7.5t17.5 -18q8 -16 12 -40t4 -41t-1 -47t-1 -40q-1 -22 -1 -46.5t0.5 -53.5t0.5 -45v-23q3 -49 0.5 -219 t-2.5 -219q0 -15 3 -58t3.5 -70.5t-8.5 -60.5t-30 -49q-16 -13 -37 -20.5t-49.5 -8.5t-45 -1t-52 3t-42.5 3q-25 0 -38 1t-32 8.5t-30 22.5q-15 20 -18.5 47.5t-1.5 67z" />
<glyph unicode="&#xef;" horiz-adv-x="516" d="M-99.5 1375q0.5 5 0.5 22.5t2.5 24t6 20t9.5 19.5t14.5 14t21 11t27.5 3t45.5 2t47 2t41.5 -1.5t48 -6.5q21 -4 29 -26t8 -62v-43q5 -88 -21 -119q-9 -11 -24 -16t-26.5 -5.5t-30.5 0t-27 0.5q-4 0 -19 -1t-23 -1.5t-23.5 0t-25.5 2t-22.5 5t-20.5 9.5t-14.5 15t-9.5 21 q-1 12 -6.5 30.5t-5.5 34.5q0 2 -1 21.5t-0.5 24.5zM68 134.5q2 39.5 2 51.5q-1 55 -1 74.5t2 75t3 74.5v211q-1 65 -3 173t-3 177q0 21 4.5 36.5t16.5 25t21.5 15t30 7.5t31 2.5t35.5 0t33 -0.5q12 0 32.5 1.5t35.5 1t32 -4.5q8 -2 25.5 -3t28.5 -2.5t22.5 -7.5t17.5 -18 q8 -16 12 -40.5t4.5 -40.5t-0.5 -47.5t-1 -39.5q-1 -22 -1 -46.5t0.5 -53.5t0.5 -45v-23q2 -95 -0.5 -238.5t-2.5 -199.5q0 -15 3 -58t3.5 -70.5t-8.5 -60.5t-30 -49q-16 -13 -37 -20.5t-49.5 -8.5t-45 -1t-52 3t-42.5 3q-25 0 -38 1t-32 8.5t-30 22.5q-15 20 -18.5 47.5 t-1.5 67zM311 1398.5q0 12.5 3.5 32.5t11.5 30.5t23 19t38 8.5q16 0 46.5 2t47 2t41.5 -1.5t49 -6.5q16 -3 25.5 -20.5t11.5 -34.5t3.5 -44t2.5 -32q4 -80 -30 -119q-10 -14 -27 -18.5t-47 -3.5t-35 1q-3 0 -21 -1.5t-27 -1t-26.5 1t-27.5 3.5t-22.5 8.5t-20 15.5t-11.5 24 q-1 9 -3.5 28.5t-2.5 36.5q0 9 -1 33t-1 36.5z" />
<glyph unicode="&#xf0;" horiz-adv-x="1064" d="M27.5 420.5q-4.5 77.5 7.5 156.5q1 16 2 25q6 59 26 105q26 60 70.5 114.5t97.5 85.5q57 37 123 49q28 6 107 2q66 -5 84 11q12 10 13 42t-11.5 58.5t-32.5 20.5q-3 -1 -33 -9t-38.5 -8.5t-34.5 0.5q-30 10 -41 60l-21 77q-8 48 10 58q7 3 37 11.5t50 18.5t16 23 q-2 5 -3.5 16.5t-4.5 18.5q-3 6 -11.5 19t-13.5 21.5t-9 20.5t-3 23q4 40 78 59.5t153.5 16t104.5 -20.5q12 -8 20 -20.5t16 -31t13 -26.5q13 -22 34 -25t40 6t39.5 12t31.5 -7t29 -77t18 -87q0 -10 -4 -17.5t-13.5 -12.5t-15 -7.5t-18.5 -6t-14 -3.5q-22 -4 -27 -12.5 t0 -30.5q3 -11 23.5 -80t29.5 -106q29 -121 39 -203q3 -23 12 -78.5t11 -85.5q19 -243 -41 -389q-21 -53 -64 -96q-87 -88 -192.5 -115t-259.5 -27q-127 5 -241.5 78.5t-152.5 198.5q-31 97 -35.5 174.5zM352 459q0 -53 31.5 -98.5t83.5 -67.5q32 -13 72 -4q42 10 70.5 44 t38 76.5t5 88t-23.5 80.5q-32 56 -80.5 74t-91.5 0.5t-74 -69.5t-31 -124z" />
<glyph unicode="&#xf1;" horiz-adv-x="1118" d="M90 987q0 21 5.5 37.5t11.5 26.5t21.5 17t23 10.5t29.5 5t27.5 1.5h29.5q11 0 48.5 1.5t65 0.5t49.5 -6q29 -6 34 -12q5 -8 7 -22q3 -20 19 -26t33 5q40 30 71 41q93 30 195 10q299 -59 299 -342v-286q0 -259 -6 -398q0 -18 -8 -30.5t-24.5 -19.5t-30.5 -11t-38.5 -3.5 t-36.5 0.5t-37.5 2.5t-27.5 2.5q-12 1 -46.5 0.5t-45.5 1.5q-32 3 -47 27.5t-13 56.5q2 137 2 414q-1 59 -5.5 99t-16 74t-34 50.5t-56.5 15.5q-26 0 -46 -7t-31.5 -19.5t-19 -30t-10 -37.5t-4 -42.5t-0.5 -45.5t0 -45q-8 -211 -8 -381q0 -7 1 -26t0.5 -28.5t-3.5 -23.5 t-11.5 -24t-21.5 -17q-32 -18 -155 -12q-4 0 -70 -2.5t-70 0.5q-29 3 -37 14.5t-8 44.5q-1 29 -1 87.5t-1 88.5q0 18 2 234q0 402 -4 528zM279 1307q0 65 13.5 96t65.5 55q49 20 75 25.5t83 -0.5q16 -5 63.5 -30t75.5 -26q13 0 25.5 1t20.5 3t20.5 6.5t17.5 7l20 10l19 9.5 q55 27 81.5 13.5t28 -53.5t-0.5 -91q-2 -27 -9.5 -45t-27.5 -39q-16 -17 -71.5 -38t-82.5 -25q-43 -5 -111.5 27t-105.5 32q-18 1 -67.5 -18t-71.5 -19q-25 0 -43 36t-18 63z" />
<glyph unicode="&#xf2;" d="M59 322q-30 323 21 489q17 63 67 127q146 173 469 143q121 -11 227 -84.5t140 -185.5q51 -166 21 -489q-6 -94 -60.5 -175t-138.5 -135q-29 -19 -123 -43q-82 -17 -188 -14q-161 4 -244 55q-170 112 -191 312zM197 1417q0 86 77 86q13 0 39.5 1.5t43 2t38 -3t37.5 -12.5 q22 -12 39 -36t33.5 -59t25.5 -48q41 -70 56 -123q16 -58 -51 -62q-20 -2 -54.5 -1.5t-44.5 3.5q-10 2 -19.5 6t-19 11.5t-16 13t-17 15.5t-14.5 14q-11 10 -38.5 39t-45.5 43q-69 54 -69 110zM415.5 444q0.5 -15 2.5 -43.5t8 -44.5t16 -35t26.5 -30t39.5 -15 q38 -8 58.5 6.5t47.5 57.5q9 13 14.5 27.5t7.5 37t3 31.5t0.5 38.5t-0.5 31.5q0 46 -1.5 71.5t-9 64t-26.5 61.5t-49 32q-44 12 -63.5 2t-45.5 -53q-28 -47 -28 -156q0 -8 -0.5 -38.5t0 -45.5z" />
<glyph unicode="&#xf3;" d="M59 322q-30 323 21 489q17 63 67 127q146 173 469 143q121 -11 227 -84.5t140 -185.5q51 -166 21 -489q-6 -94 -60.5 -175t-138.5 -135q-29 -19 -123 -43q-82 -17 -188 -14q-161 4 -244 55q-170 112 -191 312zM415.5 444q0.5 -15 2.5 -43.5t8 -44.5t16 -35t26.5 -30 t39.5 -15q38 -8 58.5 6.5t47.5 57.5q9 13 14.5 27.5t7.5 37t3 31.5t0.5 38.5t-0.5 31.5q0 46 -1.5 71.5t-9 64t-26.5 61.5t-49 32q-44 12 -63.5 2t-45.5 -53q-28 -47 -28 -156q0 -8 -0.5 -38.5t0 -45.5zM428 1231q16 56 55 123q8 13 25.5 48t34.5 59t39 36q21 11 45 14 t63 0.5t49 -2.5q35 0 56.5 -21.5t21.5 -64.5q0 -56 -69 -110q-18 -14 -45.5 -43t-38.5 -39q-4 -4 -14.5 -14t-17 -15.5t-16 -13t-19 -11.5t-19.5 -6q-10 -3 -44.5 -3.5t-54.5 1.5q-67 4 -51 62z" />
<glyph unicode="&#xf4;" d="M59 322q-30 323 21 489q17 63 67 127q146 173 469 143q121 -11 227 -84.5t140 -185.5q51 -166 21 -489q-6 -94 -60.5 -175t-138.5 -135q-29 -19 -123 -43q-82 -17 -188 -14q-161 4 -244 55q-170 112 -191 312zM248.5 1279q-1.5 21 10.5 43t40 38q11 6 36.5 21t46.5 27.5 t32 18.5q8 3 21.5 11t25.5 13t24 7q16 5 37 2q18 -2 35 -8t27 -11.5t26.5 -16.5t24.5 -15q15 -9 45 -24t46.5 -24.5t32 -25t17.5 -32.5q1 -15 -0.5 -39.5t-1.5 -34.5q0 -66 -33 -70q-17 -3 -36 4t-44 23t-26 16q-5 3 -16.5 11t-20.5 13.5t-16 8.5t-20.5 10.5t-18 9.5t-15 5 t-18 2t-19 -4t-26.5 -9q-21 -8 -30 -12.5t-20.5 -12t-27.5 -16.5q-5 -3 -19 -12t-24 -15t-26.5 -13.5t-27 -6.5t-24.5 6q-10 6 -13.5 17.5t-3 28.5t0.5 20q0 25 -1.5 46zM415.5 444q0.5 -15 2.5 -43.5t8 -44.5t16 -35t26.5 -30t39.5 -15q38 -8 58.5 6.5t47.5 57.5 q9 13 14.5 27.5t7.5 37t3 31.5t0.5 38.5t-0.5 31.5q0 46 -1.5 71.5t-9 64t-26.5 61.5t-49 32q-44 12 -63.5 2t-45.5 -53q-28 -47 -28 -156q0 -8 -0.5 -38.5t0 -45.5z" />
<glyph unicode="&#xf5;" d="M59 322q-30 323 21 489q17 63 67 127q146 173 469 143q121 -11 227 -84.5t140 -185.5q51 -166 21 -489q-6 -94 -60.5 -175t-138.5 -135q-29 -19 -123 -43q-82 -17 -188 -14q-161 4 -244 55q-170 112 -191 312zM207 1296q0 65 14 96t66 56q49 21 74.5 26t82.5 -1 q15 -5 63.5 -30t76.5 -26q13 0 25.5 1t20.5 3t20.5 6.5t17.5 7l20 10l19 9.5q42 20 67 17.5t33 -24t10 -54t-2 -70.5q-2 -27 -9.5 -45t-27.5 -39q-16 -17 -71 -38t-82 -25q-43 -5 -111.5 27t-105.5 32q-18 1 -68 -18t-72 -19q-25 0 -43 35.5t-18 62.5zM415.5 444 q0.5 -15 2.5 -43.5t8 -44.5t16 -35t26.5 -30t39.5 -15q38 -8 58.5 6.5t47.5 57.5q9 13 14.5 27.5t7.5 37t3 31.5t0.5 38.5t-0.5 31.5q0 46 -1.5 71.5t-9 64t-26.5 61.5t-49 32q-44 12 -63.5 2t-45.5 -53q-28 -47 -28 -156q0 -8 -0.5 -38.5t0 -45.5z" />
<glyph unicode="&#xf6;" d="M59 322q-30 323 21 489q17 63 67 127q146 173 469 143q121 -11 227 -84.5t140 -185.5q51 -166 21 -489q-6 -94 -60.5 -175t-138.5 -135q-29 -19 -123 -43q-82 -17 -188 -14q-161 4 -244 55q-170 112 -191 312zM154.5 1379q0.5 5 0.5 22.5t2.5 24t6 20t9.5 19.5t14.5 14 t21 11t27.5 3t45.5 2t47 2t41.5 -1.5t48 -6.5q21 -4 29 -26t8 -62v-43q5 -88 -21 -119q-12 -14 -29 -18.5t-45 -3t-34 1.5q-4 0 -21.5 -1.5t-27.5 -1.5t-27.5 0.5t-28.5 4t-23 8.5t-19.5 15t-10.5 24q-1 12 -6.5 30.5t-5.5 34.5q0 2 -1 21.5t-0.5 24.5zM415.5 444 q0.5 -15 2.5 -43.5t8 -44.5t16 -35t26.5 -30t39.5 -15q38 -8 58.5 6.5t47.5 57.5q9 13 14.5 27.5t7.5 37t3 31.5t0.5 38.5t-0.5 31.5q0 46 -1.5 71.5t-9 64t-26.5 61.5t-49 32q-44 12 -63.5 2t-45.5 -53q-28 -47 -28 -156q0 -8 -0.5 -38.5t0 -45.5zM565 1402.5 q0 12.5 3.5 32.5t11.5 30.5t23 19t38 8.5q16 0 46.5 2t47 2t41.5 -1.5t49 -6.5q16 -3 25.5 -20.5t11.5 -34.5t3.5 -44t2.5 -32q4 -80 -30 -119q-10 -14 -27 -18.5t-46.5 -3t-35.5 1.5q-4 0 -21.5 -1.5t-26.5 -1.5t-26 0.5t-27.5 4t-23 8.5t-20 15t-11.5 24q-1 9 -3.5 28.5 t-2.5 36.5q0 9 -1 33t-1 36.5z" />
<glyph unicode="&#xf7;" horiz-adv-x="849" d="M6 780q-4 61 35 68q24 4 127 4q240 -11 610 0h4q17 0 26.5 -1t19.5 -7.5t10 -20.5v-96q-2 -5 -1 -42t1 -42q0 -4 2 -23t0 -31.5t-9 -21.5q-5 -5 -11.5 -6.5t-18 -0.5t-13.5 1q-37 0 -55 -2q-70 -4 -102 -4h-195h-186q-35 0 -99.5 3.5t-84.5 4.5h-6.5h-6.5h-5.5t-6 0.5 t-5 1.5t-5 2t-4 2.5t-4 3.5t-3 5t-2.5 6q-13 28 -10 75q3 27 -2 121zM264 279q-5 71 2 104q1 7 0 22.5t0 28t6 19.5q8 12 31 15t59 0t37 -3q51 0 76 2l21 3q22 2 23.5 1.5t23.5 -2.5q6 -2 12 -8q8 -8 10.5 -21.5t2 -33t-0.5 -25.5q8 -90 0 -152q-4 -29 -31 -35.5t-54 0.5 q-5 1 -7 1q-33 3 -137 -2q-63 -5 -70 36q-4 32 -4 50zM268 999v142v8.5v9.5v9t1 9t2 7.5t3 7t5 5.5t7 4t9 1q25 1 74.5 0t72.5 0q18 0 53 1t54 1q23 -2 29 -33q2 -13 2 -102q0 -6 1 -36.5t-2.5 -51.5t-13.5 -31q-12 -8 -20 -10q-25 -5 -55.5 -5.5t-70 1.5t-57.5 2 q-43 0 -63 6q-23 7 -28 18.5t-3 36.5z" />
<glyph unicode="&#xf8;" horiz-adv-x="1052" d="M46 -21q-1 11 8 29.5t17.5 31t19 28t13.5 20.5q3 4 12 18.5t12 20.5t6.5 18.5t2.5 24.5q-1 22 -20 59t-21 43q-41 113 -47 228q-11 288 121 458q73 94 176 136t223 30q18 -1 52 -13t58 -10.5t44 25.5q29 34 45 39q39 11 102 4q4 0 22 -0.5t29.5 -1.5t24 -7t15.5 -17 q3 -12 -1 -27.5t-9 -25.5t-14.5 -26.5t-12.5 -21.5q-4 -9 -17.5 -28t-21 -35.5t-4.5 -32.5q5 -20 26 -55t27 -49q27 -61 35 -119q31 -212 -13 -373q-30 -108 -95.5 -197t-158.5 -130q-106 -50 -251 -37q-42 4 -109 26q-7 3 -12.5 3.5t-10 -1l-7.5 -2.5t-7 -6.5t-5.5 -7.5 t-6 -10t-6.5 -11q-24 -37 -115 -32q-20 0 -66 4q-4 1 -15.5 1t-21.5 1.5t-14 5.5q-8 11 -9 22zM340.5 630q-0.5 -15 0.5 -36.5t1 -30.5v-4.5v-5.5v-6.5t0.5 -6.5l1.5 -6t2.5 -5t3.5 -3t5 -1t7 1q12 4 101 164q5 9 20.5 33.5t22.5 38.5q22 37 16 49q-10 14 -67 -2 q-34 -12 -60.5 -39t-38.5 -61q-2 -8 -6 -25t-6 -25q-3 -14 -3.5 -29zM503.5 304q-1.5 -9 3.5 -13.5t13.5 -6.5t24 1.5t37.5 11.5q53 24 77 68q28 46 39 133v57q0 37 -14 39q-12 5 -29 -12q-9 -14 -18 -30t-20 -35t-17 -30q-10 -17 -30.5 -50.5t-30.5 -49.5 q-8 -14 -12.5 -22.5t-11 -22t-8.5 -21.5t-3.5 -17z" />
<glyph unicode="&#xf9;" horiz-adv-x="1112" d="M77.5 448.5q-0.5 15.5 0 65.5t0.5 64q0 293 4 432q0 13 3 23t6 16.5t10 11.5t12 7.5t15.5 4t16.5 2t19.5 1.5t19.5 1q127 10 197 -6q47 -10 57 -24t8 -58q-9 -323 -8 -420q0 -116 22.5 -165.5t88.5 -49.5q43 1 68 12.5t36 38t13.5 50t3.5 69.5v4v4q6 238 8 396l-2 36 q-1 35 1 57t9 34q11 18 37.5 23t71 1t45.5 -4q94 0 139 -2q27 -2 42.5 -19.5t20.5 -48.5t5.5 -58t-1.5 -63.5t-2 -49.5q1 -66 -0.5 -194.5t-1.5 -180.5q0 -225 2 -387q0 -17 -2 -30t-8.5 -22.5t-11.5 -16.5t-17.5 -11.5t-18 -7t-22 -3.5t-21.5 -1h-24h-22h-78q-59 -4 -88 12 q-9 4 -13.5 7.5t-7 8.5t-2.5 8t-0.5 11.5t-0.5 13.5q0 6 -0.5 11.5t-2.5 14.5t-5.5 10t-10.5 -1q-14 -10 -32 -27.5t-34 -29.5t-36 -19q-98 -33 -207 -12q-134 27 -199 107t-92 233q-5 35 -7.5 70t-3 50.5zM266 1417q0 86 78 86q13 0 39.5 1.5t43 2t38 -3t37.5 -12.5 q22 -12 39 -36t33.5 -59t25.5 -48q39 -67 55 -123q16 -58 -51 -62q-20 -2 -54 -1.5t-44 3.5q-10 2 -19.5 6t-19 11.5t-16 13t-17 15.5t-14.5 14q-11 10 -38.5 39t-45.5 43q-70 55 -70 110z" />
<glyph unicode="&#xfa;" horiz-adv-x="1112" d="M77.5 448.5q-0.5 15.5 0 65.5t0.5 64q0 293 4 432q0 13 3 23t6 16.5t10 11.5t12 7.5t15.5 4t16.5 2t19.5 1.5t19.5 1q127 10 197 -6q47 -10 57 -24t8 -58q-9 -323 -8 -420q0 -116 22.5 -165.5t88.5 -49.5q43 1 68 12.5t36 38t13.5 50t3.5 69.5v4v4q6 238 8 396l-2 36 q-1 35 1 57t9 34q11 18 37.5 23t71 1t45.5 -4q94 0 139 -2q27 -2 42.5 -19.5t20.5 -48.5t5.5 -58t-1.5 -63.5t-2 -49.5q1 -66 -0.5 -194.5t-1.5 -180.5q0 -225 2 -387q0 -17 -2 -30t-8.5 -22.5t-11.5 -16.5t-17.5 -11.5t-18 -7t-22 -3.5t-21.5 -1h-24h-22h-78q-59 -4 -88 12 q-9 4 -13.5 7.5t-7 8.5t-2.5 8t-0.5 11.5t-0.5 13.5q0 6 -0.5 11.5t-2.5 14.5t-5.5 10t-10.5 -1q-14 -10 -32 -27.5t-34 -29.5t-36 -19q-98 -33 -207 -12q-134 27 -199 107t-92 233q-5 35 -7.5 70t-3 50.5zM465 1231q16 56 55 123q9 13 25.5 48t33.5 59t39 36 q16 9 37.5 12.5t38 3t43 -2t39.5 -1.5q35 0 56.5 -21.5t21.5 -64.5q0 -55 -70 -110q-18 -14 -45.5 -43t-38.5 -39q-4 -4 -14.5 -14t-17 -15.5t-16 -13t-19 -11.5t-19.5 -6q-10 -3 -44 -3.5t-54 1.5q-67 4 -51 62z" />
<glyph unicode="&#xfb;" horiz-adv-x="1112" d="M77.5 448.5q-0.5 15.5 0 65.5t0.5 64q0 293 4 432q0 13 3 23t6 16.5t10 11.5t12 7.5t15.5 4t16.5 2t19.5 1.5t19.5 1q127 10 197 -6q47 -10 57 -24t8 -58q-9 -323 -8 -420q0 -116 22.5 -165.5t88.5 -49.5q43 1 68 12.5t36 38t13.5 50t3.5 69.5v4v4q6 238 8 396l-2 36 q-1 35 1 57t9 34q11 18 37.5 23t71 1t45.5 -4q94 0 139 -2q27 -2 42.5 -19.5t20.5 -48.5t5.5 -58t-1.5 -63.5t-2 -49.5q1 -66 -0.5 -194.5t-1.5 -180.5q0 -225 2 -387q0 -17 -2 -30t-8.5 -22.5t-11.5 -16.5t-17.5 -11.5t-18 -7t-22 -3.5t-21.5 -1h-24h-22h-78q-59 -4 -88 12 q-9 4 -13.5 7.5t-7 8.5t-2.5 8t-0.5 11.5t-0.5 13.5q0 6 -0.5 11.5t-2.5 14.5t-5.5 10t-10.5 -1q-14 -10 -32 -27.5t-34 -29.5t-36 -19q-98 -33 -207 -12q-134 27 -199 107t-92 233q-5 35 -7.5 70t-3 50.5zM291.5 1279q-1.5 21 10.5 43t40 38q11 6 36.5 21t46.5 27.5 t32 18.5q8 3 21.5 11t25.5 13t24 7q16 5 37 2q18 -2 35 -8t27 -11.5t26.5 -16.5t24.5 -15q15 -9 45 -24t46.5 -24.5t32 -25t17.5 -32.5q1 -15 -0.5 -39.5t-1.5 -34.5q0 -66 -33 -70q-17 -3 -36 4t-44 23t-26 16q-52 33 -53 33q-7 3 -20.5 10.5t-18 9.5t-15 5t-18 2t-19 -4 t-26.5 -9q-21 -8 -30 -12.5t-20.5 -12t-27.5 -16.5q-5 -3 -19 -12t-24 -15t-26.5 -13.5t-27 -6.5t-24.5 6q-10 6 -13.5 17.5t-3 28.5t0.5 20q0 25 -1.5 46z" />
<glyph unicode="&#xfc;" horiz-adv-x="1112" d="M77.5 448.5q-0.5 15.5 0 65.5t0.5 64q0 293 4 432q0 13 3 23t6 16.5t10 11.5t12 7.5t15.5 4t16.5 2t19.5 1.5t19.5 1q127 10 197 -6q47 -10 57 -24t8 -58q-9 -323 -8 -420q0 -116 22.5 -165.5t88.5 -49.5q43 1 68 12.5t36 38t13.5 50t3.5 69.5v4v4q6 238 8 396l-2 36 q-1 35 1 57t9 34q11 18 37.5 23t71 1t45.5 -4q94 0 139 -2q27 -2 42.5 -19.5t20.5 -48.5t5.5 -58t-1.5 -63.5t-2 -49.5q1 -66 -0.5 -194.5t-1.5 -180.5q0 -225 2 -387q0 -17 -2 -30t-8.5 -22.5t-11.5 -16.5t-17.5 -11.5t-18 -7t-22 -3.5t-21.5 -1h-24h-22h-78q-59 -4 -88 12 q-9 4 -13.5 7.5t-7 8.5t-2.5 8t-0.5 11.5t-0.5 13.5q0 6 -0.5 11.5t-2.5 14.5t-5.5 10t-10.5 -1q-14 -10 -32 -27.5t-34 -29.5t-36 -19q-98 -33 -207 -12q-134 27 -199 107t-92 233q-5 35 -7.5 70t-3 50.5zM197.5 1379q0.5 5 0.5 22.5t2.5 24t6 20t9.5 19.5t14.5 14t21 11 t27.5 3t45.5 2t47 2t41.5 -1.5t48 -6.5q21 -4 29 -26t8 -62v-43q5 -88 -21 -119q-12 -14 -29 -18.5t-45 -3t-34 1.5q-4 0 -21.5 -1.5t-27.5 -1.5t-27.5 0.5t-28.5 4t-23 8.5t-19.5 15t-10.5 24q-1 12 -6.5 30.5t-5.5 34.5q0 2 -1 21.5t-0.5 24.5zM608 1402.5 q0 12.5 3.5 32.5t11.5 30.5t23 19t38 8.5q16 0 46.5 2t47 2t41.5 -1.5t49 -6.5q16 -3 25.5 -20.5t11.5 -34.5t3.5 -44t2.5 -32q4 -80 -30 -119q-10 -14 -27 -18.5t-46.5 -3t-35.5 1.5q-4 0 -21.5 -1.5t-26.5 -1.5t-26 0.5t-27.5 4t-23 8.5t-20 15t-11.5 24q-1 9 -3.5 28.5 t-2.5 36.5q0 9 -1 33t-1 36.5z" />
<glyph unicode="&#xfd;" horiz-adv-x="1075" d="M47.5 674q0.5 51 1 82t3.5 103.5t5 123.5q1 47 25 62.5t72 17.5q167 6 204 -2q47 -8 57.5 -23.5t8.5 -58.5q-4 -133 -4 -301v-28.5v-30t1 -26.5t3 -27.5t6 -24.5t10.5 -24.5t15 -20.5t21 -20.5t27.5 -16.5q52 -25 92 -15q49 9 45 80v305q0 83 -2 138q0 22 5.5 38.5 t12.5 27t22 18t25 11t31.5 5.5t31 2h32.5q11 0 33.5 1.5t39 1t33.5 -4.5q2 0 13.5 -2t15.5 -3l14 -3.5t15 -5.5t11.5 -7t11 -9.5t7.5 -12.5q9 -18 13 -59.5t4 -75.5t-1 -88t-1 -66v-377q0 -24 1 -78.5t1 -80.5q0 -80 -1 -113t-9 -86.5t-26.5 -95.5t-51.5 -92 q-56 -86 -152 -128.5t-205 -39.5q-3 0 -51 -0.5t-100.5 -1t-110.5 0t-99 3t-48 6.5q-23 16 -31 61.5t-6 83.5q4 39 4.5 74.5t3.5 67.5q5 41 96.5 50.5t203.5 -0.5h11t10 -0.5t11 -0.5q32 -5 89.5 -1t80.5 25q18 15 25 44.5t-13 52.5q-6 4 -24 5.5t-33 0.5t-25 0 q-10 0 -32.5 -1t-40.5 -1t-31 2q-137 13 -199 45q-124 68 -172 188q-19 53 -25 105q-6 69 -9 119.5t-2.5 101.5zM406 1231q16 56 55 123q9 13 25.5 48t33.5 59t39 36q16 9 37.5 12.5t38 3t43 -2t39.5 -1.5q35 0 56.5 -21.5t21.5 -64.5q0 -55 -70 -110q-18 -14 -45.5 -43 t-38.5 -39q-4 -4 -14.5 -14t-17 -15.5t-16 -13t-19 -11.5t-19.5 -6q-10 -3 -44 -3.5t-54 1.5q-67 4 -51 62z" />
<glyph unicode="&#xfe;" horiz-adv-x="1052" d="M78 -205q0 170 3 583t3 583q0 25 -2 157t-2 156q0 38 1 57t6 41.5t14.5 31.5t28.5 18t45.5 11.5t66.5 2.5h36h33.5t28.5 -1t27 -3t21.5 -6.5t19 -10.5t13 -15.5t11.5 -22t5.5 -29t2.5 -37.5q0 -6 -6 -62t-4.5 -100t16.5 -57q12 -12 37 -15q23 -4 82.5 -9t79.5 -9 q228 -48 318 -252q41 -94 41 -270q0 -163 -43 -283q-44 -123 -156 -198.5t-242 -75.5q-17 0 -48 3t-48 3q-37 0 -37 -41q0 -10 -1 -97.5t-1 -97.5q0 -28 -5 -48t-16.5 -32t-23 -18.5t-32.5 -8.5t-36 -2t-41.5 1.5t-42.5 1.5h-34q-33 -1 -46.5 -0.5t-31 5.5t-22.5 12.5 t-11 26.5t-7 42.5t-1 64.5zM432 406q0 -71 8 -87q18 -29 84 -30q152 0 152 307q0 71 -54.5 117.5t-127.5 46.5q-26 0 -43 -15t-17 -40q0 -40 -1 -149.5t-1 -149.5z" />
<glyph unicode="&#xff;" horiz-adv-x="1075" d="M47.5 674q0.5 51 1 82t3.5 103.5t5 123.5q1 47 25 62.5t72 17.5q167 6 204 -2q47 -8 57.5 -23.5t8.5 -58.5q-4 -133 -4 -301v-28.5v-30t1 -26.5t3 -27.5t6 -24.5t10.5 -24.5t15 -20.5t21 -20.5t27.5 -16.5q52 -25 92 -15q49 9 45 80v305q0 83 -2 138q0 22 5.5 38.5 t12.5 27t22 18t25 11t31.5 5.5t31 2h32.5q11 0 33.5 1.5t39 1t33.5 -4.5q2 0 13.5 -2t15.5 -3l14 -3.5t15 -5.5t11.5 -7t11 -9.5t7.5 -12.5q9 -18 13 -59.5t4 -75.5t-1 -88t-1 -66v-377q0 -24 1 -78.5t1 -80.5q0 -80 -1 -113t-9 -86.5t-26.5 -95.5t-51.5 -92 q-56 -86 -152 -128.5t-205 -39.5q-3 0 -51 -0.5t-100.5 -1t-110.5 0t-99 3t-48 6.5q-23 16 -31 61.5t-6 83.5q4 39 4.5 74.5t3.5 67.5q5 41 96.5 50.5t203.5 -0.5h11t10 -0.5t11 -0.5q32 -5 89.5 -1t80.5 25q18 15 25 44.5t-13 52.5q-6 4 -24 5.5t-33 0.5t-25 0 q-10 0 -32.5 -1t-40.5 -1t-31 2q-137 13 -199 45q-124 68 -172 188q-19 53 -25 105q-6 69 -9 119.5t-2.5 101.5zM178.5 1375q0.5 5 0.5 22.5t2.5 24t6 20t9.5 19.5t14.5 14t21 11t27.5 3t45.5 2t47 2t41.5 -1.5t48 -6.5q21 -4 29 -26t8 -62v-43q4 -26 1 -61.5t-21 -57.5 q-12 -14 -29 -18.5t-46 -3.5t-34 1q-3 0 -21.5 -1.5t-27.5 -1t-27 1t-28 3.5t-23 8.5t-20 15.5t-10 24q-1 12 -7 30.5t-6 34.5q0 2 -1 21.5t-0.5 24.5zM590 1398.5q0 12.5 3.5 32.5t11.5 30.5t23 19t38 8.5q16 0 46.5 2t47 2t41.5 -1.5t49 -6.5q16 -3 25.5 -20.5t11.5 -34.5 t3.5 -44t2.5 -32q4 -79 -31 -119q-8 -11 -22.5 -16t-26.5 -5.5t-31.5 0t-27.5 0.5q-3 0 -21 -1.5t-27 -1t-26.5 1t-27.5 3.5t-22.5 8.5t-20 15.5t-11.5 24q-1 9 -3.5 28.5t-2.5 36.5q0 9 -1 33t-1 36.5z" />
<glyph unicode="&#x178;" horiz-adv-x="1253" d="M18 1499q7 12 34.5 16t70.5 3.5t47 -0.5q141 18 254 -5q19 -4 33.5 -15t25.5 -34t14.5 -32.5t12.5 -38.5q65 -175 80 -236q1 -3 7 -26t11 -37.5t14 -34t20.5 -29.5t25.5 -10q15 1 25.5 13t13 18.5t6.5 21.5q27 105 71 287q2 8 7 32.5t10 42t13 38t20 33t28 14.5 q59 5 83.5 4.5t92.5 -5.5t99 -6q88 -4 111 -14q35 -16 32 -57q-5 -46 -23 -97.5t-44 -112t-37 -93.5q-6 -19 -14 -40.5t-18.5 -48t-15.5 -40.5q-40 -108 -90 -213q-18 -34 -86 -179q-35 -71 -38 -90.5t1 -111.5q4 -159 11 -271q8 -143 -37 -161q-10 -4 -25 -5t-36.5 0 t-26.5 1q-102 -3 -183 2q-13 1 -67.5 -2.5t-67.5 6.5q-22 8 -36.5 26t-21.5 35t-9.5 47t-1.5 46.5t3.5 49.5t2.5 41q5 69 -3 173t-9 145q0 25 -33 101t-84 180t-62 128q-30 69 -94 191t-92 203q-40 122 -25 147zM266.5 1789q0.5 5 0.5 22.5t2.5 24t6 20t9.5 19.5t14.5 14 t21 11t27.5 3q13 0 45.5 1.5t47.5 2t40.5 -1.5t48.5 -7q21 -4 29 -26t8 -62v-43q4 -26 1 -61t-21 -57q-12 -14 -29 -18.5t-46 -3.5t-34 1q-4 0 -21.5 -1.5t-27 -1.5t-27 0.5t-28.5 4t-23 8.5t-19.5 15t-10.5 24q-1 12 -7 31t-6 35q0 2 -1 21.5t-0.5 24.5zM678 1812.5 q0 12.5 3.5 32.5t11.5 30.5t23 19t38 8.5q13 0 46 1.5t48 2t40.5 -1.5t49.5 -7q16 -3 25.5 -20.5t11.5 -34.5t3.5 -44t2.5 -32q4 -78 -31 -118q-8 -11 -22.5 -16t-26.5 -5.5t-31.5 0t-27.5 0.5q-4 0 -21.5 -1.5t-26.5 -1.5t-26 0.5t-27.5 4t-23 8.5t-20 15t-11.5 24 q-1 9 -3.5 29t-2.5 37q0 9 -1 33t-1 36.5z" />
<glyph unicode="&#x2c6;" horiz-adv-x="653" d="M64.5 1688q-1.5 21 10.5 43t40 38q14 8 57 34t57 34q7 3 21.5 11t26.5 13t24 7q16 5 37 2q18 -2 35 -8t27 -11.5t26.5 -16.5t24.5 -15q10 -6 56 -29t64 -39.5t21 -38.5q1 -15 -0.5 -39.5t-1.5 -34.5q0 -65 -33 -69q-17 -3 -36 4t-44 23t-26 16q-51 32 -54 33 q-7 4 -20 10.5l-18 9t-15 5.5t-17.5 2t-19 -4t-26.5 -9q-21 -8 -30 -12.5t-20.5 -12t-27.5 -16.5q-5 -3 -19 -12t-24 -15t-26.5 -13.5t-27 -6.5t-24.5 6q-10 6 -13.5 17t-3 28t0.5 20q0 25 -1.5 46z" />
<glyph unicode="&#x2dc;" horiz-adv-x="706" d="M43 1686q0 65 14 95.5t66 55.5q49 20 75 25.5t83 -0.5q16 -5 63.5 -30t75.5 -26q13 0 25.5 1t20.5 3t20.5 6.5t17.5 7l20 10l19 9.5q42 20 67 17.5t33 -24t10 -54t-2 -70.5q-2 -27 -9.5 -45t-27.5 -39q-16 -17 -71 -38t-82 -25q-43 -5 -111.5 27t-105.5 32q-18 1 -68 -18 t-72 -19q-25 0 -43 36t-18 63z" />
<glyph unicode="&#x2000;" horiz-adv-x="980" />
<glyph unicode="&#x2001;" horiz-adv-x="1960" />
<glyph unicode="&#x2002;" horiz-adv-x="980" />
<glyph unicode="&#x2003;" horiz-adv-x="1960" />
<glyph unicode="&#x2004;" horiz-adv-x="653" />
<glyph unicode="&#x2005;" horiz-adv-x="490" />
<glyph unicode="&#x2006;" horiz-adv-x="326" />
<glyph unicode="&#x2007;" horiz-adv-x="326" />
<glyph unicode="&#x2008;" horiz-adv-x="245" />
<glyph unicode="&#x2009;" horiz-adv-x="392" />
<glyph unicode="&#x200a;" horiz-adv-x="108" />
<glyph unicode="&#x2010;" horiz-adv-x="765" d="M104 610.5q0 10.5 1 25.5t1 21v99q0 5 -1.5 19t-0.5 24t5 16q7 13 26 17t48.5 3t33.5 -1h150q112 -5 170 0h19h22t18.5 -1t21.5 -3.5t17 -6.5q32 -16 24 -84q-1 -20 1 -68.5t2 -60.5q5 -54 -25 -59q-5 -1 -15.5 -2t-15.5 -2q-24 -1 -67.5 0.5t-55.5 1.5h-90q-30 0 -95 1 t-103 1q-50 0 -62 4q-12 3 -18.5 11.5t-8.5 21t-2 23z" />
<glyph unicode="&#x2011;" horiz-adv-x="765" d="M104 610.5q0 10.5 1 25.5t1 21v99q0 5 -1.5 19t-0.5 24t5 16q7 13 26 17t48.5 3t33.5 -1h150q112 -5 170 0h19h22t18.5 -1t21.5 -3.5t17 -6.5q32 -16 24 -84q-1 -20 1 -68.5t2 -60.5q5 -54 -25 -59q-5 -1 -15.5 -2t-15.5 -2q-24 -1 -67.5 0.5t-55.5 1.5h-90q-30 0 -95 1 t-103 1q-50 0 -62 4q-12 3 -18.5 11.5t-8.5 21t-2 23z" />
<glyph unicode="&#x2012;" horiz-adv-x="765" d="M104 610.5q0 10.5 1 25.5t1 21v99q0 5 -1.5 19t-0.5 24t5 16q7 13 26 17t48.5 3t33.5 -1h150q112 -5 170 0h19h22t18.5 -1t21.5 -3.5t17 -6.5q32 -16 24 -84q-1 -20 1 -68.5t2 -60.5q5 -54 -25 -59q-5 -1 -15.5 -2t-15.5 -2q-24 -1 -67.5 0.5t-55.5 1.5h-90q-30 0 -95 1 t-103 1q-50 0 -62 4q-12 3 -18.5 11.5t-8.5 21t-2 23z" />
<glyph unicode="&#x2013;" horiz-adv-x="782" d="M110 475.5q0 10.5 1.5 25.5t1.5 21v72q0 5 -1.5 19t-1 24t4.5 16q7 13 26 17t48.5 3t33.5 -1h148q116 -5 176 0q3 0 23.5 0.5t28.5 0t22 -3t24 -7.5q33 -16 25 -84q-1 -20 0.5 -55.5t1.5 -47.5q5 -54 -25 -59q-5 -1 -15.5 -2t-15.5 -2q-24 -1 -67 0.5t-55 1.5h-93 q-20 0 -55 -1.5t-63 -0.5q-54 4 -82 4q-50 0 -62 4q-12 3 -18.5 11.5t-8.5 21t-2 23z" />
<glyph unicode="&#x2014;" horiz-adv-x="956" d="M116 475.5q0 10.5 1.5 25.5t1.5 21v68q0 5 -1.5 19t-1 24t4.5 16q7 13 26 17t48.5 3t33.5 -1q25 0 105 -1t104 -1q36 -1 139 1t142 5q3 0 23.5 0.5t28.5 0t22 -3t24 -7.5q33 -16 25 -84q-1 -20 0.5 -55.5t1.5 -47.5q4 -50 -25 -55q-5 -1 -15.5 -2t-15.5 -2h-165h-154 q-19 0 -61.5 -1.5t-71.5 -0.5q-27 2 -129 2q-50 0 -62 4q-12 3 -18.5 11.5t-8.5 21t-2 23z" />
<glyph unicode="&#x2018;" horiz-adv-x="487" d="M94 1145q-15 151 12 239q14 49 52 81t90 32q24 0 33.5 -12t6.5 -31.5t-9.5 -40t-12.5 -42t-4 -32.5q5 -16 41 -16q1 -1 33 -0.5t33 0.5q33 0 43 -8q7 -6 12 -13.5t7.5 -13t3.5 -16t1 -14.5v-17v-16q0 -18 2 -52t2 -62t-4 -52q-2 -9 -4.5 -16t-8 -11.5t-8.5 -7.5t-12 -4.5 l-12 -2t-15 -1t-14 -0.5q-167 0 -225 8q-18 3 -28 21t-12 35.5t-2.5 40.5t-0.5 24z" />
<glyph unicode="&#x2019;" horiz-adv-x="481" d="M39 1401q0 28 4 53q3 15 9 24t19 12.5t20.5 4t27.5 0.5q150 4 225 -6q18 -3 28 -20t11 -37.5t2 -39t0 -24.5q15 -153 -12 -240q-14 -49 -51.5 -80.5t-88.5 -31.5q-25 0 -34.5 12t-6.5 31.5t9.5 40t12.5 42t3 32.5q-1 4 -7 7t-11.5 4.5t-13.5 3t-9 1.5q-10 1 -21 1 t-23 -0.5t-19 -0.5q-31 -4 -45 8q-10 8 -15.5 20.5t-7 19.5t-2 26.5t-0.5 23.5q0 18 -2 51.5t-2 61.5z" />
<glyph unicode="&#x201a;" horiz-adv-x="483" d="M41.5 215q0.5 26 5.5 51q1 8 4 14.5t5.5 11t8 7.5t8.5 4.5t11 2.5t11 1.5t13 1t13 0.5q167 0 225 -8q18 -3 28 -20t11 -37.5t2 -39t0 -24.5q17 -142 -10 -239q-16 -50 -53 -81.5t-88 -31.5q-30 0 -38 19t0 43t16 53.5t5 42.5q-2 16 -41 16h-63q-35 0 -45 8q-6 5 -10 10.5 t-6.5 12.5t-4 12t-2 14t-0.5 13v14.5v13.5q0 12 -3 50.5t-2.5 64.5z" />
<glyph unicode="&#x201c;" horiz-adv-x="960" d="M115 1145q-15 151 12 239q14 49 51.5 81t89.5 32q24 0 33.5 -12t6.5 -31.5t-9 -40t-12 -42t-4 -32.5q5 -16 41 -16q1 -1 32.5 -0.5t32.5 0.5q33 0 43 -8q6 -5 10.5 -10.5t7 -13t4.5 -12t2.5 -13.5t0.5 -12.5v-14.5v-14q0 -18 2 -52t2 -62t-4 -52q-2 -9 -4.5 -16t-8 -11.5 t-8.5 -7.5t-12 -4.5l-12 -2t-15 -1t-14 -0.5q-167 0 -225 8q-18 3 -28 21t-12 35.5t-2.5 40.5t-0.5 24zM532 1145q-15 149 13 239q14 49 51.5 81t89.5 32q30 0 37 -19t-0.5 -43t-15.5 -53.5t-5 -42.5q2 -16 39 -16h66q33 0 43 -8q7 -6 12 -13.5t7.5 -13t3.5 -16t1 -14.5v-17 v-16q0 -18 2 -52t2 -62t-4 -52q-2 -9 -4.5 -16t-8 -11.5t-8 -7.5t-12 -4.5t-12 -2t-14.5 -1t-14 -0.5q-168 0 -226 8q-18 3 -28 21t-12 35.5t-2.5 40.5t-0.5 24z" />
<glyph unicode="&#x201d;" horiz-adv-x="962" d="M84 1401q0 28 4 53q3 15 9 24t19 12.5t20.5 4t27.5 0.5q150 4 225 -6q18 -3 28 -20t11 -37.5t2 -39t0 -24.5q15 -153 -12 -240q-14 -49 -51 -80.5t-88 -31.5q-30 0 -38 19t0 43t16 53.5t5 42.5q-1 4 -7 7t-11.5 4.5t-13.5 3t-9 1.5h-63q-31 -4 -45 8q-10 8 -15.5 20.5 t-7 19.5t-2 26.5t-0.5 23.5q0 18 -2 51.5t-2 61.5zM502 1401q0 28 4 53q3 15 9 24t19 12.5t20.5 4t27.5 0.5q150 4 225 -6q18 -3 28 -20t11 -37.5t2 -39t0 -24.5q15 -153 -12 -240q-14 -49 -51.5 -80.5t-88.5 -31.5q-25 0 -34.5 12t-6.5 31.5t9.5 40t12.5 42t3 32.5 q-1 4 -7 7t-11.5 4.5t-13.5 3t-9 1.5h-64q-31 -4 -45 8q-10 8 -15.5 20t-6.5 20t-1.5 26.5t-0.5 23.5q0 18 -2 51.5t-2 61.5z" />
<glyph unicode="&#x201e;" horiz-adv-x="960" d="M82.5 215q0.5 26 5.5 51q1 8 4 14.5t5.5 11t8 7.5t8.5 4.5t11 2.5t11 1.5t13 1t13 0.5q167 0 225 -8q18 -3 28 -20t11 -37.5t2 -39t0 -24.5q17 -142 -10 -239q-16 -49 -53.5 -81t-88.5 -32q-25 0 -34.5 12t-6.5 31.5t9.5 40t12.5 42t3 32.5q-2 16 -41 16h-63q-35 0 -45 8 q-6 5 -10 10.5t-6.5 12.5t-4 12t-2 14t-0.5 13v14.5v13.5q0 12 -3 50.5t-2.5 64.5zM501.5 184q-0.5 17 0.5 40t4 42q1 8 4 14.5t5.5 11t8 7.5t8.5 4.5t11 2.5t11 1.5t13 1t13 0.5q167 0 225 -8q18 -3 28 -20t11 -37.5t2 -39t0 -24.5q17 -142 -10 -239q-16 -49 -53.5 -81 t-88.5 -32q-25 0 -34.5 12t-6.5 31.5t9.5 40t12.5 42t3 32.5q-2 16 -41 16h-64q-35 0 -45 8q-7 6 -11 13.5t-6.5 13t-3.5 15.5t-1 15v17v16q0 14 -2 40.5t-2.5 43.5z" />
<glyph unicode="&#x2022;" horiz-adv-x="497" d="M76 684q-1 31 3.5 58.5t16 56t37 46.5t62.5 19q5 0 23 1.5t30.5 2.5t32.5 -0.5t35 -6.5t32 -15.5t29 -26.5t21 -42t12 -60q7 -119 -58.5 -153t-195.5 -9q-34 6 -57 43t-23 86z" />
<glyph unicode="&#x2026;" horiz-adv-x="1740" d="M83 196.5q0 11.5 1.5 32.5t7 32t14.5 23.5t24.5 18.5t37.5 6q12 0 53.5 2t61 2t52 -2t58.5 -8q5 -1 9 -3t7 -6t5 -7t4 -9t3 -9.5t2.5 -11t2 -11t1.5 -11t1 -10.5q1 -11 -1 -33t-1 -34q0 -5 2.5 -33.5t2 -41.5t-5 -33.5t-15.5 -33.5q-12 -16 -31 -20.5t-51 -3t-39 1.5 q-96 -7 -164 6q-31 6 -37 41q-2 29 -2 88q0 8 -1.5 32t-1.5 35.5zM697 196.5q0 11.5 1.5 32.5t7 32t14.5 23.5t24.5 18.5t37.5 6q12 0 54 2t61.5 2t52 -2t58.5 -8q6 -1 10.5 -4t8 -9t5.5 -10.5t4 -13t2.5 -13t2 -15t1.5 -13.5q1 -12 -1 -34t-1 -33q0 -5 2.5 -33.5t2 -41.5 t-5 -33.5t-15.5 -33.5q-12 -16 -31 -20.5t-51 -3t-39 1.5q-96 -7 -164 6q-31 6 -37 41q-2 29 -2 88q0 8 -1.5 32t-1.5 35.5zM1312 196.5q0 11.5 1.5 32.5t7 32t14.5 23.5t24.5 18.5t37.5 6q12 0 53.5 2t61 2t52 -2t58.5 -8q5 -1 9 -3t7 -6t5 -7t4 -9t3 -9.5t2.5 -11t2 -11 t1.5 -11t1 -10.5q1 -12 -1 -34t-1 -33q0 -7 2 -27t2 -32t-1 -29t-6 -30t-14 -24q-12 -16 -30.5 -20.5t-50.5 -3t-39 1.5q-96 -7 -164 6q-31 6 -37 41q-2 29 -2 88q0 8 -1.5 32t-1.5 35.5z" />
<glyph unicode="&#x202f;" horiz-adv-x="392" />
<glyph unicode="&#x2039;" horiz-adv-x="751" d="M2 717q6 42 45 78q15 15 36.5 42.5t27.5 34.5q133 157 157 189q69 88 105 96q31 8 73.5 9.5t101.5 -1t77 -2.5q27 0 37 -10q12 -20 -31 -78q-41 -55 -135.5 -161t-135.5 -162q-18 -28 -15.5 -42.5t26.5 -41.5q42 -48 126.5 -147t98.5 -115q4 -5 14 -16q60 -68 54 -90 q-3 -13 -27 -15h-45h-107q-10 0 -31.5 -2t-35 -2.5t-33 5t-35.5 17.5q-33 23 -92.5 91t-117 139t-68.5 83q-5 5 -29 28.5t-34 39.5t-7 33z" />
<glyph unicode="&#x203a;" horiz-adv-x="757" d="M90 298q1 9 4.5 18t13 21.5t17 21.5t18.5 21t15 17q13 16 37 46.5t44.5 54.5t41.5 45q48 49 81 94q5 6 15.5 17t16.5 17.5t13 18t6 19t-5 20.5q-14 26 -34.5 51t-53.5 60t-44 47q-16 19 -50 58t-59.5 70t-47.5 60q-44 59 -29 78q7 10 37 10q17 0 76 2.5t102 1t74 -9.5 q32 -7 102 -96q14 -17 67 -77.5t75 -94.5q8 -12 19 -25t25.5 -28.5t22.5 -24.5q5 -6 19.5 -20t25.5 -26.5t17 -23.5q11 -21 8 -34q-2 -29 -49 -66q-9 -9 -24.5 -27.5t-24.5 -27.5q-53 -56 -123 -148q-62 -86 -138 -143q-20 -15 -45 -19t-60 -2t-44 2h-90h-45q-14 2 -21 7.5 t-6 14.5z" />
<glyph unicode="&#x205f;" horiz-adv-x="490" />
<glyph unicode="&#x20ac;" horiz-adv-x="1083" d="M25 802.5q-1 16.5 1.5 38.5t2.5 31q0 5 -1 20.5t-0.5 27t3.5 20.5q3 20 34 21.5t48 -3.5q5 0 16 -0.5t20 -0.5t15 1q18 2 26 31q3 17 17 64q20 63 53 123q36 66 90 120t117 86q91 48 195 54q134 11 231 -23q21 -6 33.5 -11.5t26.5 -15.5t19.5 -24t2.5 -33 q-12 -74 -41 -139q-1 -2 -7 -20.5t-11 -30t-13 -27t-17.5 -24.5t-19.5 -11q-22 -6 -71.5 7t-63.5 14q-99 4 -149 -41q-30 -24 -54 -70q-3 -6 -3 -11t2 -8t5 -5.5t8 -3t9.5 -1t11 0t10.5 0.5t10 1t9 1q12 0 42 -1.5t42 -1.5q12 -2 45 -1t43 1q5 0 24 1t30.5 0.5t26 -2.5 t21.5 -9t6 -18q0 -4 -2 -11.5t-2 -11.5q-3 -25 -10 -59q-2 -13 -10 -33.5t-10 -26.5q-4 -18 -9 -22q-6 -3 -16 -3t-22.5 1.5t-16.5 1.5q-63 0 -96 2q-78 4 -123 4q-2 0 -10 0.5t-12.5 0t-11.5 -1.5t-12.5 -3.5t-8.5 -7.5q-16 -19 -9 -84q1 -9 8 -13.5t12 -5t17 -0.5 q53 0 82 -2h92q4 0 22.5 1t30 0.5t26.5 -2.5t22.5 -9t7.5 -18q-1 -4 -3 -12.5t-3 -12.5q0 -26 -15 -78q-1 -3 -1 -22t-5.5 -27.5t-21.5 -13.5q-25 -6 -84 -2h-64q-56 0 -80 -10t-4 -41q4 -5 19.5 -30t27.5 -34q53 -47 160 -43q18 1 55 11t63 8.5t46 -25.5q13 -16 20 -31 t13 -39t10 -35q4 -6 21 -40q5 -20 14 -44q16 -43 3.5 -62.5t-62.5 -31.5q-143 -41 -256 -30q-113 10 -195 53q-63 30 -117 84.5t-90 120.5q-26 43 -59 139q-1 3 -3.5 15t-3.5 16t-4 13.5t-6.5 13l-9 9t-13 7.5t-16.5 2q-38 -3 -77 0q-20 0 -27.5 5.5t-7.5 22.5v56v92 q0 10 6.5 16.5t18.5 8.5t22 2.5t25.5 -0.5t19.5 -1q2 0 8.5 -0.5t10 0t8 1.5t6.5 4t2 8q2 12 2 39q0 33 -6 41q-10 10 -41 6q-2 0 -15 -0.5t-19 0t-17 2t-18.5 5.5t-12.5 11q-7 12 -8 28.5z" />
<glyph unicode="&#x2122;" horiz-adv-x="1374" d="M41 853.5v24v25.5q-1 53 15 68t69 12h98q49 -2 152 -2q63 0 88 2q6 0 20.5 0.5t26.5 0.5t20 -1q31 0 45 -20q7 -12 7 -48q-2 -22 -3.5 -44.5t-1.5 -33t-2 -22t-4 -15.5t-9 -7.5t-15 -4t-23 -0.5q-11 -1 -39 0.5t-44 -1t-25 -11.5l-3.5 -3.5t-2.5 -3.5t-1.5 -3.5t-1 -5 t-0.5 -5.5t-0.5 -8.5t-0.5 -11.5q-1 -38 0 -97t0 -97q0 -9 0.5 -30t0.5 -31t-1.5 -26.5t-6 -25t-11.5 -17.5t-19 -12t-29 -2q-13 2 -76 2q-28 -4 -43 11q-11 13 -13.5 30t0.5 43.5t3 34.5v141v84q3 28 -16 41q-6 4 -20 6t-26 2t-28.5 -0.5t-18.5 -0.5q-13 0 -22.5 2t-16.5 4 t-11 9.5t-6.5 11.5t-3.5 17t-1 18.5zM651 819v74q0 41 8 61q6 16 21.5 20t39 1.5t34.5 -0.5q45 4 67 2q4 -1 13 -0.5t16.5 -0.5t11.5 -5q18 -10 27 -47q1 -4 8.5 -29.5t13.5 -40.5q3 -7 12 -24.5t13 -28.5q25 -62 42 -38q3 4 5 11q9 27 31 70q5 10 19 41.5t26.5 56.5 t19.5 29q15 11 40.5 13.5t63 -0.5t44.5 -3q33 -4 43 -27q8 -27 8 -61q-2 -25 -2 -74v-57q-2 -37 -2 -182q0 -60 2 -91q0 -5 2 -20t2 -23q0 -26 -6 -34q-12 -19 -47 -15q-40 4 -66 4q-4 0 -16 -2t-19 -2t-16 0.5t-15.5 5.5t-9.5 13q-4 7 -4 17.5t2 23t2 18.5q0 15 -1.5 61 t-0.5 72q0 21 -2 29q-5 15 -18 2q-7 -9 -16 -35q-1 -3 -4.5 -9t-4.5 -9q-1 -1 -6 -17q-16 -37 -31 -43q-24 -9 -61 0q-7 1 -12.5 3.5t-8.5 4.5t-6.5 7t-4.5 7.5t-4.5 10t-4.5 10.5q-3 7 -10 19.5t-10 19.5q-10 24 -15 31q-10 15 -16 -2q-6 -12 -2 -29q0 -9 1 -28t1 -27v-55 q0 -16 4 -56q0 -36 -23 -41q-16 -5 -63 0q-20 0 -66 -4q-15 -1 -25 2.5t-15 9t-7 17.5t-1.5 19.5t2 23.5t1.5 23q0 53 -2 88v182q-2 25 -2 57z" />
<glyph unicode="&#x25fc;" horiz-adv-x="1075" d="M0 0v1075h1075v-1075h-1075z" />
</font>
</defs>
</svg>
